<mxfile host="app.diagrams.net" modified="2022-07-27T11:01:15.697Z" agent="5.0 (Macintosh; Intel Mac OS X 10_15_7) AppleWebKit/537.36 (KHTML, like Gecko) Chrome/103.0.0.0 Safari/537.36" etag="8xLZu2zg9UFZ1KuE84dG" version="20.1.4" type="github" pages="7">
  <diagram id="cQKS_VmFmUghxm6E9b5B" name="build apis using python">
    <mxGraphModel dx="1110" dy="724" grid="1" gridSize="10" guides="1" tooltips="1" connect="1" arrows="1" fold="1" page="1" pageScale="1" pageWidth="850" pageHeight="1100" math="0" shadow="0">
      <root>
        <mxCell id="0" />
        <mxCell id="1" parent="0" />
        <mxCell id="drbNVdjPMbyhYuRTP5Af-46" value="" style="rounded=0;whiteSpace=wrap;html=1;dashed=1;fontFamily=Comic Sans MS;strokeColor=#666666;fillColor=#f5f5f5;fontColor=#333333;" parent="1" vertex="1">
          <mxGeometry x="30" y="140" width="660" height="310" as="geometry" />
        </mxCell>
        <mxCell id="drbNVdjPMbyhYuRTP5Af-33" value="" style="rounded=0;whiteSpace=wrap;html=1;dashed=1;fillColor=#fff2cc;strokeColor=#d6b656;fontFamily=Comic Sans MS;" parent="1" vertex="1">
          <mxGeometry x="419" y="340" width="191" height="90" as="geometry" />
        </mxCell>
        <mxCell id="drbNVdjPMbyhYuRTP5Af-31" style="edgeStyle=orthogonalEdgeStyle;rounded=0;orthogonalLoop=1;jettySize=auto;html=1;entryX=0;entryY=0.5;entryDx=0;entryDy=0;dashed=1;fillColor=#f8cecc;strokeColor=#b85450;curved=1;fontFamily=Comic Sans MS;" parent="1" source="drbNVdjPMbyhYuRTP5Af-30" target="drbNVdjPMbyhYuRTP5Af-18" edge="1">
          <mxGeometry relative="1" as="geometry">
            <mxPoint x="270" y="298" as="targetPoint" />
            <Array as="points">
              <mxPoint x="250" y="240" />
              <mxPoint x="250" y="265" />
            </Array>
          </mxGeometry>
        </mxCell>
        <mxCell id="drbNVdjPMbyhYuRTP5Af-30" value="" style="rounded=0;whiteSpace=wrap;html=1;dashed=1;fillColor=#f8cecc;strokeColor=#b85450;fontFamily=Comic Sans MS;" parent="1" vertex="1">
          <mxGeometry x="40.75" y="196" width="190" height="106" as="geometry" />
        </mxCell>
        <mxCell id="drbNVdjPMbyhYuRTP5Af-5" value="OpenAPI" style="shape=image;verticalLabelPosition=bottom;verticalAlign=top;imageAspect=0;aspect=fixed;image=data:image/png,iVBORw0KGgoAAAANSUhEUgAAAMgAAADICAIAAAAiOjnJAAAlvUlEQVR4nOydd1xT19vAT3YgCSEM2VtEEVABERXFvWqXVbHaOuqve7nbam1tq7bWLldbq9bVum1t3VtxsEQFBFQ2yAwJISRkJ+9HLy9SNDfJzT33JprvX7fk5Jyn8uXec895zjl0g8EAHDjAGyrZATh4MnGI5QAKDrEcQMEhlgMoOMRyAAWHWA6g4BDLARQcYjmAAp3sABwQQVNT0/Xr1wvyC8rKymtrayUSiVqtBgCw2WyBQODr6xMaGtYzKrJPnz5cLheXFimOkfcnGJVKdfbsuZMnT+bfyjfnF02n02Jj48aMHT1w4EA63aqbjkOsJxOVSvXXwb/379/X3CzF8PUuXbpMe2Xa2LFjaDQatgAcYj2BpKdnrF2ztr6+3sp6QkJD5s+f16NHDwzfdYj1RKFWq3/++ZfD/x7Gq0IqlTp9xvRp06ZSqZa95znEenKQSCRLP11aUFCIe80DkwYuWbKYxWKZ/xWHWE8IIpFowfyFlZWVkOqPiYlZ+fUKJycnM8s7xHoSkMlkH34wp7y8HGorsbGxX3+z0sy3RccAqd2j1+uXf7UCtlUAgOvXr69ds87Mwg6x7J5du3ZnZWUR09bRo0fPnDlrTkmHWPZNaWnpzh07iWxx3dp1YrHYZDGHWPbN+vUbtFotkS3KZLLNmzabLOYQy47JzMzMuZlDfLunTp0uL69AL+MQy47Zu2cfKe0aDIZ9e0007RDLXqmsrLp58yZZrZ8/f14mk6EUcIhlr5w17+0MEmq1+tKlSygFHGLZK+np6eQGkHY1DeVTh1h2iVQqLSkpITeGmzdzUKZtHGLZJUVFxaTPxcnl8urqamOfOsSySyorTLztEwPKnLcj5x1odCqtTqM36GhUOpvBQWbfLE0/IhihUEh2CPcRNhgN46kQS6VpbWipapBWiuW1Ynlds0LYohC3KJsUmhaFRm4w6JFiQ7qnvBQ39/6DpvTWomUznNgcDofH5wlc+e7uAk8Pd29vrwBf70A/nyBnJ3xWHGCmBfVVnzCkLS3GPnoyxZKrmstF+RWNBffEd+5JiprkdZbWYDAYWhWyVoVM2Fj76Kee7t7Bgd3Cgnt0DY3sHh7jwhPgFLi56IidxjGGXq839tGTI5ZCLbtTl3W3Pru4/nptcynUtoSiOqGoLutGKvKffj7BUT3iYyL79o7ux+O6Qm0agWbdEhq8oFAoxj6yifisQSSryam6kHcvtVSYpzfoSImhura8urb85LkDFAqlW1h0QmxyYvzQAL9QeC1yOBx4lZsPl2s0DHsVq1nRmF1+6lr5ySrxHbJjeYjBYLhTnHunOHfnvnWB/mGDEkcPSXrGy9MP94Y8PTxwrxMDnh6exj6yM7F0eu2t6stXi/8trE1v73TbJpX3Sv488POfB36O6hE/euiE/gnDmQwLFiOgExAYiFdV1uAfEGDsI7sRq0XZdKXo78tFfzUrGsmOxTJuFV67VXiNt4M/auiEcSNSPD28ra8zPLwrHqFZBYvFCgy0Z7GELffOFvyRUXpMq1eTHQt2WmTNBw9v/fvojkGJoyaMnxUS1M2a2gQCQVBQUAWpw6TR0VEo66RtWqwGaeXxvC3ZFadt/KlnPnq97uLV4xevHu8XN2TKhLfCgrtjrqpfYj9yxeqXmIjyqY2KJVU0HsnZmFF6jKwXPdhkZF/IyL7Qv+/wVye/5+8bgqGGYcOGmcy2gweVSk1OHoxSwObEUmuV5wp3nynYodIqyI4FOmlZZzOyL4wZ9tLUie+48CwbAAsP79q9e/fbt29Diw6NAQMGuLu7oxSwrRkxsbxu+eGUo7kbnwarEPR63bEz+96a/9zxM/tRBrIfy6DBg6DFZYKUlMnoBWxLLDeOtyfPn+woSEAml/6ydcVHX86sqCo28ys5N3MIXvjVTmJiYmTPSPQytiCWPlf8q0Td9g86JeEjOpVBdkjkcKcod+6SKfsObdLpTPQsc27mLF68RKlUEhXaQxgMxtvvvGWyGMlitWgqD1U8c6l+/qW6BchPPF0Ch/eYRm5UJKLVaf/Yv+HU+b9QypBoFQDgtdmv+fubfqqQKVZR84E9pYnVrakAgEr56RLpP8jPR0XNdOP4kBgYubwwbvrYEZOMfUquVYmJ/SZNmmhOSXLE0uqVF2o/PFUzQ61vbv/h5fpFGn0rAIBJZyN5UU8hL4yb/tq0ecY+JdeqkJCQxUsWo2Q0dIQEsWSa6r8rRuVLOi/TlmnvZTeuQq5jAgZH+g4gPjZysWWr/AP8v129yvysCqLFqlNk7C9LalBmP/bTG+I1Taq7yPXE+Hl0KpPY6MjElq2KiIj46acf3dzczP8KoWIVNe8/VDG2VddgrIDeoLlUPx+59uT5j4x8lcDoyMSWrRozZsxPP/0oEFiWJUucWDdEa07VzNIZVOjFquTniqVt70Qjo6a7PwW9eJu1ylXg+vmyzxcuWsBkWfzoIEisRmVeWsNSAMxaCne5/iONXgYAYNBYE+Pnw4+OTOBZxXgAtqicnNhTp768Y8f2wVgH9wkSy4MdPdJ3CwWYtRu9XFtzrfEb5DrKPynKLwlydKQBzyomk7l8xVe7dv85ffp0Hx8L7vqBQYGvv/H67j27Z/9vtjUJ0HAnofV6fUNjjXcXfwBAOH8SAOB0zWwDMJ2wcFO0PoL/ihurOwDgpbi5d+qyNDoTz1C7A6pVXy3/Mj4+HgAwY+b0GTOnFxUVXbuWXVhQWFJSIhQKO47s0+l0Ly+vsK5hkZGRffvGBwcHY/0f+g9wxfpl64qrmWeWL/4tJCjCIrf0QJNaN++FoGP373Y8v5E9ZxzL/Q1qqARDjFXthD8Audbr9c3NUrVKBSiAzWbzeDwYq3MhPgo371x98tzBFlnzpyvfKKtoW/IQzp9k5jOxuvXi3eb9yPWIyFc8uPgvSSALgq3qBJVKFQhcvby9vLy8+Hw+pDXfsMTae2jTvyf+RK4xu3Wl4WO1vuVBL575xPTi4VnFZrOXL/8K3SrCgCLWmQuH/ty/oeNPsLnVqq3LEq5Ernv6DYjxR0tZtAugWrVy5Yq4+DjrAsQN/MXKuZWxYctXj/4cm1u54p9FynzkekLcXAYNtxVUxAPbql69e1kXIJ7gLFZ1bcWqtQt1+sf3zTG4pQfa1Pq2X4Y712d01Ex8AyaMp8oqnMVqVciXf/+hTI528iIGt2paL99p3oNcD+8xzZNndC2bzfK0WYWzWGs2flZda/pEFwxuXW1YrNbd95VOY06yt178U2gVnmL9c2xnWpa5+/ha6lartj6zcTly3cM3sXfAUDxCJoKn0yrcxCouK9y+d61FX7HUrVzxr43KPOR6QtyHTBrbupCJ4Km1Ch+xlMrW79Z/rNVqLP2iRW4ZgC61bi4yjS3geI+OnmV14HAh0Sq1mpwEm47gINa23T/V1GFc622RW7WKtNuSXcj1sB5TvVyCsIYMHRKt2rlv/Y+/LsVQM75YK1ZufuaxM1Yt9LbIrasNS1Q6yf1ePJVhs2Px5Fq1/5/NVzJOX04/haF+HLFKLLVauX7zl9YHYb5bCp0wQ9g2+trdJ6FP4HDrW8cX0q1Crn/bsUomQxv3gY1VYu37Z0tdwz1c4jDfrVtNmxqVbWepTYj7kEU39/hrArARqwAAkmbR1t0/YmgIL7CLda+2/K8j23AMxUy3DEB34X4vXg8AcHXuMib6NRxjsAbbsQrhzMVDd4rzMDSHC9jF+v2P7zC8CaJjplv1ioxCSVvqxNDuL3vz8clNswZbswrZEHXjtq/J2loMo1jXc69eu3kZ72CA+W5dbfhUqWsCANCo9EnxC2BEYj42aBVCcVnBhcvHMLRrPVjE0uv123ZBfH6b45ZS15gh/AK57uYdHxc0El486NisVQg79q1Ta0jI6sYi1qW0E+VVRRCCeYg5buU3bWlQ3ECuX4z7gEV3hhrSY7FxqwAAInH9sdMkbPxnsVg6nXbXwV/gBPMfTLplAPqLdXMMD3rxfCfPcTH/IyCqjti+VQgHD/+uVBG9kZ3FYqWmnaitr4ITTGdMutWgvFbYtAO5To6Y7MOHeBhEJ+zFKgBAs7TpOOE3LcvE0uv1B/79HVowj8GkW2nCpUqdGOnFT+67kJio7MgqhEPHd6o1hG5mbplY126kVlXDPf/oUdDdUurE6Q2fI9ddvfrEB4+GHY/dWQUAaJI0nr98BMMXMUOx6ATYJStezyvIghmPUXhcfvv6RGR/kQ7rE6kTg897OcU/2Mdb9NXhyUqN3ERtbEGgW6SPa6gnz1/g7MVlu7LoHA6Lz2G5AABkMunVrLN1DVUVVcUlZYViycPjHu3RKoQA39D13x40c3cr67FArLLKux9+YmKvXKiguOXJjp0UcgG5jV24vedg9k+Pfp1KoYZ7xUX7D+ru08+izIja+qrc/MyM6xcC/cJmvjzHWDFbtgrhi49/6RPd38pKzMQCsX7ZuvK4dYkM1oPiVrL3mijB/x4c5KT79vj0GsnDQ949uH4Dw1/sFzqOx7ZghyeLsH2rAACJ8cMWz/3B+nrMwVyxlMrWme+NbFWYeMQQgDG3WDTBtNCbTnQPAEBJQ85Pp98EAPi6ho2Nnh0TMIRKgbjm2y6suv9+Q6P9vvakwJWII+loy5YtM6dcatqJS+kn4cdjGrVadSXjdGzMAOQfyJ3d05XZtbTlsNbQqtQ3hfCeQfaL1+hUSeETJics9OGHQu1Y2ItVyOwh30UQGdEHrwpRMPfvmOB3CnSMvScWSnbUKTKRHz7f592+IWMokPdpsiOrEAj7PZr17y5uEubmZ8IPxgKMuEXNEn5NWAx2ZxVyPGdZ5V3cq30Us8S6mnXWolEJYnjUrWcCDgz3/ZWY1u3RKoQrhGQtmyVWWuYZ+JFgoZNbQdxRznQvAtq1X6uQ2wS8ytsxLVaLTJp/5zoBoWADcatRVEdYi3ZtFQDgXk1ZTS30EzRN7+h3I/eKpcedEUxC3BAPdywHLcvl8uLiksrKSmFDg1wu12i0dAadw+F08fQMCAzs2jWMy+V2+oq9W4VwLefycz5wF8+ZFis79yrUCKykb5/B783+zKKvVFdXnz1zLiMj/c6duyh9RwqFEh4e3q9fwvDhwwMenKr9ZFiFJAA/NwbuSVimB0hnvTdK1GR0y39yCQoIX/3FDjbL3IU62dey9+7dm51t8ZO9V+9eAwYM2Pr71ifAKgAAi8ne9VsqgwHx4A8Td6zq2gqbtcqJ7fzJnO/NtKqsrHzDhg03rt/A1lbOzZycmznYvmtrVgEAVGplUemtyIhYeE2YECv/9uMPvbEF/vfqIl/vQJPF9Hr9nt17tm/fodVqCYnrP9igVQj5t2+QKdad4lx4bVtD76jEkUNeMFlMJpOtWL4iM5OcVB+btQoAUHj3JtT6TYpF2opHFOg0+puzPjFZTCQSLVr4UXm56b3gYGDLVgEAikvzodaPNo6lUivv1ZRBbR4bY0dM9vM28bYskUjmz1vgsMoYEqm4UVQPr340sSqqimxwBIvJYE16fjZ6GbVa/emSpVVVBC366ITtW4VQUl4Ir3I0scor4S4exMaI5Odd+e7oZTas31BYCPFfDQV7sQoAUFldAq9yNLHM2amWeJ4Z9TJ6gbSraUeOHCUqnP9gR1YBAO5VQ+znoIl1rwb6jJKldAuLDvALQSmgVCrXrLFsN1S8sC+rkElDeJWjiVUvxGfvKxwZOmg8eoEDBw4KhUKiwnkIi8VCtyrnVrpNWQUAwGtvs8eCJlZDYw28hrHRL3YIyqcKheLA/gMEhvMQCoUSGoa2DjssJJJGNescUMJokTUroC1iMCqWTC5VKole8I9OcEC4hztautWZ02daWloIjOghSqXy6BG0DYO4HJeI8BgCIzILePN1RsVqkoggNYmZqEgTB6adPEnmjq6nTploPaq7rRzN1Y64qRFSzUbFkjTbnFjhoVEonwqFjWQNMSBUPAClgA3esZqlYkg1GxWrRdYMqUnMhAV3R/n0+nXy58uvXUOLoX0tpO0A77dsVKxWhQxSk9igUCg+Xv4oBQryCwgM5/EUFqDF4OHmxWLZ1kkt8lZYXVKjk9AKJfmLnjviJujCYKCdgllaSv60ZkmJia14BvcfJxITl55vEjeBJ6SajYqlUpF/HktHeFwX9AK1tbVExWKU+noT07rvv25ZFrX9YvRRqMF7q20rcWJzUD41GAzNzeR3ClUqlVxuW3d6sjB6x6JSqFBzoi2Fx+WjfKrRaGwkEUOpVHI4Rv8G1FqlTm9Df7E0KoNJh9LtMypWyouvp7z4Oowmn2b2ZH6TVXaC7CgekhQ+ISVhEYya4e6ZQRhMJpNGs4kJEzYb7Qag0tjWZAadxoBU8xMiFgDA1dWV7BAAi8VCeQ7ef1Ca2sOSYGgU0wtLsWG03iLpwRzxOkitYoBJdXku8F+UAr6+PiIRybMF3t4mFmTLVBKiYjELBg1tBMcajIql0cvqFeQsbjGGRi9nUI3eD0JDQ/PybhEbUWfCwsLQC4hk1UTFYhZsBtr91RqMPgpZVPKfLJ1oUqFt7BTZsyeBsRiLIRLlU6lCpNLaVh/LiXix2DRY+8BiplGFtsgxLi6WsL2mjREfj5a/UCW+TWAsZsFhw7p9GBXLiQ5rsB8zda1ouwoKBIKYGDLTB0JDQwMCAlAKlIvIn83sBI8tgFSzUbE4dCwbA0GluvUieoHRY6AfS4HCqNEmjrYrqrtGVCzmwmObWO+EGeN9LJornQLrAYwNqaYMvZs1dOgQNzdynuDOzs7jxo5DKdCqbilrJPnd4hEoAmdYGyCijWO5MOHuzYWBkpZDKJ8ymcwpU1IIDOchEya8yOGi/R3eundZb9ARGJFpXJzcyBkgdWGgLbQihbvNe9ELPPf8c37+fkSF04abm1uKKaEzy44TFY65eHDR8tusBE0sAbMbvIax0aS+XdOKtsMgg8GYN3cuwa+HH875wNkZ7XxXsbzubr3NdbAsOlDIUtDEcmOhpQKTRY54PXqB3n16T06ZRFQ4YOy4sUlJSehlUu8eIOs0eRS8XEzvLoYZdLF6wGsYG67McOQkJnRmz54dhzqkhBcREREffPA+eplWtfRK0d8EBGMpvq5d4VWOLlZPqhm73xIDneKc6LlsSmhmAGeYycI0Gu3zzz/rFgH3Ue7v779y5Qom00TW2pmCP2xt7hnBXwDx3wdNLDqV7cZCm6MgjFDec1PDrsd5LKRR2n6LOr2JfR85HM63365Cn2OxhuCQ4B9/+sFVYGLkWiyvvXB7D6QYrIHv5Mlzgjg0YyJtposTyWss+cywZwMOjfXfzWO0DWor1LL9177//uT/TLrF4/G++2710GFDcY+qX7+EtWvXmDNmtj/rB42O0MOYzSTEE22RpvWYeNL5OPUvkGyFGoEx6BSnWI+FsW5zaNT21A5DZunxQzfWtyjFAIDTBTvHRM1Cr4TFYn366ZJevWI2/rpRocBheQiDwZg1a+akyZOoVNOpbFllJ25VX7K+URgEe0RDrd+UWM4DoDZvjBDuM0neq10YD9+HayTF+zJXlwgf7ol9PHdzd++EYA/TSQ3PPvtsQkLCr79uTL2Yak1UCQkJ77z7NvqEYDsiWc2+rO+saQ4qXbv0hlq/6QMEthdFyLTE7Wfkwggd5L06mDum/SdKjfxozqbUu/sfHbkWOHstGruda/YUfVFR0Z7dey5duqzTWTAITqFQEvsnpqRMjo42969crVX+eOqNe01EHOCGATaDs2rSKSoFYjK3abHO1b5bKNkGL4J2aBR2rPv8WPd5dOrDtPGsshOHbqyTKoymhoZ16fXesPUWTU00NUkuXriQlpael5enUqmMFWMymZGRkYn9E4cMSfb0tCDXQ6fXbUn9JK/aqrsjVKL9B72RvBpqE6bFKpb+dbL6VahBPDgRbsxgr+9cmA8nkWqbS/dlri5uMH2WRO+AYbMGLcdw6rNOp6uoqKisrBIKhS1SqU6vp1KpPB7Pw8MjICAgODiIwcAylbYrfWVaCVoWNemkJHyUFP4i1CZMD1MFcoZTKQy9AdZqOB4jaJDXauQsZwSlRn48d8uFO3vNnLUta8yVKhpdnbtY2jSNRgt9gKVfRKFV3WLOHwO59PSF3nU2/VfOpPF9nQbCaJtGYcW7fzQ1NLujVdnlp5cfnnLu9i4zreI7eXww4mcMVkHCmcn7YMTPnjyzOvikECCIEHCgHxdqQiw90Cp1TWEupg8XsZRAzqiXQ7P6dfmMTm07ZamuuXztmfe2XVnarDB3E1HEqi7/P+d14cpRIYEnYnZE3CQ8faFt3sbV2dOW3eodiP/A3qOYEIsK6GyaIMzlBQrA7Q2CxwgY47/72cC/+cy2NS0qTes/N9Z/c+yVIktSADpZdfjk7h9+XjJ3yZSsGyT0mnfuW79u0xd7/96E/Kctu9UnaDgBrdCWLVtmshCDyqlTZDZrrN1vnkphxrrPHeW304P9cNj3RuW5jRcXFNSkWTT//6hVm3asQo5pSb16XNRUHxkRy2TCWjT3KKHB3U+eO3gjL41KpUX1iENe6XsFDL1VfblVLSUsDJMEufcc2RP6q5i5Yj24ddHQszdNEsAZPj7gQFeXl2iUtletBmnltstLTxfssHSO1phV7ZSU3z6b+g/HmRcSFAEpN0sPdAWS7TdEP3R1eREACseZByggNz8zryDLlt0a1XN6kBlDytZjergBQatXbisKU+mxLOTl0v0Hen3z4BfQhlqrOHFr27nCXRi2XjFpVTveXv4bv/+XYvkwBDo6g7qoeX+2aLVEXQQAGOG7OYL/MrLx0/sfTaypqwAATJv4bvuWKpJW4doz7whbyDnYpyN0GnPFi4edWWj79uCFuf/odCo7gm/xKcJUCiPWfd7UsOsdrcqpurD88JTT+duhWgUAGDN8EmKVQivMFC5HPLCGZnVphvCrHcU9zta+0V7blfrFKl3z/Q4DnfHmjI+RH/55YIMN9rf6BA4nxioL7ljIQuRdpX3Mr9rfechg7x8ErIc7ugqlVfuvfV9Ym255nMBSqxgM5rb1p3hcVwBAduN36cLPAQCe7D6hvGf9nYd0cYqjmrcfht6gaVBcr5KfL5MdESofP0AVI3h7kHfbtOA3axZczTyDXNvafWvuqN9CPQlaemmBWPd/l5UvVMpPmyzGofsO7PJ1OH9i+0/UWuWp/B1nC/7Q6jHmkFhkFQBgaNL4uW8vBwAYgG5ncXSL5j8bZdMpzu6sSHd2tAsjmMvwY9M8GFQnKoWpN2i1erlC1yjT1Eg1pSJVfqMyT2cwkRZBAbTJIZc92Pd/Z0JR3bsLX1Sq2pbS245bge6RC8f8TlhzlolVKTt7uOo5lAJUQI9xe7ev52Imldv+w7x7lw5c+0Esx75HqKVWAQBWf7Ejouv933R5y/Gj9yZibtpMvJ0SXwo+c98xAA78+/uOvQ8PirIRt2YM/CI+mLgFvZZ1bAO5wz1YRu+lfs6DUkLTB3qtbLeqseXer+fn/XZxIcFWhQZ3R6wCANySbMLctPnUKdJvS/5Erl8Y96q/78NJT1vob7lxfPoEEjF81Y7Fb0xxHo/ZWdCZ7j3S9/cXgk60r7/Q6FTHcjevODo1vwZttZZJMFgFABg7vG2VjlRdUSkz/ezGhasNn6p099+a6R168QikuzWy53QaldDlCxaLFebyvBvr4UAIBdB6ub03LfRGN/7DFZu37l1ZceTl43mbtdZl5WKzytmJmzywbbV7vmSLARC07kqhE2YIv0Cue0X1S0oc1fFTEt1yde6SGPoMMW21Y7FYFEBN8PgUufZxHpgScjXJaxWT1rYJu0hW89uFhRsvzhfJrD2SDptVAIBhg8azWU4PBpxUBZLtVoZhEbeatgiVN5Hr2a8scGL/ZxUrWW6NjZ5NpxG9ATaWwcMwl+dCuM+M8N00Ieik+/9Pzmh06hN5W1cceTkPjyxvzFYhZ9wjFyXSQ0odrNOtHosB6C7WzUHuke6CLlMmvNmpAPFuefIC+hF+u8K+ue24gH0R/KnISxAAoKAm7eujU4/mbtTojCZkmo81VkX1iA/wa8uvutVERLe9E/WKrELJTuT62dHTAvw7bx5JsFsv9HmP4N4VgrXTHWJ53abUj345P1fYgk9evDVW3Td+RFu3XaS8VatIwyUkS0lrWKrUiR/04ulvzfjk0QKEuRXuFRcTkAyjZpNYJdb5wt0rDk/JrTKxH5r5WGmVgO+eGN+2TpqU2xWCUidKb2ib2o+OjE8eMPbRMgS4RaXQJsbNxbdOC1q35st6g16tw+0sJyutuv9SPXQCnc4AAKj1LXekZK4/LpBsbVBcR65fmzbfyekxW2fBdmtI9xRfAcTdGdCxSqwh3VP8cFr/b71VVCp19LAJyPVdyR6NnszzFg1A396LF7h6TH3p7ccWg+eWwNlrXLTp3VPgYZVYNCp9WuIS65enWW8VAKBvn8Ge7j7INTGj7eg0KLMLmtqWzY0fNSUoIPyxxSC5NaXfRywG2pZdsLG28x7gFjGy53RrasDFqo6jDDWtV0WqfGtCwos04ecKrejBciD6WzMf04tHwN2txLBnI+Gvw0EHhyS4sdGz/d0wnnaMl1XeXv59ohORaxK77Z1Q6cTpwraTL3t2jx2aZHQ8CUe33Dm+L8XNwfZdHMFBLBqVPnPAlxiOvcPLqk45fVamUONLgWR7+8kxs6bOc3bmGiuJi1tUCm1m0pfwDjKxIBJcavHiB02Mn2/RV3C0isFgjkx+HrkukGzXG2xq2yDDg1687r4ufPdpE99BKWq9W+N7vRnsAXd/IjPBLR+8f9iz5k8d4GgVACCp3ygkU9QAdPkS4nLZzESovJnf1BbVuBEpIUFo3QZr3Ir2GzSCkBU45oDnQoPJfRcFmNHZwteq+7+tkW3d9oqWU50yRW2E9IZlCq0QWdSP0otHwOaWJ9f/1QGfUQDJpwm1g6dYTDrr9cGr0I9nwd0q4nP6MKDSS9IaliLXPbr1Hj4YLQsXg1tODO4bQ75zYvLwC9lacF4aJeB4v5682liSBu5WkZXTh4HC5j9qFRnI9cyX53A4JiQw3y0qhToraYU3PxjvkK0C/6N7QzyiZgxY9ug9GYZVZOX0YcKQWjtH/6AXz3dxe2XSuya/YKZbKQkf9/DtByFgq4ByJnTvwGEvxc/r+BMYVpGb04eBRlXuLXGbKGOHTwoLNn0+g0m3xkW/PqCriQcrKcA6bDw5YlL7XBUkq8jN6cNGhvDLVm3Dg5lN2luzlpiz/B/FreSIlLExsyGHjBFz927AQLhXrFqnFMtqIFkV1SN+wvgZyPXFujlEbpSKGZ1BpdAJQ3n37zEebl6NovrSctPHrj52P4jeAUNSEh6zsMVGsGxdIQZalGIeu20/dBytAgAsen9VUuJoJKdvT5nNdTJQmBB0GtmOWtoieXvB8y2yZnO+1XF9okwpcWa5YNgdkzCgRwbJKhvJ6cPGxbo5eqAFALjwXF+Z/J6Z3+r4TOSyXW3ZKiLEQiituLNpx7c4Vmg7OX0YEKny80QbkevRQ1/qGmruvkJ/HtiQV5AFMzTcIEis0KCID99YRqPhk9VvUzl92MhsXC7X1iH/L2/P/MS8Tbwos19ZEB3Zl4DwrIe42+nw5Oc/W7DO2cno9L752FpOHwbUeunV+sXIdXhY1KihE9DLM5msRe+ven7sK4REhwOEPqf7xPT/dtl27y7Wnhhrgzl9GLgr3Vvd2rYGc3rKBy48o+druLl6rlyyudPSahuH6A5goH/Y91/92Tu6P+YabDOnDxuptXORDfR5XP70lA8eWyaia8wPy3d16wr3TCXcIeHNgsflL1u0YcqEN7HtDmqzOX0YEKsLc8S/INcjkl/oFtY5lWr86JdXLt3iJrDgwBUbgZxXViqVOvWlt7/8+FeBq4dFX7TtnD4sZDWulGtq2nrxs5a075jK5fA//vC7N6Z/xKBjOXaFdMgcC+kV1W/t1/vbh6PMwcZz+jCg0bdcaWjL0AoL6TFm+EQAQO+oxHXf7BuQMILs6LADfeTdHM5fPrJ552pzBqC/Xba9e3gvwvbpI4znA4/5c5IBADK5NO3auZHJ+B8FQjA2IRYAoEnSuGnn6svpJ1HKhARFrFm5F7k+UjWhQoZW2L4QMCNSQtPbT7x+ArCVaQGBq8ei91ctW/Szr3eQsTLtoww2ntOHAa1Baf1u4TaFrYiFENtrwLpVB2ZNncdx7pxg6ezEHfL/u2vYfE6fBTCp/AFdVkwLu+HOIuLACMKwlUdhJ1paJPv+3XL89D61pm3DrfGjprzxYGNPnUG1raibXWRfoUOlMHq6vtbXY7ET3bJXY7vARsVCEDcJDx7eevL8QbVateHbv5Ad1e427z1d8xrZoVkFlcLowX81zmMhjxFIdiywsGmxEJql4ozrF0YNaZtN+6t8BFk7qlkPg8qNdJ3V2+19LsOP7FjgYgdidUSsKtxdGk92FFhwYYREC97s4TqdRSPoNBtysTOxAAC1remFku3FLX/ZRbYMlcIM5Y2PdJ3pzxlKsbFXJajYn1gIGr28RPp3kfRglfyc4UE2pk1BAVRf56Rw/uSuvBdZNKNpC08w9ipWO0qduFx2orzlaJX8nFpP8nmTDCrHzzk5hDcuhDveiW5/M8c4YvditaM3aOsUGdXy1OrW1HpFltagIKZdKoXhxY735Qzyd072ce5PoxB3XrAt8+SI1RG9QdOozGtQZguVOSJlnlhdqNFbdjowCjSKk4AZ7s6O9mTHdGHHe7J706kW7w32xPNkivUIepmmRqIuaVaXyjT35NqaVl2DQitU6SVqnVSjl+sMyvahfBqFSQF0BpXDorkyqXw2zY3D8OHQfLgMPz4zlM/symX4PlXdcGw8JWI5IBrHX54DKDjEcgAFh1gOoOAQywEUHGI5gIJDLAdQcIjlAAr/FwAA///QJMTtZbTgfAAAAABJRU5ErkJggg==;fontFamily=Comic Sans MS;" parent="1" vertex="1">
          <mxGeometry x="49.75" y="201" width="70" height="70" as="geometry" />
        </mxCell>
        <mxCell id="drbNVdjPMbyhYuRTP5Af-6" value="API Specification" style="text;html=1;strokeColor=none;fillColor=none;align=center;verticalAlign=middle;whiteSpace=wrap;rounded=0;fontFamily=Comic Sans MS;" parent="1" vertex="1">
          <mxGeometry x="119.75" y="265.5" width="110" height="30" as="geometry" />
        </mxCell>
        <mxCell id="drbNVdjPMbyhYuRTP5Af-7" value="" style="sketch=0;aspect=fixed;pointerEvents=1;shadow=0;dashed=0;html=1;strokeColor=none;labelPosition=center;verticalLabelPosition=bottom;verticalAlign=top;align=center;fillColor=#00188D;shape=mxgraph.azure.code_file;fontFamily=Comic Sans MS;" parent="1" vertex="1">
          <mxGeometry x="151.25" y="215.5" width="47" height="50" as="geometry" />
        </mxCell>
        <mxCell id="drbNVdjPMbyhYuRTP5Af-32" style="edgeStyle=orthogonalEdgeStyle;rounded=0;orthogonalLoop=1;jettySize=auto;html=1;dashed=1;fillColor=#dae8fc;strokeColor=#6c8ebf;curved=1;fontFamily=Comic Sans MS;" parent="1" source="drbNVdjPMbyhYuRTP5Af-8" target="drbNVdjPMbyhYuRTP5Af-18" edge="1">
          <mxGeometry relative="1" as="geometry">
            <Array as="points">
              <mxPoint x="295" y="310" />
              <mxPoint x="334" y="310" />
            </Array>
          </mxGeometry>
        </mxCell>
        <mxCell id="drbNVdjPMbyhYuRTP5Af-39" style="edgeStyle=orthogonalEdgeStyle;rounded=0;orthogonalLoop=1;jettySize=auto;html=1;entryX=1;entryY=0.5;entryDx=0;entryDy=0;dashed=1;fillColor=#dae8fc;strokeColor=#6c8ebf;curved=1;fontFamily=Comic Sans MS;" parent="1" source="drbNVdjPMbyhYuRTP5Af-8" target="drbNVdjPMbyhYuRTP5Af-37" edge="1">
          <mxGeometry relative="1" as="geometry" />
        </mxCell>
        <mxCell id="drbNVdjPMbyhYuRTP5Af-8" value="&lt;br&gt;&lt;br&gt;&lt;br&gt;&lt;br&gt;Test and validate &lt;br&gt;with schemathesis" style="sketch=0;html=1;aspect=fixed;strokeColor=none;shadow=0;align=center;verticalAlign=top;fillColor=#3B8DF1;shape=mxgraph.gcp2.systems_check;fontFamily=Comic Sans MS;" parent="1" vertex="1">
          <mxGeometry x="270" y="320" width="49.5" height="50" as="geometry" />
        </mxCell>
        <mxCell id="drbNVdjPMbyhYuRTP5Af-9" value="" style="aspect=fixed;perimeter=ellipsePerimeter;html=1;align=center;shadow=0;dashed=0;spacingTop=3;image;image=img/lib/active_directory/generic_server.svg;fontFamily=Comic Sans MS;" parent="1" vertex="1">
          <mxGeometry x="440" y="370" width="28.000000000000004" height="50" as="geometry" />
        </mxCell>
        <mxCell id="drbNVdjPMbyhYuRTP5Af-10" value="" style="aspect=fixed;perimeter=ellipsePerimeter;html=1;align=center;shadow=0;dashed=0;spacingTop=3;image;image=img/lib/active_directory/generic_server.svg;fontFamily=Comic Sans MS;" parent="1" vertex="1">
          <mxGeometry x="480" y="370" width="28.000000000000004" height="50" as="geometry" />
        </mxCell>
        <mxCell id="drbNVdjPMbyhYuRTP5Af-11" value="" style="aspect=fixed;perimeter=ellipsePerimeter;html=1;align=center;shadow=0;dashed=0;spacingTop=3;image;image=img/lib/active_directory/generic_server.svg;fontFamily=Comic Sans MS;" parent="1" vertex="1">
          <mxGeometry x="520" y="370" width="28.000000000000004" height="50" as="geometry" />
        </mxCell>
        <mxCell id="drbNVdjPMbyhYuRTP5Af-12" value="" style="aspect=fixed;perimeter=ellipsePerimeter;html=1;align=center;shadow=0;dashed=0;spacingTop=3;image;image=img/lib/active_directory/generic_server.svg;fontFamily=Comic Sans MS;" parent="1" vertex="1">
          <mxGeometry x="560" y="370" width="28.000000000000004" height="50" as="geometry" />
        </mxCell>
        <mxCell id="drbNVdjPMbyhYuRTP5Af-13" value="" style="shape=hexagon;perimeter=hexagonPerimeter2;whiteSpace=wrap;html=1;fixedSize=1;fillColor=#bac8d3;strokeColor=#23445d;fontFamily=Comic Sans MS;" parent="1" vertex="1">
          <mxGeometry x="419" y="180" width="182" height="115" as="geometry" />
        </mxCell>
        <mxCell id="drbNVdjPMbyhYuRTP5Af-14" value="" style="shape=cylinder3;whiteSpace=wrap;html=1;boundedLbl=1;backgroundOutline=1;size=15;fillColor=#fad7ac;strokeColor=#b46504;fontFamily=Comic Sans MS;" parent="1" vertex="1">
          <mxGeometry x="640" y="175" width="40" height="50" as="geometry" />
        </mxCell>
        <mxCell id="drbNVdjPMbyhYuRTP5Af-15" value="" style="html=1;rounded=0;fontFamily=Comic Sans MS;fillColor=#ffff88;strokeColor=#36393d;" parent="1" vertex="1">
          <mxGeometry x="580" y="185" width="30" height="30" as="geometry" />
        </mxCell>
        <mxCell id="drbNVdjPMbyhYuRTP5Af-16" value="" style="endArrow=none;html=1;rounded=0;align=center;verticalAlign=top;endFill=0;labelBackgroundColor=none;endSize=2;fontFamily=Comic Sans MS;" parent="1" source="drbNVdjPMbyhYuRTP5Af-15" target="drbNVdjPMbyhYuRTP5Af-17" edge="1">
          <mxGeometry relative="1" as="geometry" />
        </mxCell>
        <mxCell id="drbNVdjPMbyhYuRTP5Af-17" value="" style="ellipse;html=1;fontSize=11;align=center;fillColor=none;points=[];aspect=fixed;resizable=0;verticalAlign=bottom;labelPosition=center;verticalLabelPosition=top;flipH=1;fontFamily=Comic Sans MS;" parent="1" vertex="1">
          <mxGeometry x="632" y="196" width="8" height="8" as="geometry" />
        </mxCell>
        <mxCell id="drbNVdjPMbyhYuRTP5Af-18" value="Service API" style="rounded=0;whiteSpace=wrap;html=1;fillColor=#f8cecc;strokeColor=#b85450;fontFamily=Comic Sans MS;" parent="1" vertex="1">
          <mxGeometry x="288" y="245" width="92" height="40" as="geometry" />
        </mxCell>
        <mxCell id="drbNVdjPMbyhYuRTP5Af-21" value="" style="html=1;rounded=0;fontFamily=Comic Sans MS;fillColor=#ffff88;strokeColor=#36393d;" parent="1" vertex="1">
          <mxGeometry x="410" y="250" width="30" height="30" as="geometry" />
        </mxCell>
        <mxCell id="drbNVdjPMbyhYuRTP5Af-22" value="" style="endArrow=none;html=1;rounded=0;align=center;verticalAlign=top;endFill=0;labelBackgroundColor=none;endSize=2;startArrow=none;fontFamily=Comic Sans MS;" parent="1" source="drbNVdjPMbyhYuRTP5Af-23" edge="1">
          <mxGeometry relative="1" as="geometry">
            <mxPoint x="390" y="265" as="targetPoint" />
          </mxGeometry>
        </mxCell>
        <mxCell id="drbNVdjPMbyhYuRTP5Af-23" value="" style="ellipse;html=1;fontSize=11;align=center;fillColor=none;points=[];aspect=fixed;resizable=0;verticalAlign=bottom;labelPosition=center;verticalLabelPosition=top;flipH=1;fontFamily=Comic Sans MS;" parent="1" vertex="1">
          <mxGeometry x="380" y="261" width="8" height="8" as="geometry" />
        </mxCell>
        <mxCell id="drbNVdjPMbyhYuRTP5Af-24" value="" style="endArrow=none;html=1;rounded=0;align=center;verticalAlign=top;endFill=0;labelBackgroundColor=none;endSize=2;fontFamily=Comic Sans MS;" parent="1" source="drbNVdjPMbyhYuRTP5Af-21" target="drbNVdjPMbyhYuRTP5Af-23" edge="1">
          <mxGeometry relative="1" as="geometry">
            <mxPoint x="410" y="265" as="sourcePoint" />
            <mxPoint x="390" y="265" as="targetPoint" />
          </mxGeometry>
        </mxCell>
        <mxCell id="drbNVdjPMbyhYuRTP5Af-25" value="" style="sketch=0;outlineConnect=0;fontColor=#232F3E;gradientColor=none;fillColor=#067F68;strokeColor=none;dashed=0;verticalLabelPosition=bottom;verticalAlign=top;align=center;html=1;fontSize=12;fontStyle=0;aspect=fixed;shape=mxgraph.aws4.agent2;fontFamily=Comic Sans MS;" parent="1" vertex="1">
          <mxGeometry x="440" y="245" width="39" height="39" as="geometry" />
        </mxCell>
        <mxCell id="drbNVdjPMbyhYuRTP5Af-26" value="" style="sketch=0;outlineConnect=0;fontColor=#232F3E;gradientColor=none;fillColor=#067F68;strokeColor=none;dashed=0;verticalLabelPosition=bottom;verticalAlign=top;align=center;html=1;fontSize=12;fontStyle=0;aspect=fixed;shape=mxgraph.aws4.agent2;fontFamily=Comic Sans MS;" parent="1" vertex="1">
          <mxGeometry x="541" y="180" width="39" height="39" as="geometry" />
        </mxCell>
        <mxCell id="drbNVdjPMbyhYuRTP5Af-27" value="DTO" style="text;html=1;strokeColor=#82b366;fillColor=#d5e8d4;align=center;verticalAlign=middle;whiteSpace=wrap;rounded=0;fontFamily=Comic Sans MS;" parent="1" vertex="1">
          <mxGeometry x="479" y="254" width="41" height="30" as="geometry" />
        </mxCell>
        <mxCell id="drbNVdjPMbyhYuRTP5Af-28" value="DTO" style="text;html=1;strokeColor=#82b366;fillColor=#d5e8d4;align=center;verticalAlign=middle;whiteSpace=wrap;rounded=0;fontFamily=Comic Sans MS;" parent="1" vertex="1">
          <mxGeometry x="500" y="184.5" width="41" height="30" as="geometry" />
        </mxCell>
        <mxCell id="drbNVdjPMbyhYuRTP5Af-29" value="Service" style="text;html=1;strokeColor=#9673a6;fillColor=#e1d5e7;align=center;verticalAlign=middle;whiteSpace=wrap;rounded=0;fontFamily=Comic Sans MS;" parent="1" vertex="1">
          <mxGeometry x="473.5" y="219" width="66.5" height="30" as="geometry" />
        </mxCell>
        <mxCell id="drbNVdjPMbyhYuRTP5Af-34" value="Heroku" style="text;html=1;strokeColor=none;fillColor=none;align=center;verticalAlign=middle;whiteSpace=wrap;rounded=0;fontFamily=Comic Sans MS;" parent="1" vertex="1">
          <mxGeometry x="460" y="340" width="110" height="30" as="geometry" />
        </mxCell>
        <mxCell id="drbNVdjPMbyhYuRTP5Af-35" value="" style="shape=flexArrow;endArrow=classic;html=1;rounded=0;fillColor=#fff2cc;strokeColor=#d6b656;fontFamily=Comic Sans MS;" parent="1" edge="1">
          <mxGeometry width="50" height="50" relative="1" as="geometry">
            <mxPoint x="514.1" y="300" as="sourcePoint" />
            <mxPoint x="514.1" y="336" as="targetPoint" />
          </mxGeometry>
        </mxCell>
        <mxCell id="drbNVdjPMbyhYuRTP5Af-36" value="Deployment" style="text;html=1;strokeColor=none;fillColor=none;align=center;verticalAlign=middle;whiteSpace=wrap;rounded=0;fontFamily=Comic Sans MS;" parent="1" vertex="1">
          <mxGeometry x="540" y="302" width="66.5" height="30" as="geometry" />
        </mxCell>
        <mxCell id="drbNVdjPMbyhYuRTP5Af-37" value="" style="shape=image;html=1;verticalAlign=top;verticalLabelPosition=bottom;labelBackgroundColor=#ffffff;imageAspect=0;aspect=fixed;image=https://cdn0.iconfinder.com/data/icons/phosphor-regular-vol-3/256/list-checks-128.png;dashed=1;imageBackground=#66B2FF;fontFamily=Comic Sans MS;" parent="1" vertex="1">
          <mxGeometry x="198.25" y="332.75" width="24.5" height="24.5" as="geometry" />
        </mxCell>
        <mxCell id="drbNVdjPMbyhYuRTP5Af-43" value="Ports" style="text;html=1;strokeColor=#36393d;fillColor=#ffff88;align=center;verticalAlign=middle;whiteSpace=wrap;rounded=0;dashed=1;fontFamily=Comic Sans MS;" parent="1" vertex="1">
          <mxGeometry x="565" y="155" width="60" height="30" as="geometry" />
        </mxCell>
      </root>
    </mxGraphModel>
  </diagram>
  <diagram id="1vHAgJFrEZfBop98GcXu" name="fundamentals of api security">
    <mxGraphModel dx="1298" dy="834" grid="1" gridSize="10" guides="1" tooltips="1" connect="1" arrows="1" fold="1" page="1" pageScale="1" pageWidth="850" pageHeight="1100" math="0" shadow="0">
      <root>
        <mxCell id="0" />
        <mxCell id="1" parent="0" />
        <mxCell id="nYo_cjoG6PcRVJzux4Kp-11" value="" style="rounded=0;whiteSpace=wrap;html=1;fontFamily=Comic Sans MS;fillColor=#f9f7ed;strokeColor=#36393d;dashed=1;" parent="1" vertex="1">
          <mxGeometry y="20" width="780" height="410" as="geometry" />
        </mxCell>
        <mxCell id="KefA9xvpS-_wrWrdlZzh-52" value="" style="rounded=1;whiteSpace=wrap;html=1;fontFamily=Comic Sans MS;fillColor=#f5f5f5;strokeColor=#666666;dashed=1;fontColor=#333333;" parent="1" vertex="1">
          <mxGeometry x="510" y="126" width="140" height="124" as="geometry" />
        </mxCell>
        <mxCell id="KefA9xvpS-_wrWrdlZzh-51" value="" style="rounded=1;whiteSpace=wrap;html=1;fontFamily=Comic Sans MS;fillColor=#f5f5f5;strokeColor=#666666;dashed=1;fontColor=#333333;" parent="1" vertex="1">
          <mxGeometry x="350" y="126" width="150" height="124" as="geometry" />
        </mxCell>
        <mxCell id="KefA9xvpS-_wrWrdlZzh-23" value="" style="rounded=1;whiteSpace=wrap;html=1;fontFamily=Comic Sans MS;dashed=1;fillColor=#f5f5f5;fontColor=#333333;strokeColor=#666666;" parent="1" vertex="1">
          <mxGeometry x="102" y="40" width="120" height="80" as="geometry" />
        </mxCell>
        <mxCell id="KefA9xvpS-_wrWrdlZzh-1" value="Data" style="shape=datastore;whiteSpace=wrap;html=1;fontFamily=Comic Sans MS;fillColor=#f8cecc;strokeColor=#b85450;" parent="1" vertex="1">
          <mxGeometry x="550" y="168" width="60" height="60" as="geometry" />
        </mxCell>
        <mxCell id="KefA9xvpS-_wrWrdlZzh-3" value="" style="shape=image;html=1;verticalAlign=top;verticalLabelPosition=bottom;labelBackgroundColor=#ffffff;imageAspect=0;aspect=fixed;image=https://cdn3.iconfinder.com/data/icons/medical-equipment-33/512/MedicIcon-11-11-128.png;rotation=45;fontFamily=Comic Sans MS;" parent="1" vertex="1">
          <mxGeometry x="250" y="176.6" width="46.8" height="46.8" as="geometry" />
        </mxCell>
        <mxCell id="KefA9xvpS-_wrWrdlZzh-5" value="" style="shape=cross;whiteSpace=wrap;html=1;rotation=45;fillColor=#e51400;strokeColor=#B20000;fontColor=#ffffff;fontFamily=Comic Sans MS;size=0.0942809041582071;" parent="1" vertex="1">
          <mxGeometry x="310" y="186" width="19.33" height="19.48" as="geometry" />
        </mxCell>
        <mxCell id="KefA9xvpS-_wrWrdlZzh-12" value="" style="aspect=fixed;perimeter=ellipsePerimeter;html=1;align=center;shadow=0;dashed=0;spacingTop=3;image;image=img/lib/active_directory/generic_server.svg;fontFamily=Comic Sans MS;" parent="1" vertex="1">
          <mxGeometry x="122" y="75" width="16.8" height="30" as="geometry" />
        </mxCell>
        <mxCell id="KefA9xvpS-_wrWrdlZzh-13" value="" style="aspect=fixed;perimeter=ellipsePerimeter;html=1;align=center;shadow=0;dashed=0;spacingTop=3;image;image=img/lib/active_directory/generic_server.svg;fontFamily=Comic Sans MS;" parent="1" vertex="1">
          <mxGeometry x="142" y="75" width="16.8" height="30" as="geometry" />
        </mxCell>
        <mxCell id="KefA9xvpS-_wrWrdlZzh-20" value="" style="aspect=fixed;perimeter=ellipsePerimeter;html=1;align=center;shadow=0;dashed=0;spacingTop=3;image;image=img/lib/active_directory/generic_server.svg;fontFamily=Comic Sans MS;" parent="1" vertex="1">
          <mxGeometry x="162" y="75" width="16.8" height="30" as="geometry" />
        </mxCell>
        <mxCell id="KefA9xvpS-_wrWrdlZzh-21" value="" style="aspect=fixed;perimeter=ellipsePerimeter;html=1;align=center;shadow=0;dashed=0;spacingTop=3;image;image=img/lib/active_directory/generic_server.svg;fontFamily=Comic Sans MS;" parent="1" vertex="1">
          <mxGeometry x="182" y="75" width="16.8" height="30" as="geometry" />
        </mxCell>
        <mxCell id="KefA9xvpS-_wrWrdlZzh-24" value="Service API" style="rounded=1;whiteSpace=wrap;html=1;fontFamily=Comic Sans MS;fillColor=#fff2cc;strokeColor=#d6b656;" parent="1" vertex="1">
          <mxGeometry x="365" y="168" width="120" height="60" as="geometry" />
        </mxCell>
        <mxCell id="KefA9xvpS-_wrWrdlZzh-36" value="" style="endArrow=classic;html=1;rounded=0;exitX=0.922;exitY=1;exitDx=0;exitDy=0;exitPerimeter=0;strokeWidth=2;fillColor=#e51400;strokeColor=#B20000;fontFamily=Comic Sans MS;" parent="1" source="KefA9xvpS-_wrWrdlZzh-23" edge="1">
          <mxGeometry width="50" height="50" relative="1" as="geometry">
            <mxPoint x="400" y="250" as="sourcePoint" />
            <mxPoint x="300" y="150" as="targetPoint" />
          </mxGeometry>
        </mxCell>
        <mxCell id="KefA9xvpS-_wrWrdlZzh-37" value="" style="endArrow=classic;html=1;rounded=0;strokeWidth=2;exitX=0.688;exitY=1.027;exitDx=0;exitDy=0;exitPerimeter=0;fillColor=#e51400;strokeColor=#B20000;fontFamily=Comic Sans MS;" parent="1" source="KefA9xvpS-_wrWrdlZzh-23" edge="1">
          <mxGeometry width="50" height="50" relative="1" as="geometry">
            <mxPoint x="400" y="250" as="sourcePoint" />
            <mxPoint x="300" y="150" as="targetPoint" />
          </mxGeometry>
        </mxCell>
        <mxCell id="KefA9xvpS-_wrWrdlZzh-38" value="" style="endArrow=classic;html=1;rounded=0;strokeWidth=2;exitX=0.408;exitY=0.987;exitDx=0;exitDy=0;exitPerimeter=0;fillColor=#e51400;strokeColor=#B20000;fontFamily=Comic Sans MS;" parent="1" source="KefA9xvpS-_wrWrdlZzh-23" edge="1">
          <mxGeometry width="50" height="50" relative="1" as="geometry">
            <mxPoint x="400" y="250" as="sourcePoint" />
            <mxPoint x="300" y="150" as="targetPoint" />
          </mxGeometry>
        </mxCell>
        <mxCell id="KefA9xvpS-_wrWrdlZzh-39" value="" style="endArrow=classic;html=1;rounded=0;strokeWidth=2;exitX=0.208;exitY=1.013;exitDx=0;exitDy=0;exitPerimeter=0;fillColor=#e51400;strokeColor=#B20000;fontFamily=Comic Sans MS;" parent="1" source="KefA9xvpS-_wrWrdlZzh-23" edge="1">
          <mxGeometry width="50" height="50" relative="1" as="geometry">
            <mxPoint x="400" y="250" as="sourcePoint" />
            <mxPoint x="300" y="150" as="targetPoint" />
          </mxGeometry>
        </mxCell>
        <mxCell id="KefA9xvpS-_wrWrdlZzh-40" value="DDoS attack" style="text;html=1;strokeColor=none;fillColor=none;align=center;verticalAlign=middle;whiteSpace=wrap;rounded=0;fontFamily=Comic Sans MS;" parent="1" vertex="1">
          <mxGeometry x="102" y="40" width="120" height="30" as="geometry" />
        </mxCell>
        <mxCell id="KefA9xvpS-_wrWrdlZzh-43" value="JWT" style="sketch=0;aspect=fixed;pointerEvents=1;shadow=0;dashed=0;html=1;strokeColor=none;labelPosition=center;verticalLabelPosition=bottom;verticalAlign=top;align=center;fillColor=#00188D;shape=mxgraph.azure.code_file;fontFamily=Comic Sans MS;" parent="1" vertex="1">
          <mxGeometry x="411" y="270" width="28.2" height="30" as="geometry" />
        </mxCell>
        <mxCell id="KefA9xvpS-_wrWrdlZzh-44" value="" style="sketch=0;pointerEvents=1;shadow=0;dashed=0;html=1;strokeColor=none;fillColor=#505050;labelPosition=center;verticalLabelPosition=bottom;verticalAlign=top;outlineConnect=0;align=center;shape=mxgraph.office.devices.laptop;fontFamily=Comic Sans MS;" parent="1" vertex="1">
          <mxGeometry x="102" y="188" width="38" height="24" as="geometry" />
        </mxCell>
        <mxCell id="KefA9xvpS-_wrWrdlZzh-45" value="" style="endArrow=classic;html=1;rounded=0;fontFamily=Comic Sans MS;strokeWidth=2;fillColor=#e51400;strokeColor=#B20000;" parent="1" source="KefA9xvpS-_wrWrdlZzh-44" edge="1">
          <mxGeometry width="50" height="50" relative="1" as="geometry">
            <mxPoint x="410" y="250" as="sourcePoint" />
            <mxPoint x="230" y="200" as="targetPoint" />
          </mxGeometry>
        </mxCell>
        <mxCell id="KefA9xvpS-_wrWrdlZzh-46" value="" style="sketch=0;pointerEvents=1;shadow=0;dashed=0;html=1;strokeColor=none;fillColor=#505050;labelPosition=center;verticalLabelPosition=bottom;verticalAlign=top;outlineConnect=0;align=center;shape=mxgraph.office.devices.laptop;fontFamily=Comic Sans MS;" parent="1" vertex="1">
          <mxGeometry x="8.000000000000007" y="276" width="38" height="24" as="geometry" />
        </mxCell>
        <mxCell id="KefA9xvpS-_wrWrdlZzh-48" value="SQL Injection attack" style="text;html=1;strokeColor=none;fillColor=none;align=center;verticalAlign=middle;whiteSpace=wrap;rounded=0;fontFamily=Comic Sans MS;" parent="1" vertex="1">
          <mxGeometry x="168" y="155" width="142" height="30" as="geometry" />
        </mxCell>
        <mxCell id="KefA9xvpS-_wrWrdlZzh-53" value="Public Network" style="text;html=1;strokeColor=none;fillColor=none;align=center;verticalAlign=middle;whiteSpace=wrap;rounded=0;fontFamily=Comic Sans MS;" parent="1" vertex="1">
          <mxGeometry x="370" y="122" width="110" height="38" as="geometry" />
        </mxCell>
        <mxCell id="KefA9xvpS-_wrWrdlZzh-54" value="Private Network" style="text;html=1;strokeColor=none;fillColor=none;align=center;verticalAlign=middle;whiteSpace=wrap;rounded=0;fontFamily=Comic Sans MS;" parent="1" vertex="1">
          <mxGeometry x="522.5" y="125" width="115" height="30" as="geometry" />
        </mxCell>
        <mxCell id="KefA9xvpS-_wrWrdlZzh-55" value="" style="endArrow=none;html=1;rounded=0;fontFamily=Comic Sans MS;strokeWidth=2;exitX=1;exitY=0.5;exitDx=0;exitDy=0;entryX=0;entryY=0.5;entryDx=0;entryDy=0;dashed=1;fillColor=#f8cecc;strokeColor=#b85450;" parent="1" source="KefA9xvpS-_wrWrdlZzh-24" target="KefA9xvpS-_wrWrdlZzh-1" edge="1">
          <mxGeometry width="50" height="50" relative="1" as="geometry">
            <mxPoint x="540" y="390" as="sourcePoint" />
            <mxPoint x="590" y="340" as="targetPoint" />
          </mxGeometry>
        </mxCell>
        <mxCell id="KefA9xvpS-_wrWrdlZzh-56" value="" style="shape=cross;whiteSpace=wrap;html=1;rotation=45;fillColor=#e51400;strokeColor=#B20000;fontColor=#ffffff;fontFamily=Comic Sans MS;size=0.0942809041582071;" parent="1" vertex="1">
          <mxGeometry x="310" y="140" width="19.33" height="19.48" as="geometry" />
        </mxCell>
        <mxCell id="KefA9xvpS-_wrWrdlZzh-59" value="Authentication server" style="rounded=1;whiteSpace=wrap;html=1;fontFamily=Comic Sans MS;fillColor=#e1d5e7;strokeColor=#9673a6;" parent="1" vertex="1">
          <mxGeometry x="229.99999999999997" y="258" width="120" height="60" as="geometry" />
        </mxCell>
        <mxCell id="KefA9xvpS-_wrWrdlZzh-62" value="OAuth 2" style="shape=image;verticalLabelPosition=bottom;verticalAlign=top;imageAspect=0;aspect=fixed;image=data:image/svg+xml,PHN2ZyB4bWxucz0iaHR0cDovL3d3dy53My5vcmcvMjAwMC9zdmciIHZlcnNpb249IjEuMCIgeD0iMHB4IiB5PSIwcHgiIHdpZHRoPSI1OTguNDg1NDEiIGhlaWdodD0iNTk5LjgzOTQ4IiB2aWV3Qm94PSIwIDAgNTk4LjQ4NiA2NzEuMDg5IiBlbmFibGUtYmFja2dyb3VuZD0ibmV3IDAgMCA1OTguNDg2IDY3MS4wODkiPiYjeGE7CTxnIHRyYW5zZm9ybT0idHJhbnNsYXRlKDAsMzUuNjI1KSI+JiN4YTsJCTxwYXRoIGZpbGw9IiNmZmYiIGQ9Ik0gMjc3LjcyNDksMC44NzA0ODY4MiBDIDQxMC4yODk5LC04LjMyMTUxMzIgNDk4LjE4NzksNTYuNTUwNDg3IDU0OC40NDU5LDEzNS41ODk0OSBDIDU3My42NDU5LDE3NS4yMTk0OSA1OTguMzcwOSwyMzUuNDA5NDkgNTk4LjQ4NDksMjk3LjI1MjQ5IEMgNTk4LjYwNjksMzY0LjQ0NjQ5IDU3Ni44Mzg5LDQyMi42MzU0OSA1NDguNDQ1OSw0NjUuMzMwNDkgQyA1MTkuMjYzOSw1MDkuMjEzNDkgNDgxLjUxOTksNTQ1LjQ1ODQ5IDQzNC4yNTU5LDU2OS4yNTc0OSBDIDM1NS4yNDk5LDYwOS4wNDA0OSAyNDQuODM1OSw2MTAuMTI4NDkgMTcyLjUxNDksNTcxLjgyMzQ5IEMgOTEuOTcyODk3LDUyOS4xNjU0OSAzMC4wNDY4OTcsNDY4LjI3ODQ5IDcuMDAyODk2NywzNjIuNjg3NDkgQyAtMi4yMTkxMDMzLDMyMC40MzE0OSAtMy4yNzkxMDMzLDI2NS44MzI0OSA5LjU2ODg5NjcsMjE4Ljk4NzQ5IEMgMTIuNTgzODk3LDIwNy45OTg0OSAxOC4wNjI4OTcsMTk2LjQzMzQ5IDIyLjM5OTg5NywxODUuNjI4NDkgQyA0My4yNDE4OTcsMTMzLjcwNDQ5IDc4LjcxNjg5Nyw4OC41NTI0ODcgMTIyLjQ3NjksNTcuMzIzNDg3IEMgMTQwLjA2MDksNDQuNzc1NDg3IDE2MS4zOTI5LDMyLjI5NTQ4NyAxODAuMjEzOSwyMy45NjQ0ODcgQyAyMDMuNjMxOSwxMy41OTk0ODcgMjQzLjA1OTksMy4yNzM0ODY4IDI3Ny43MjQ5LDAuODcwNDg2ODIgeiIvPiYjeGE7CQk8cGF0aCBmaWxsPSIjMDAwIiBkPSJNIDUyOS4xODM5LDMwNC43MjQ0OSBDIDUyOS4xODM5LDQzMC4wMTI0OSA0MjcuNjE3OSw1MzEuNTcxNDkgMzAyLjMzMTksNTMxLjU3MTQ5IEMgMTc3LjA0NTksNTMxLjU3MTQ5IDc1LjQ4MTg5Nyw0MzAuMDEyNDkgNzUuNDgxODk3LDMwNC43MjQ0OSBDIDc1LjQ4MTg5NywxNzkuNDM5NDkgMTc3LjA0NTksNzcuODcyNDg3IDMwMi4zMzE5LDc3Ljg3MjQ4NyBDIDQyNy42MTY5LDc3Ljg3MjQ4NyA1MjkuMTgzOSwxNzkuNDM5NDkgNTI5LjE4MzksMzA0LjcyNDQ5IHoiLz4mI3hhOwkJPHBhdGggZmlsbD0iIzAwMCIgZD0iTSAyNzcuNzI0OSwwLjg3MDQ4NjgyIEMgNDEwLjI4OTksLTguMzIxNTEzMiA0OTguMTg3OSw1Ni41NTA0ODcgNTQ4LjQ0NTksMTM1LjU4OTQ5IEMgNTczLjY0NTksMTc1LjIxOTQ5IDU5OC4zNzA5LDIzNS40MDk0OSA1OTguNDg0OSwyOTcuMjUyNDkgQyA1OTguNjA2OSwzNjQuNDQ2NDkgNTc2LjgzODksNDIyLjYzNTQ5IDU0OC40NDU5LDQ2NS4zMzA0OSBDIDUxOS4yNjM5LDUwOS4yMTM0OSA0ODEuNTE5OSw1NDUuNDU4NDkgNDM0LjI1NTksNTY5LjI1NzQ5IEMgMzU1LjI0OTksNjA5LjA0MDQ5IDI0NC44MzU5LDYxMC4xMjg0OSAxNzIuNTE0OSw1NzEuODIzNDkgQyA5MS45NzI4OTcsNTI5LjE2NTQ5IDMwLjA0Njg5Nyw0NjguMjc4NDkgNy4wMDI4OTY3LDM2Mi42ODc0OSBDIC0yLjIxOTEwMzMsMzIwLjQzMTQ5IC0zLjI3OTEwMzMsMjY1LjgzMjQ5IDkuNTY4ODk2NywyMTguOTg3NDkgQyAxMi41ODM4OTcsMjA3Ljk5ODQ5IDE4LjA2Mjg5NywxOTYuNDMzNDkgMjIuMzk5ODk3LDE4NS42Mjg0OSBDIDQzLjI0MTg5NywxMzMuNzA0NDkgNzguNzE2ODk3LDg4LjU1MjQ4NyAxMjIuNDc2OSw1Ny4zMjM0ODcgQyAxNDAuMDYwOSw0NC43NzU0ODcgMTYxLjM5MjksMzIuMjk1NDg3IDE4MC4yMTM5LDIzLjk2NDQ4NyBDIDIwMy42MzE5LDEzLjU5OTQ4NyAyNDMuMDU5OSwzLjI3MzQ4NjggMjc3LjcyNDksMC44NzA0ODY4MiB6IE0gMjMyLjgxNzksMjIuNjgyNDg3IEMgMTgzLjU3ODksMzUuNDQ4NDg3IDE0Ny40NzU5LDU4LjMxOTQ4NyAxMTYuMDYxOSw4Mi45ODU0ODcgQyA3MC43NjI4OTcsMTE4LjU1MzQ5IDQxLjg4NDg5NywxNjguMTg4NDkgMjQuOTY1ODk3LDIyNy45Njg0OSBDIDYuMTQyODk2NywyOTQuNDc2NDkgMTguMjMzODk3LDM3NC45NTg0OSA0NC4yMTE4OTcsNDI1LjU1NjQ5IEMgNzEuMTUwODk3LDQ3OC4wMjg0OSAxMDcuMzIxOSw1MTguNzU5NDkgMTU4LjQwMTksNTQ3LjQ0NTQ5IEMgMjA4LjA5NjksNTc1LjM1MzQ5IDI3Ny45OTI5LDU5My4yNzM0OSAzNTAuODU4OSw1NzkuNTIxNDkgQyA0MTUuNTk4OSw1NjcuMzAzNDkgNDY0Ljc2NzksNTM5LjEwMDQ5IDUwNC44MjM5LDQ5Ny40MDY0OSBDIDU1OC40MTU5LDQ0MS42MjE0OSA2MDEuNDg4OSwzMzguODcyNDkgNTcyLjgyNTksMjMwLjUzNDQ5IEMgNTY1LjE2MzksMjAxLjU3OTQ5IDU1NS4xNDY5LDE3MS40MDE0OSA1MzkuNDY1OSwxNDUuODUzNDkgQyA1MzAuOTkzOSwxMzIuMDUxNDkgNTE4LjU2MTksMTE4LjQ3MzQ5IDUwNi4xMDY5LDEwNC43OTY0OSBDIDQ1OS4xMDA5LDUzLjE3NTQ4NyAzODMuMTI3OSw4LjY5MjQ4NjggMjg1LjQyMjksMTQuOTgzNDg3IEMgMjY2LjgyODksMTYuMTgwNDg3IDI1MC40ODc5LDE4LjEwMDQ4NyAyMzIuODE3OSwyMi42ODI0ODcgeiIvPiYjeGE7CQk8ZyBzdHlsZT0iZmlsbDpub25lO3N0cm9rZTojZmZmO3N0cm9rZS13aWR0aDoyIiBpZD0iaGFzaHBhdHRlcm4iPiYjeGE7CQkJPGc+JiN4YTsJCQkJPGxpbmUgeTI9IjMxNC42NTgiIHgyPSI1NzguMTg4IiB5MT0iNTc2Ljc5IiB4MT0iMzE2LjA1Ii8+JiN4YTsJCQkJPGxpbmUgeTI9IjI5Mi43NTQiIHgyPSI1NTYuNDE1IiB5MT0iNTU2LjAzIiB4MT0iMjkzLjEzNCIvPiYjeGE7CQkJCTxsaW5lIHkyPSIyNzAuODUxIiB4Mj0iNTM0LjY0MyIgeTE9IjUzNS4yNzMiIHgxPSIyNzAuMjE3Ii8+JiN4YTsJCQkJPGxpbmUgeTI9IjI0OC45NDgiIHgyPSI1MTIuODciIHkxPSI1MTQuNTEzIiB4MT0iMjQ3LjMiLz4mI3hhOwkJCQk8bGluZSB5Mj0iMjI3LjA0NCIgeDI9IjQ5MS4wOTgiIHkxPSI0OTMuNzU0IiB4MT0iMjI0LjM4NCIvPiYjeGE7CQkJCTxsaW5lIHkyPSIyMDUuMTQxIiB4Mj0iNDY5LjMyNCIgeTE9IjQ3MyIgeDE9IjIwMS40NjciLz4mI3hhOwkJCQk8bGluZSB5Mj0iMTgzLjIzOCIgeDI9IjQ0Ny41NTIiIHkxPSI0NTIuMjM2IiB4MT0iMTc4LjU1Ii8+JiN4YTsJCQkJPGxpbmUgeTI9IjE2MS4zMzQiIHgyPSI0MjUuNzc4IiB5MT0iNDMxLjQ3NyIgeDE9IjE1NS42MzMiLz4mI3hhOwkJCQk8bGluZSB5Mj0iMTM5LjQzMSIgeDI9IjQwNCIgeTE9IjQxMC43MTgiIHgxPSIxMzIuNzE2Ii8+JiN4YTsJCQkJPGxpbmUgeTI9IjExNy41MjgiIHgyPSIzODIuMjMzIiB5MT0iMzg5Ljk1OCIgeDE9IjEwOS44Ii8+JiN4YTsJCQkJPGxpbmUgeTI9Ijk1LjYyNSIgeDI9IjM2MC40NiIgeTE9IjM2OS4yIiB4MT0iODYuODgzIi8+JiN4YTsJCQkJPGxpbmUgeTI9IjczLjcyMSIgeDI9IjMzOC42ODgiIHkxPSIzNDguNDQxIiB4MT0iNjMuOTY2Ii8+JiN4YTsJCQkJPGxpbmUgeTI9IjUxLjgxOCIgeDI9IjMxNi45MTUiIHkxPSIzMjcuNjgxIiB4MT0iNDEuMDQ5Ii8+JiN4YTsJCQkJPGxpbmUgeTI9IjI5LjkxNSIgeDI9IjI5NS4xNDIiIHkxPSIzMDYuOTIyIiB4MT0iMTguMTMyIi8+JiN4YTsJCQk8L2c+JiN4YTsJCQk8Zz4mI3hhOwkJCQk8bGluZSB5Mj0iNTc2Ljk2IiB4Mj0iMjg1LjQxOSIgeTE9IjMwOS41NzIiIHgxPSIxOC4wNDMiLz4mI3hhOwkJCQk8bGluZSB5Mj0iNTU1LjQ4OCIgeDI9IjMwNy42MjIiIHkxPSIyODcuNTc5IiB4MT0iMzkuNzI2Ii8+JiN4YTsJCQkJPGxpbmUgeTI9IjUzNC4wMTQiIHgyPSIzMjkuODI1IiB5MT0iMjY1LjU4NiIgeDE9IjYxLjQwOSIvPiYjeGE7CQkJCTxsaW5lIHkyPSI1MTIuNTQyIiB4Mj0iMzUyLjAyOSIgeTE9IjI0My41OTMiIHgxPSI4My4wOTIiLz4mI3hhOwkJCQk8bGluZSB5Mj0iNDkxLjA2OCIgeDI9IjM3NC4yMzEiIHkxPSIyMjEuNiIgeDE9IjEwNC43NzQiLz4mI3hhOwkJCQk8bGluZSB5Mj0iNDY5LjU5NSIgeDI9IjM5Ni40MzYiIHkxPSIxOTkuNjA3IiB4MT0iMTI2LjQ1NyIvPiYjeGE7CQkJCTxsaW5lIHkyPSI0NDguMTIyIiB4Mj0iNDE4LjYzOSIgeTE9IjE3Ny42MTQiIHgxPSIxNDguMTQiLz4mI3hhOwkJCQk8bGluZSB5Mj0iNDI2LjY0OCIgeDI9IjQ0MC44NDIiIHkxPSIxNTUuNjIxIiB4MT0iMTY5LjgyMiIvPiYjeGE7CQkJCTxsaW5lIHkyPSI0MDUuMTc1IiB4Mj0iNDYzLjA0NiIgeTE9IjEzMy42MjgiIHgxPSIxOTEuNTA1Ii8+JiN4YTsJCQkJPGxpbmUgeTI9IjM4My43IiB4Mj0iNDg1LjI0OCIgeTE9IjExMS42MzUiIHgxPSIyMTMuMTg4Ii8+JiN4YTsJCQkJPGxpbmUgeTI9IjM2Mi4yMjkiIHgyPSI1MDcuNDUyIiB5MT0iODkuNjQyIiB4MT0iMjM0Ljg3MSIvPiYjeGE7CQkJCTxsaW5lIHkyPSIzNDAuNzU1IiB4Mj0iNTI5LjY1NSIgeTE9IjY3LjY0OSIgeDE9IjI1Ni41NTMiLz4mI3hhOwkJCQk8bGluZSB5Mj0iMzE5LjI4MyIgeDI9IjU1MS44NTgiIHkxPSI0NS42NTciIHgxPSIyNzguMjM2Ii8+JiN4YTsJCQkJPGxpbmUgeTI9IjI5Ny44MDkiIHgyPSI1NzQuMDYyIiB5MT0iMjMuNjY0IiB4MT0iMjk5LjkyIi8+JiN4YTsJCQk8L2c+JiN4YTsJCTwvZz4mI3hhOwkJPHBhdGggZD0iTSA0OTAuNzA5OSwxMDYuMDc5NDkgQyA0NjcuMTE2OSw4Mi40ODY0ODcgNDM4LjExMDksNjEuMjI2NDg3IDQwMy40NjI5LDQ4LjM0MjQ4NyBDIDM2Ny41NDg5LDM0Ljk4NzQ4NyAzMjYuOTIyOSwyMy43MzA0ODcgMjc5LjAwNzksMjcuODEzNDg3IEMgMjAyLjY4MTksMzQuMzE5NDg3IDE0OS4wOTE5LDY4LjU2NDQ4NyAxMDguMzYyOSwxMDguNjQ1NDkgQyA3OS44MzQ4OTcsMTM2LjcxODQ5IDU4LjM3NTg5NywxNzEuMTE5NDkgNDQuMjEwODk3LDIxMS4yODg0OSBDIDIzLjQxMjg5NywyNzAuMjY5NDkgMjQuNjc0ODk3LDMzOS44ODY0OSA0OC4wNTk4OTcsMzk5Ljg5NTQ5IEMgNjguMDA2ODk3LDQ1MS4wODI0OSAxMDAuNjU0OSw0OTIuMzY4NDkgMTQ2Ljg1MzksNTI0LjM1MDQ5IEMgMTkwLjI4NDksNTU0LjQxNzQ5IDI1Mi42MTg5LDU3Ny43MzY0OSAzMjIuNjI5OSw1NzEuODIzNDkgQyA0MDcuOTAxOSw1NjQuNjIxNDkgNDcwLjI5MzksNTIwLjg3MzQ5IDUxMS4yMzY5LDQ3MC40NjM0OSBDIDUyMS43MTI5LDQ1Ny41Njc0OSA1MzIuMTI4OSw0NDIuOTkwNDkgNTM4LjE3OTksNDI1LjU1NzQ5IEMgNTQ0LjEwODksNDEyLjk5NjQ5IDU0Ny4wMTA5LDQwNC40NTc0OSA1NDkuNzI3OSwzOTkuODk2NDkgQyA1NjEuMDk5OSwzNzQuNDE0NDkgNTY3LjEyNDksMzQ3LjUyODQ5IDU2OC45NzI5LDMxNy43ODI0OSBDIDU3NC42NTc5LDIyNi4yOTA0OSA1MzkuNDU1OSwxNTQuODI2NDkgNDkwLjcwOTksMTA2LjA3OTQ5IHogTSA0NjUuNTc4OSwzODQuODI3NDkgQyA0NjUuNDE1OSwzODUuMTc1NDkgNDY1LjI2OTksMzg1LjQ5OTQ5IDQ2NS4wOTk5LDM4NS44NTg0OSBDIDQ2MC44Njk5LDM5Ny45NjM0OSA0NTMuNTgyOSw0MDguMDg1NDkgNDQ2LjI1ODksNDE3LjA0MTQ5IEMgNDE3LjYyNDksNDUyLjA0NTQ5IDM3My45OTU5LDQ4Mi40MjM0OSAzMTQuMzYzOSw0ODcuNDI1NDkgQyAyNjUuNDAyOSw0OTEuNTI5NDkgMjIxLjgxMTksNDc1LjMzODQ5IDE5MS40NDA5LDQ1NC40NjA0OSBDIDE2NS4wNDg5LDQzNi4zMTc0OSAxNDQuOTg2OSw0MTMuODU5NDkgMTMwLjkxODksMzg2Ljg2OTQ5IEMgMTMwLjA2MDksMzg1LjI0NTQ5IDEyMS44OTA5LDM2Ni40MjI0OSAxMjEuODY2OSwzNjUuNTk0NDkgQyAxMTAuNzIxOSwzMzEuMDI1NDkgMTA5Ljc1NDksMjc1LjQzOTQ5IDEyMS4xOTM5LDI0Mi4wODI0OSBDIDEyOC44Mjc5LDIxOS44MTk0OSAxNDEuNTUwOSwxOTUuNzMxNDkgMTU4LjQwMTksMTc2LjY0NzQ5IEMgMTgxLjY2NzksMTUwLjI5NjQ5IDIwNC45NTA5LDEzMy40MTE0OSAyNDEuNzk5OSwxMjEuNDc2NDkgQyAyNTguNjI0OSwxMTYuMDI2NDkgMjczLjY4NjksMTEwLjQ3OTQ5IDI5NC40MDM5LDEwOS45Mjk0OSBDIDM0NC45MjM5LDEwOC41ODQ0OSAzOTYuMzY4OSwxMzEuMjY3NDkgNDIzLjk5MDksMTU2LjExODQ5IEMgNDQ5LjM3NDksMTc4Ljk1NTQ5IDQ3OC4zMDQ5LDIyMy40NDA0OSA0ODUuNTc3OSwyNjUuMTc2NDkgQyA0OTMuMDYyOSwzMDguMTMzNDkgNDg1LjA3NDksMzUwLjA3NDQ5IDQ2NS41Nzg5LDM4NC44Mjc0OSB6Ii8+JiN4YTsJCTxwYXRoIHN0cm9rZT0iIzAwMCIgc3Ryb2tlLXdpZHRoPSI2IiBmaWxsPSIjZmZmIiBkPSJNIDM3Ny43NjgsNDI2LjAzMyBDIDM2NS4zMjgsNDI2LjAzMyAzNTQuNDExLDQxOC4xNTUgMzUwLjYwMSw0MDYuNDI5IEwgMzM2Ljc0NSwzNjQuMjExIEwgMjY3LjQzLDM2NC4yMTEgTCAyNTQuNTU2LDQwNi4wNDQgQyAyNTAuNjcsNDE3Ljk5OCAyMzkuNjcsNDI2IDIyNy4xNjYsNDI2IEMgMjI0LjE2NCw0MjYgMjIxLjE4Miw0MjUuNTI1IDIxOC4zMDMsNDI0LjU5MSBDIDIwMy4zNTcsNDIwLjEwNCAxOTQuODcyLDQwNC4wMTcgMTk5LjQ1MSwzODguNzUxIEwgMjU3Ljk1NywyMDMuNDI4IEMgMjYxLjc1NiwxOTEuNjM5IDI3Mi45NCwxODMuNDE2IDI4NS4xNTcsMTgzLjQxNiBMIDMxNi4yNjcsMTgzLjQxNiBDIDMyOC41NTMsMTgzLjQxNiAzMzkuNzM2LDE5MS40OTkgMzQzLjQ2MSwyMDMuMDczIEwgNDA0Ljk5LDM4OC4zMjcgQyA0MDkuOTEsNDAzLjQ3MyA0MDEuNzYzLDQxOS43MzIgMzg2LjgzOSw0MjQuNTkgQyAzODMuODg4LDQyNS41NDggMzgwLjgzNyw0MjYuMDMzIDM3Ny43NjgsNDI2LjAzMyBMIDM3Ny43NjgsNDI2LjAzMyB6Ii8+JiN4YTsJCTxnIGlkPSJPQVVUSCIgZmlsbD0iI2ZmZiI+JiN4YTsJCQk8Zz4mI3hhOwkJCQk8cGF0aCBkPSJNIDE0OC4wMDEsMTI0LjM1NCBMIDE0Ny45MjgsMTI0LjI1NSBDIDE0MC42MzIsMTE0LjI1NiAxNDIuNzczLDEwMC4yNjggMTUzLjUxOCw5Mi40MjYgQyAxNjQuMjYzLDg0LjU4NSAxNzguMDY2LDg2Ljc4NiAxODUuMzYyLDk2Ljc4NCBMIDE4NS40MzUsOTYuODgzIEMgMTkyLjczMSwxMDYuODgyIDE5MC41OSwxMjAuODcxIDE3OS44NDUsMTI4LjcxMiBDIDE2OS4xLDEzNi41NTMgMTU1LjI5NywxMzQuMzUzIDE0OC4wMDEsMTI0LjM1NCB6IE0gMTc1LjY1OCwxMDQuMTcxIEwgMTc1LjU4NSwxMDQuMDcyIEMgMTcxLjkxOSw5OS4wNDggMTY1LjA5Myw5Ny4zMiAxNTkuNzcxLDEwMS4yMDQgQyAxNTQuNDk4LDEwNS4wNTIgMTU0LjA4OCwxMTEuOTA3IDE1Ny43NTQsMTE2LjkzMiBMIDE1Ny44MjcsMTE3LjAzMSBDIDE2MS40OTQsMTIyLjA1NSAxNjguMzE5LDEyMy43ODMgMTczLjU5MiwxMTkuOTM1IEMgMTc4LjkxNSwxMTYuMDUxIDE3OS4zMjUsMTA5LjE5NiAxNzUuNjU4LDEwNC4xNzEgeiIvPiYjeGE7CQkJCTxwYXRoIGQ9Ik0gMjE4LjM0NCw1OC44MTcgTCAyMjkuMzA5LDU1LjI5OSBMIDI2MC4wNDgsOTEuMDMzIEwgMjQ3Ljg1MSw5NC45NDYgTCAyNDIuNTA5LDg4LjU3NiBMIDIyNi42NzYsOTMuNjU2IEwgMjI2LjA5NiwxMDEuOTI3IEwgMjE0LjEzNCwxMDUuNzY1IEwgMjE4LjM0NCw1OC44MTcgeiBNIDIzNi4zODQsODAuNzc1IEwgMjI4LjA2Niw3MC41NzMgTCAyMjcuMTc3LDgzLjcyOSBMIDIzNi4zODQsODAuNzc1IHoiLz4mI3hhOwkJCQk8cGF0aCBkPSJNIDI3OS43OTUsNjkuNTY3IEwgMjc5Ljg5MSw0NS4zNjQgTCAyOTIuMDIzLDQ1LjQxMiBMIDI5MS45MjgsNjkuMzY5IEMgMjkxLjkwMyw3NS41ODkgMjk1LjAzMiw3OC41NTcgMjk5LjgzNiw3OC41NzcgQyAzMDQuNjQsNzguNTk2IDMwNy43OTIsNzUuNzc2IDMwNy44MTUsNjkuNzQxIEwgMzA3LjkxMiw0NS40NzcgTCAzMjAuMDQ0LDQ1LjUyNSBMIDMxOS45NDksNjkuNDIgQyAzMTkuODk0LDgzLjMzOCAzMTEuOTI2LDg5LjQwNCAyOTkuNjcsODkuMzU1IEMgMjg3LjQxNSw4OS4zMDUgMjc5Ljc0Miw4My4wNTQgMjc5Ljc5NSw2OS41NjcgeiIvPiYjeGE7CQkJCTxwYXRoIGQ9Ik0gMzYzLjg1OSw2NS4zMzggTCAzNTEuNDkxLDYxLjU2MyBMIDM1NC41NDcsNTEuNTUgTCAzOTAuNzEsNjIuNTg3IEwgMzg3LjY1NCw3Mi42IEwgMzc1LjI4Niw2OC44MjYgTCAzNjUuNzU5LDEwMC4wNDIgTCAzNTQuMzMzLDk2LjU1NSBMIDM2My44NTksNjUuMzM4IHoiLz4mI3hhOwkJCQk8cGF0aCBkPSJNIDQyMy4wMTIsNzYuNTU5IEwgNDMyLjk1OCw4My4xNzggTCA0MjQuMDIsOTYuNjEgTCA0MzYuNzg2LDEwNS4xMDYgTCA0NDUuNzI1LDkxLjY3MyBMIDQ1NS42NzEsOTguMjkyIEwgNDMxLjc4OCwxMzQuMTgxIEwgNDIxLjg0MSwxMjcuNTYyIEwgNDMwLjkxNywxMTMuOTI0IEwgNDE4LjE1LDEwNS40MjggTCA0MDkuMDc1LDExOS4wNjYgTCAzOTkuMTI5LDExMi40NDcgTCA0MjMuMDEyLDc2LjU1OSB6Ii8+JiN4YTsJCQk8L2c+JiN4YTsJCQk8Zz4mI3hhOwkJCQk8cGF0aCBkPSJNIDQ1OC4xNDYsNDY4Ljg4MyBMIDQ1OC4yMjIsNDY4Ljk4IEMgNDY1Ljg5Niw0NzguNjkzIDQ2NC4yOSw0OTIuNzU1IDQ1My44NTIsNTAxLjAwMSBDIDQ0My40MTQsNTA5LjI0NyA0MjkuNTM2LDUwNy41NzUgNDIxLjg2Miw0OTcuODYyIEwgNDIxLjc4Niw0OTcuNzY1IEMgNDE0LjExMiw0ODguMDUxIDQxNS43MTksNDczLjk5IDQyNi4xNTYsNDY1Ljc0NCBDIDQzNi41OTQsNDU3LjQ5OSA0NTAuNDcyLDQ1OS4xNyA0NTguMTQ2LDQ2OC44ODMgeiBNIDQzMS4yNzcsNDkwLjExIEwgNDMxLjM1Myw0OTAuMjA3IEMgNDM1LjIwOSw0OTUuMDg4IDQ0Mi4wOTYsNDk2LjU1NCA0NDcuMjY3LDQ5Mi40NjkgQyA0NTIuMzg5LDQ4OC40MjIgNDUyLjUzOCw0ODEuNTU2IDQ0OC42ODEsNDc2LjY3NSBMIDQ0OC42MDUsNDc2LjU3OCBDIDQ0NC43NSw0NzEuNjk3IDQzNy44NjIsNDcwLjIzMSA0MzIuNzQsNDc0LjI3OCBDIDQyNy41NjksNDc4LjM2MyA0MjcuNDIxLDQ4NS4yMjkgNDMxLjI3Nyw0OTAuMTEgeiIvPiYjeGE7CQkJCTxwYXRoIGQ9Ik0gMzkwLjcwNyw1MzcuMTgyIEwgMzc5LjkwNyw1NDEuMTc5IEwgMzQ3LjYyNSw1MDYuODMzIEwgMzU5LjYzOCw1MDIuMzg2IEwgMzY1LjI1Niw1MDguNTE2IEwgMzgwLjg1LDUwMi43NDQgTCAzODEuMDY1LDQ5NC40NTYgTCAzOTIuODQ3LDQ5MC4wOTUgTCAzOTAuNzA3LDUzNy4xODIgeiBNIDM3MS43MTgsNTE2LjA0IEwgMzgwLjQ3Nyw1MjUuODY1IEwgMzgwLjc4Niw1MTIuNjgzIEwgMzcxLjcxOCw1MTYuMDQgeiIvPiYjeGE7CQkJCTxwYXRoIGQ9Ik0gMzI4Ljg4OCw1MjguOTg1IEwgMzI5Ljk1NSw1NTMuMTY0IEwgMzE3LjgzNSw1NTMuNjk5IEwgMzE2Ljc3OCw1MjkuNzY2IEMgMzE2LjUwNCw1MjMuNTUyIDMxMy4yMzYsNTIwLjczOCAzMDguNDM3LDUyMC45NSBDIDMwMy42MzgsNTIxLjE2MiAzMDAuNjI1LDUyNC4xMzEgMzAwLjg5MSw1MzAuMTYgTCAzMDEuOTYxLDU1NC40IEwgMjg5Ljg0MSw1NTQuOTM1IEwgMjg4Ljc4Nyw1MzEuMDY0IEMgMjg4LjE3Myw1MTcuMTYgMjk1Ljg0MSw1MTAuNzE4IDMwOC4wODQsNTEwLjE3OCBDIDMyMC4zMjgsNTA5LjYzNyAzMjguMjkzLDUxNS41MTEgMzI4Ljg4OCw1MjguOTg1IHoiLz4mI3hhOwkJCQk8cGF0aCBkPSJNIDI0NC42NzEsNTM2Ljg5MSBMIDI1Ny4xNTgsNTQwLjI2MiBMIDI1NC40MjksNTUwLjM3IEwgMjE3LjkxOCw1NDAuNTE1IEwgMjIwLjY0Nyw1MzAuNDA2IEwgMjMzLjEzNCw1MzMuNzc3IEwgMjQxLjY0MSw1MDIuMjYxIEwgMjUzLjE3Nyw1MDUuMzc1IEwgMjQ0LjY3MSw1MzYuODkxIHoiLz4mI3hhOwkJCQk8cGF0aCBkPSJNIDE4NS42NSw1MjguMTA4IEwgMTc1LjQwMSw1MjEuOTY2IEwgMTgzLjY5Niw1MDguMTI1IEwgMTcwLjU0Myw1MDAuMjQxIEwgMTYyLjI0OCw1MTQuMDgyIEwgMTUyLDUwNy45NCBMIDE3NC4xNjQsNDcwLjk2MSBMIDE4NC40MTIsNDc3LjEwNCBMIDE3NS45OSw0OTEuMTU2IEwgMTg5LjE0NCw0OTkuMDQgTCAxOTcuNTY2LDQ4NC45ODggTCAyMDcuODE0LDQ5MS4xMzEgTCAxODUuNjUsNTI4LjEwOCB6Ii8+JiN4YTsJCQk8L2c+JiN4YTsJCTwvZz4mI3hhOwk8L2c+JiN4YTs8L3N2Zz4=;fontFamily=Comic Sans MS;" parent="1" vertex="1">
          <mxGeometry x="115.03999999999998" y="359" width="39.92" height="40" as="geometry" />
        </mxCell>
        <mxCell id="KefA9xvpS-_wrWrdlZzh-63" value="OpenID Connect" style="shape=image;verticalLabelPosition=bottom;verticalAlign=top;imageAspect=0;aspect=fixed;image=data:image/png,iVBORw0KGgoAAAANSUhEUgAAAgAAAAIACAMAAADDpiTIAAAAA3NCSVQICAjb4U/gAAAACXBIWXMAARUdAAEVHQHxXN70AAAAGXRFWHRTb2Z0d2FyZQB3d3cuaW5rc2NhcGUub3Jnm+48GgAAAwBQTFRF////AwEEAwEEAwEEAwEEAwEEAwEEAwEEAwEEAwEEAwEEAwEEAwEEAwEEAwEEAwEEAwEEAwEEAwEEAwEEAwEEAwEEAwEEAwEEAwEEAwEEAwEEAwEEAwEEAwEEAwEEAwEEAwEEAwEEAwEEAwEEAwEEAwEEAwEEAwEEAwEEAwEEAwEEAwEEAwEEAwEEAwEEAwEEAwEEAwEEAwEEAwEEAwEEAwEEAwEEAwEEAwEEAwEEAwEEAwEEAwEEAwEEAwEEAwEEAwEEAwEEAwEEAwEEAwEEAwEEAwEEAwEEAwEEAwEEAwEEAwEEAwEEAwEEAwEEAwEEAwEEAwEEAwEEAwEEAwEEAwEEAwEEAwEEAwEEAwEEAwEEAwEEAwEEAwEEAwEEAwEEAwEEAwEEAwEEAwEEAwEEAwEEAwEEAwEEAwEEAwEEAwEEAwEEAwEEAwEEAwEEAwEEAwEEAwEEAwEEAwEEAwEEAwEEAwEEAwEEAwEEAwEEAwEEAwEEAwEEAwEEAwEEAwEEAwEEAwEEAwEEAwEEAwEEAwEEAwEEAwEEAwEEAwEEAwEEAwEEAwEEAwEEAwEEAwEEAwEEAwEEAwEEAwEEAwEEAwEEAwEEAwEEAwEEAwEEAwEEAwEEAwEEAwEEAwEEAwEEAwEEAwEEAwEEAwEEAwEEAwEEAwEEAwEEAwEEAwEEAwEEAwEEAwEEAwEEAwEEAwEEAwEEAwEEAwEEAwEEAwEEAwEEAwEEAwEEAwEEAwEEAwEEAwEEAwEEAwEEAwEEAwEEAwEEAwEEAwEEAwEEAwEEAwEEAwEEAwEEAwEEAwEEAwEEAwEEAwEEAwEEAwEEAwEEAwEEAwEEAwEEAwEEAwEEAwEEAwEEAwEEAwEEAwEEAwEEAwEEAwEEAwEEAwEEAwEEAwEEAwEEAwEEAwEEAwEEAwEEAwEEAwEEAwEEAwEEAwEEAwEEAwEEAwEEAwEEAwEEAwEEAwEEAwEEAwEEAwEEAwEEAwEEAwEEAwEEAwEEAwEEAwEEAwEEAwEEAwEEAwEEtRVHvgAAAP90Uk5TAAECAwQFBgcICQoLDA0ODxAREhMUFRYXGBkaGxwdHh8gISIjJCUmJygpKissLS4vMDEyMzQ1Njc4OTo7PD0+P0BBQkNERUZHSElKS0xNTk9QUVJTVFVWV1hZWltcXV5fYGFiY2RlZmdoaWprbG1ub3BxcnN0dXZ3eHl6e3x9fn+AgYKDhIWGh4iJiouMjY6PkJGSk5SVlpeYmZqbnJ2en6ChoqOkpaanqKmqq6ytrq+wsbKztLW2t7i5uru8vb6/wMHCw8TFxsfIycrLzM3Oz9DR0tPU1dbX2Nna29zd3t/g4eLj5OXm5+jp6uvs7e7v8PHy8/T19vf4+fr7/P3+6wjZNQAAE9dJREFUeNrt3Xlc1VX+x/Fz2WQTUQTENBn3BUPDMO1nZWoymD81p8blRzqN2bgrLkGiufyCJptRpzQ1MxvHFE3NjUDNLCtlXFBzabFSQnFBRPb1fuYPralY5HLP+X7Puef9+q8ewv3y/Ty5fO93ZQwhhBBCCCGEEEIIIYQQQgghhBBCCCGEENK2ep5YBzrX9XR7rAR9c55dSgCgb20OEQGAvo0rIADQt6bJRACgb8OyCQD0rdFGIgDQt/6XCAD0zWs5EQDoW49vCQD0zfXlcgIAfeuURgQA2uY0vZgAQN+CPyECAH17NpcAQN8CthMBgL4NuUYAoG8+a4kAQN96XyQA0Df3xVYCAH0LO0sEANrmMqeMAEDf2qYSAYC2WSYWEgDoW7M9RACgbyNvEgDom98mIgDQt8jLBAD65rWSCAD07aHzBAD65pZQQQCgb51PEAGAtjnNKiEA0LeWB4kAQN+eyyMA0Lcmu4gAQN+GXicA0LcG64gAQN/6pBMA6JvHUisBgL498BURAGiby7wyAgB9a3+ECAC0zTKlkABA35p/RAQA+haVQwCgce5EAAAAAAAAAAAAAAAAAAAAAAAAAAAAAAAAAAAAAAAAAAAAAAAAAAAAAAAAAAAAAAAAAAAAAAAAAAAAAAAAAAAAAAAAWI0AgAAAAQACAAQACAAQACAAQACAAAABAAIABAAIABAAIABAAIAAAAEAAgAEAAgAEAAgAEAAgAAAAQACAAQACAAQACAAQACAAAABAAIABAAIABAAIABAAIAAAAEAAgAEAAgAEAAgAEAAgAAAAQACAAQACAAQACAAQACAAAABAAIABAAIABAAAAAAAAAAAAAAAAAAAAAAAAAAOGqWwG7BhgDo0rN9gAvWtzQ1Cn1iXPy6A9+VEE01BMBGIqJbPxzds2HZwqnPPNGjXUMMwYTqd+w/Zv6avV8V/GJUBgL4VTlpWxaN69/GDVMxIqffRUav+vRaVaMyC8CdKtIPrIkb0SMQMxKUZ5fh8xNPFlU/KpMB/NTNA4tH3eeKeXEs8JG/LEm+YL3bmpcEABERFR9bPfEhb4zO7u4ZtDDpWi1HJRMAIiKyfpMYG+GLIdb1937ASzszbRmVdABubxqkLR7sh2naVuOI2dt+tHlUcgIgIrKe+sdQf4y1Vrn1inn/Qt1GJS8AIiI6s+xpfEKoOdees/cV1n1UkgMgIjodH27BnKvMpXtMSr59o1IAABFderM/dhn9JuduM5Ny7R+VGgCI6NbGYT6Y+p0sXaN35hCXlAFARCXJ45pi+KxexJsZxC2VABCRdf8ovfcUNYranEc8UwwAEeX/s4+TptNvFX2gnDinHgAiSo/X74wTy4PxZ0hASgIgotTxjXTa4u//1hUSk6oAiErWh2sy/tDXLpOw1AVARIeGOf55ZkEzTpLIlAZAlPFiY0eevufIlHIiAKipotWdhc6gq2nTd+qzNo+EpzwAItofIe4NeE2FSePv8MqPZESOAIAodYCQIXjMyScyZat/yH4yKMcAQHR0IP9P3iPTicwA4BdzkQgAbO34YL4HjXum3v6+Ro///jVFRABQl04M5Ucg+OdFNnT6rsM+J2NzJABEqZz2DdVP+O9voYHjbzL3MhEA2HW0cE0Ah89fz/1yv6th479vfQkRANhbzjR79w72+fWuN4PG33WrlQgAeHS2nz2DaLfjN9/OkPF3204m5YAAiLYG1/l8i6WlZDyA7ruJAIDr/uH5HnXaBp+SXfl7CR9/z2QiAODdxadsn8TAr6v6ToLH32svEQAIOUIQYuNG+L6qv4/Y3/79RAAgqPKlXrWfROBbFWQ4gOBEIgAQ2NfdajkJ99jqL7EQNv76CcUEAGIrjanVCcTDarqwUtQBv7FXiQBAeAea3/1D2Bc1fgcx8+93iggAjCj76Zon0Xz9XfbAiRh/+11EAGBU79RwLZH3wrteWS3geP/rZQQABna+e3VHfZ6txdE37vMfcZ0IAAytbI5zVZN4NK02X8x5/M13EwGA4aU0qPRztt5Wuy/le5rZ+FwCADM62+rXS+T7t1IyHkC7g0QAYE5ZD/9ieVwmZtX6C/mN3yW2mADAtEqf/XlxIs/Z8HX8zvZMIwIAM1t0e7dgSIpNX8Vp/G6vlBMAmNz7roz5r7BxEHzm3/ooEQCY3k6fWbds/Rou8x+ZSwAgQ3W45oLD+L3eIQIAVbN//qHnCAA0BjChmABAXwANt8r94xkDIP5cxq0KLQGEXyQAuLMb3Duofb/nXl7/+SWrPgBGFBEAVKpe2ycX7s7UAIDlZfl/PDMA3LkUNjJuyw8ODcBrq+w/W/aJnf1MA3B7Eyli6TeOCqB5mrw/VP6RtTMiO1R92rzhzw5uNTGp0AEB9Lgi5Y9TlLYuZuDvarqThhkPj3aPWPqtgwGIku7Tf8XpDXGD29z9PHmznh7eetLeCscBEC/XD5GT/NLjDWr722gSAMZY8MIMxwDgtFqe5beeWzOmky03TzIRAGPOT2wvVx+A2yZZFv7iW0/ZfFd1UwEwxprO/l5xAJ7JUix4/q5J7eoyALMBMGbpm1iiMIAGn0nwvn80/tG6PmfNfACMscbTv1IVQIDpH/9Ldo2y5x7qUgBgzPJkmpIA7v3a5OnvfKaBfWteEgCMsUFH1QPQNt3MZS3eEdXA7tUuDwDGBqQqBqDlJROn/8FILo/WlAkAY5FnVQJwj3kfYL4YVZ/TKpcLAHOZnK0MAH+zTv67tYzjY1MkA8CY3xvlagDwNWmz9cgYL57rWzoAjHXaowIA70Om7O5ZFcb5AnYJATA2JFN6AO4fmbBwJ8fxf6S6lABYw39KDsB1p/G7+zb3YAKSEwBjAzKkBmA40IoNnRjTCQBr8LbEAGINXqrydcKeny0tAMb6p8sK4EljT3Uve6cNYxoCYH4pcgK4v8DIJSpd3ZIxPQEwp/lWCQEEGbl5UrKiBWPaAmDs9zekA+BxxMDf/jeaM6Y1ABZ8VDIAFgNPAPu4I2O6A2D1VskFYJ5hi5I5kjEAsERst8oEoJ9RJ7OXL/FhANB45ndybQMEGXXb/89CGdMeQM91xl9vU/MSOX9szFJcG21hugPwfv6EfHsCFxiz23d5Q8Y0BxCyzKQ7rdW4VH0N2QBIDWNMbwBuw827y7LpGwDFk5yY3gCCE64RyQjAyYgNgO8N/fWXD4DTgF3mXjRcw7JNNuDlt/kynQEExF4gk6t+4e4Rv1VSFs2YxgB6vSfBNYLVL94W4a/9Y0+mLwCfCadJhqpdwIHCX/rDxkxbAKEr8oikBuAl+haQ5bMtTFMA9aK+IGmqbiEXiT7y05sxPQG0ejWLSHoAoYIf/vhxE6YlAOdByZLdSbaaT6eHxb7q35yZjgCaxKWTbFW9pOOFvqZ1BmM6AnAZ/d5lNQAE5Qj99D+K6QmAMcbajt1wWX4AiSJfsWAA0xgAY4y1e35DptQAIkS+YHZPpjsAxhhr/5eNmbIC8BB5H4grnRgA/Iwg8YqMABIEvlxWCAOAX9ZhXOJVyQC0LRX3ajfvZwBQqY7jN12VCMC74l4stzsDgGoQTNh8TQ4ArcTdsaagFwOA6rN0MgNBpcUQdyfwor4MAO6GIGTi+9dNBdBC3BbAMAYAtUMwaUuWaQBWCHul+QwAao+g86StWWYAaCbsJKVNFgCwEcF9k7feMBrA66Je54gHA4A6IAidsu2GgQCCRD0K9FJTBgB1R/BBtkEA/i7oVQrDGADYk1OXqYIQ/OplAkTdDOh5BgD2I+g6bftNsQBeFTT/bQwAeCGI3nFTGAC/fDHzz/ADAJ4I7o/ekSMEgKCngVc8xgCAN4Kw6TtzeAPwEHQi2CsMAETkHDZj1y2eAEYI2gPgCgDiEHSbsfsWLwBi7lNa2p4BgFgED8zcncsBQDMx16knMAAwAEH4rKRcOwHECJn/RU8AMCiX8Fkf5tkBQMzDTAczADASQfcXbETw85c+KGT+uxkAGI7gwZjkPNsBvCnkJKCWAGASgtiUfJsA1LspAsBLDABMy7VHbRD89K+fFjH/q54AYDKCni/uKagVgCQRAGYwAJAAwUOz9xbcDUCQiJPBr3kBgDwI9hXUBGCmiDeAmQwAJMrtf+L2FVYHIFWXNwCNATDGmFuvOR8VVgHAT8Ru4BcYAEiKYH/RbwAMFzD/694AIG31Hp57B8Ht/xZxQeh8BgByI3jkpY+LbgOwCLhPQcW9AKACAsYYY121OAoAANUm4tnQgwBAnT7hP/9LLgCgTD4C7gu7kAGAMg0RsAkYDADqtJI/gGQGAOp0nj+AZwFAnRryn781EADUqQ9/AIcYAKiTgEPBLwKAQm3gDyAEABTqG+7z/4EBgEK7gfg/xGYpACjUw/z/AvQFAIWaxn3+pe4AoFDruAM4ygBAoY5wB7AcAFSK/y1pRwOAQtXnvw3YAQAUqjP3+d+yAIBC/S93AB8xAFCoKdwBxAOASi3hDmAIAKjUZp2OBAFA5ZK5A/AGAJX6jPf8sxgAqNRJrXYEA0CluD8pejMAKBX3Z1UuAgCl4v6UmAkAoFTcHxIwAACUivutAToBgFJd4A3AEwCUivdNwq8wAFCqE/pcFAQAVXWYM4ANAKBWBzgDWAEAasX7YNBiAFCrD7Q6HQQAKpXIGcAcAFAr3jcJnQ0AarUSfwL0BrCYM4ClAKBW0ZwBrAYAtRqEHUF6AwjhDGAHAKiVJ2cAhwFAsTL5ArgOAIrF+7xwHwDQe09QVwBQq7mcAfwBANTq/zgDiAEAterBGcBbAKBWAZwBpAKAYuXxBVCGq4M1/xz4OACoVQJnAP8PAGr1e84ADgKAWvmU8wVQ4g4AanWM81vAowCgVrxvFDYXANTqSZ32BABA5fw5A5B6BQFAFZ3lDCABANRqBWcAGU4AoFQjef8NeBwAlKo5bwDrAUCtjnIGUOgDAErF/clhfwYApQqq0OZ4AABU2V7ebwHdAUCpRvMGsBcAlMqniLeARwFAqbg/OORzAFCqwbwByHrPYACoOrds3gCOWwBApVZxfwt4CgBU6hHuAM45A4BCWU5xFzAKAFSK+yFBulgfABTKmfvjo+htAFCpcdwB0GAAUCh37k+PoWuBAKBQMfzfAnYCgEL55PAXMBYAFCqeP4D81gCgToFF/AUccgYAdVrGHwDFAYA6tRDwFlAWBgDqtEDAW8DFewBAmTwuCBDwpS8AKNNQAQDooAcAKNNeEQK2OwOAKnUoFSFgNQAo02siANDLAKBK9TOFCJgMAKoUJQSAdRgAKJLlcyECSvoBgCJ1LhYiIO8BAFCkKSRGwAAAUOSPQJIYAeWTAUCNAq6IEUBvOAOAEkVYBQn4sD4AKNHfBQGgU/cCgAq5pYkScCUcAFSofYEoAYV/AAAVek4UALLGAoAKJQoTQGtcAUD+PFLFCTgQBADyF/iDOAHXBwGA/HXMESeAVnoCgPT1LRUo4KswAJC+PwsEQKUxTgAgewkiBdDBDgAgeZZEoQJKFroDgNy5fyFUAH3bFwDkrvGXYgXQOn8AkDp/0QJujLEAgNQCTgsWQMf7AoDMBQgXQCmhACCzgDPCBVS8ey8AyFvgWeECqOhVXwDQWgDdiPUBAFlrcs4AAZQ9ryEAyCrguBECKDfBHwDkzDvJEAFUsLgpAEiZ8wpjBFDx8lYAIGUvWA0iYE2KtACAhA0rJqM6H+0LAPLV64ZhAqhg1X0AIF1tvyMD+/RpNwCQLP/DRgqgG8vCAUCu6r1JxnYutjkASNXIfIMJVOyL8gIAiep4jowub21fFwCQZ6/gBjK+G+8O9gAAWZpQYgIBKtga1RAA5OiBC2RKZXvHNwUAGWq0m0zKenhOd2cAMD3L+HwyrezNY4MBwOxaHSQz++aNQfUBwNScpheZSoDKDs7p4QYAJtbh32R2RZ8mPOEHAGblEldK5mc9t/pPbQHAnLqcJDm6vn3WQx4AYHxuC4pJlspPr4vu7QsABtcmhaTq+y1xkUEAYGRPZZBsXfkwvhMAGHd86LUy6QjQVAAwsJBPAUDznrkKAHrnu7QUADQ/PJAIAJoX/gkAaN7AMwCgd85jLgGA3nnG5QKA3vnNywIAvfOamg4Aeuc6+qzjAbD+yxuTrXWWwYcdDMD+MEzVtnqnOBCAMwMwUNvrmljhGAAyxzpjmnWq9cpi9QHkz/PCJOtc0Ku5agMoX9UEU7Qr3xevKgxgV0dM0O48xp9XFMCx3pgen0+Fj60vUg/AxZEWjI7fX4Lxx9QCcHOWO6bGty6vZysDoHSJHwbGP/fh+6xKANjUCsMSVPD8dOkBfPYg5iQwp/6bSmQG8PUQzEh0flO/lBXAtYkumI8Rha/IkRBAYbwPRmNUbpFvZ8kFoGJtM4zF0Fz6LM+UB8CeUEzEhE3CXkvSpQBwqj+GYdr2wF/Pmw0g409OmIOZhS44YyKA3DhPjMD02s9OMwdA2fIArH05ajk9pdBwAB+0w4qXKPe+fz1uNRBAai+sc+nyH77mR2MAfP9HHPKXtA6Td+aJBnBjmhtWtMS5PrzwcLk4AMWvNcQ6lr6GQ5efqhABwPpeMNauIjWIWLg/nzOAA92wXpXKJWxyYgY3AGcHYo2qWIsRy05U2A/gyvO40kvdfB6fu+XbCjsAFCzAZd7K5xU+5h8HsusCoHx1U6w+R6lZZMx7p8tsApAUgtXmYLmFRi1KyawdgON9sL4cNP8+0945VlQzgPQo7PZ17JyDHxsTv/HfWVUCyHkBV3pp80GhS4tK/8+pMdYLQgghhBBCCCGEEEIIIYQQQgghhBBCCCGH7D86jHZe9JoJrgAAAABJRU5ErkJggg==;fontFamily=Comic Sans MS;" parent="1" vertex="1">
          <mxGeometry x="120" y="270" width="30" height="30" as="geometry" />
        </mxCell>
        <mxCell id="SUIRa4qWlpQRLGMbrInG-5" value="authenticate" style="text;html=1;strokeColor=#6c8ebf;fillColor=#dae8fc;align=center;verticalAlign=middle;whiteSpace=wrap;rounded=0;fontFamily=Comic Sans MS;dashed=1;" parent="1" vertex="1">
          <mxGeometry x="83.5" y="250" width="103" height="20" as="geometry" />
        </mxCell>
        <mxCell id="SUIRa4qWlpQRLGMbrInG-10" value="authorize" style="text;html=1;strokeColor=#9673a6;fillColor=#e1d5e7;align=center;verticalAlign=middle;whiteSpace=wrap;rounded=0;fontFamily=Comic Sans MS;dashed=1;" parent="1" vertex="1">
          <mxGeometry x="93.5" y="340" width="83" height="19" as="geometry" />
        </mxCell>
        <mxCell id="wwd5k6O7M-hc5xxTHIN7-5" value="" style="endArrow=classic;html=1;rounded=0;fontFamily=Comic Sans MS;elbow=vertical;strokeWidth=2;dashed=1;fillColor=#dae8fc;strokeColor=#6c8ebf;" parent="1" source="KefA9xvpS-_wrWrdlZzh-46" edge="1">
          <mxGeometry width="50" height="50" relative="1" as="geometry">
            <mxPoint x="400" y="299" as="sourcePoint" />
            <mxPoint x="110" y="289" as="targetPoint" />
          </mxGeometry>
        </mxCell>
        <mxCell id="wwd5k6O7M-hc5xxTHIN7-6" value="" style="endArrow=classic;html=1;rounded=0;fontFamily=Comic Sans MS;elbow=vertical;strokeWidth=2;dashed=1;fillColor=#dae8fc;strokeColor=#6c8ebf;" parent="1" edge="1">
          <mxGeometry width="50" height="50" relative="1" as="geometry">
            <mxPoint x="170" y="289" as="sourcePoint" />
            <mxPoint x="230" y="289" as="targetPoint" />
          </mxGeometry>
        </mxCell>
        <mxCell id="wwd5k6O7M-hc5xxTHIN7-8" value="" style="curved=1;endArrow=classic;html=1;rounded=0;fontFamily=Comic Sans MS;elbow=vertical;dashed=1;strokeWidth=2;fillColor=#e1d5e7;strokeColor=#9673a6;" parent="1" source="KefA9xvpS-_wrWrdlZzh-46" edge="1">
          <mxGeometry width="50" height="50" relative="1" as="geometry">
            <mxPoint x="240" y="299" as="sourcePoint" />
            <mxPoint x="110" y="379" as="targetPoint" />
            <Array as="points">
              <mxPoint x="20" y="359" />
              <mxPoint x="60" y="379" />
            </Array>
          </mxGeometry>
        </mxCell>
        <mxCell id="wwd5k6O7M-hc5xxTHIN7-10" value="" style="curved=1;endArrow=classic;html=1;rounded=0;fontFamily=Comic Sans MS;elbow=vertical;entryX=0.5;entryY=1;entryDx=0;entryDy=0;dashed=1;strokeWidth=2;fillColor=#e1d5e7;strokeColor=#9673a6;" parent="1" target="KefA9xvpS-_wrWrdlZzh-59" edge="1">
          <mxGeometry width="50" height="50" relative="1" as="geometry">
            <mxPoint x="170" y="379" as="sourcePoint" />
            <mxPoint x="260" y="249" as="targetPoint" />
            <Array as="points">
              <mxPoint x="250" y="389" />
              <mxPoint x="290" y="349" />
            </Array>
          </mxGeometry>
        </mxCell>
        <mxCell id="wwd5k6O7M-hc5xxTHIN7-12" value="" style="curved=1;endArrow=classic;html=1;rounded=0;fontFamily=Comic Sans MS;elbow=vertical;exitX=0.5;exitY=1;exitDx=0;exitDy=0;dashed=1;strokeWidth=2;fillColor=#e1d5e7;strokeColor=#9673a6;" parent="1" source="KefA9xvpS-_wrWrdlZzh-59" edge="1">
          <mxGeometry width="50" height="50" relative="1" as="geometry">
            <mxPoint x="210" y="299" as="sourcePoint" />
            <mxPoint x="430" y="329" as="targetPoint" />
            <Array as="points">
              <mxPoint x="300" y="389" />
              <mxPoint x="430" y="409" />
            </Array>
          </mxGeometry>
        </mxCell>
        <mxCell id="wwd5k6O7M-hc5xxTHIN7-13" value="" style="endArrow=classic;html=1;rounded=0;fontFamily=Comic Sans MS;elbow=vertical;exitX=0.5;exitY=0;exitDx=0;exitDy=0;exitPerimeter=0;" parent="1" source="KefA9xvpS-_wrWrdlZzh-43" target="KefA9xvpS-_wrWrdlZzh-24" edge="1">
          <mxGeometry width="50" height="50" relative="1" as="geometry">
            <mxPoint x="210" y="330" as="sourcePoint" />
            <mxPoint x="260" y="280" as="targetPoint" />
          </mxGeometry>
        </mxCell>
        <mxCell id="nYo_cjoG6PcRVJzux4Kp-1" value="" style="shape=cylinder3;whiteSpace=wrap;html=1;boundedLbl=1;backgroundOutline=1;size=15;fontFamily=Comic Sans MS;fillColor=#dae8fc;strokeColor=#6c8ebf;" parent="1" vertex="1">
          <mxGeometry x="700" y="50" width="60" height="60" as="geometry" />
        </mxCell>
        <mxCell id="nYo_cjoG6PcRVJzux4Kp-3" value="" style="curved=1;endArrow=classic;html=1;rounded=0;dashed=1;fontFamily=Comic Sans MS;strokeWidth=2;elbow=vertical;exitX=1;exitY=0.25;exitDx=0;exitDy=0;entryX=0;entryY=0.5;entryDx=0;entryDy=0;entryPerimeter=0;fillColor=#dae8fc;strokeColor=#6c8ebf;" parent="1" source="KefA9xvpS-_wrWrdlZzh-24" target="nYo_cjoG6PcRVJzux4Kp-1" edge="1">
          <mxGeometry width="50" height="50" relative="1" as="geometry">
            <mxPoint x="300" y="280" as="sourcePoint" />
            <mxPoint x="350" y="230" as="targetPoint" />
            <Array as="points">
              <mxPoint x="510" y="183" />
              <mxPoint x="500" y="90" />
              <mxPoint x="570" y="70" />
            </Array>
          </mxGeometry>
        </mxCell>
        <mxCell id="nYo_cjoG6PcRVJzux4Kp-4" value="" style="shape=image;html=1;verticalAlign=top;verticalLabelPosition=bottom;labelBackgroundColor=#ffffff;imageAspect=0;aspect=fixed;image=https://cdn0.iconfinder.com/data/icons/phosphor-fill-vol-3/256/list-checks-fill-128.png;dashed=1;fontFamily=Comic Sans MS;imageBackground=#66B2FF;" parent="1" vertex="1">
          <mxGeometry x="714" y="156" width="32" height="32" as="geometry" />
        </mxCell>
        <mxCell id="nYo_cjoG6PcRVJzux4Kp-5" value="Monitoring and visibility" style="text;html=1;strokeColor=none;fillColor=none;align=center;verticalAlign=middle;whiteSpace=wrap;rounded=0;fontFamily=Comic Sans MS;" parent="1" vertex="1">
          <mxGeometry x="522.5" y="40" width="157.5" height="30" as="geometry" />
        </mxCell>
        <mxCell id="nYo_cjoG6PcRVJzux4Kp-7" value="" style="shape=flexArrow;endArrow=classic;html=1;rounded=0;dashed=1;fontFamily=Comic Sans MS;strokeWidth=2;elbow=vertical;strokeColor=none;fillColor=#dae8fc;" parent="1" edge="1">
          <mxGeometry width="50" height="50" relative="1" as="geometry">
            <mxPoint x="729.6" y="120" as="sourcePoint" />
            <mxPoint x="729.6" y="150" as="targetPoint" />
          </mxGeometry>
        </mxCell>
      </root>
    </mxGraphModel>
  </diagram>
  <diagram id="x9sA5VYAyGuRD8gAH0x1" name="repository_pattern">
    <mxGraphModel dx="1298" dy="834" grid="1" gridSize="10" guides="1" tooltips="1" connect="1" arrows="1" fold="1" page="1" pageScale="1" pageWidth="850" pageHeight="1100" math="0" shadow="0">
      <root>
        <mxCell id="0" />
        <mxCell id="1" parent="0" />
        <mxCell id="HeiUSwzUPxhMAqTv8jJ3-28" value="" style="rounded=0;whiteSpace=wrap;html=1;dashed=1;fontFamily=Comic Sans MS;strokeColor=#666666;strokeWidth=1;fillColor=#f5f5f5;fontColor=#333333;" parent="1" vertex="1">
          <mxGeometry x="30" y="150" width="660" height="230" as="geometry" />
        </mxCell>
        <mxCell id="AiPdem-0JGgYL8dESbZg-4" value="" style="shape=datastore;whiteSpace=wrap;html=1;fontFamily=Comic Sans MS;fillColor=#ffcccc;strokeColor=#36393d;" parent="1" vertex="1">
          <mxGeometry x="610" y="265" width="60" height="60" as="geometry" />
        </mxCell>
        <mxCell id="AiPdem-0JGgYL8dESbZg-5" value="" style="shape=hexagon;perimeter=hexagonPerimeter2;whiteSpace=wrap;html=1;fixedSize=1;fontFamily=Comic Sans MS;fillColor=#e1d5e7;strokeColor=#9673a6;" parent="1" vertex="1">
          <mxGeometry x="40" y="250" width="200" height="90" as="geometry" />
        </mxCell>
        <mxCell id="HeiUSwzUPxhMAqTv8jJ3-1" value="Business Layer" style="text;html=1;strokeColor=none;fillColor=none;align=center;verticalAlign=middle;whiteSpace=wrap;rounded=0;fontFamily=Comic Sans MS;" parent="1" vertex="1">
          <mxGeometry x="87.5" y="280" width="105" height="30" as="geometry" />
        </mxCell>
        <mxCell id="HeiUSwzUPxhMAqTv8jJ3-3" value="Repository" style="swimlane;fontStyle=1;align=center;verticalAlign=top;childLayout=stackLayout;horizontal=1;startSize=26;horizontalStack=0;resizeParent=1;resizeParentMax=0;resizeLast=0;collapsible=1;marginBottom=0;fontFamily=Comic Sans MS;fillColor=#ffcc99;strokeColor=#36393d;" parent="1" vertex="1">
          <mxGeometry x="270" y="160" width="130" height="190" as="geometry" />
        </mxCell>
        <mxCell id="HeiUSwzUPxhMAqTv8jJ3-4" value="+ session" style="text;strokeColor=#36393d;fillColor=#ffff88;align=left;verticalAlign=top;spacingLeft=8;spacingRight=4;overflow=hidden;rotatable=0;points=[[0,0.5],[1,0.5]];portConstraint=eastwest;fontFamily=Comic Sans MS;" parent="HeiUSwzUPxhMAqTv8jJ3-3" vertex="1">
          <mxGeometry y="26" width="130" height="26" as="geometry" />
        </mxCell>
        <mxCell id="HeiUSwzUPxhMAqTv8jJ3-5" value="" style="line;strokeWidth=1;fillColor=#cce5ff;align=left;verticalAlign=middle;spacingTop=-1;spacingLeft=3;spacingRight=3;rotatable=0;labelPosition=right;points=[];portConstraint=eastwest;fontFamily=Comic Sans MS;strokeColor=#36393d;" parent="HeiUSwzUPxhMAqTv8jJ3-3" vertex="1">
          <mxGeometry y="52" width="130" height="8" as="geometry" />
        </mxCell>
        <mxCell id="HeiUSwzUPxhMAqTv8jJ3-6" value="+ add()" style="text;strokeColor=#36393d;fillColor=#cce5ff;align=left;verticalAlign=top;spacingLeft=8;spacingRight=4;overflow=hidden;rotatable=0;points=[[0,0.5],[1,0.5]];portConstraint=eastwest;fontFamily=Comic Sans MS;" parent="HeiUSwzUPxhMAqTv8jJ3-3" vertex="1">
          <mxGeometry y="60" width="130" height="26" as="geometry" />
        </mxCell>
        <mxCell id="HeiUSwzUPxhMAqTv8jJ3-7" value="+ get()" style="text;strokeColor=#36393d;fillColor=#cce5ff;align=left;verticalAlign=top;spacingLeft=8;spacingRight=4;overflow=hidden;rotatable=0;points=[[0,0.5],[1,0.5]];portConstraint=eastwest;fontFamily=Comic Sans MS;" parent="HeiUSwzUPxhMAqTv8jJ3-3" vertex="1">
          <mxGeometry y="86" width="130" height="26" as="geometry" />
        </mxCell>
        <mxCell id="HeiUSwzUPxhMAqTv8jJ3-8" value="+ list()" style="text;strokeColor=#36393d;fillColor=#cce5ff;align=left;verticalAlign=top;spacingLeft=8;spacingRight=4;overflow=hidden;rotatable=0;points=[[0,0.5],[1,0.5]];portConstraint=eastwest;fontFamily=Comic Sans MS;" parent="HeiUSwzUPxhMAqTv8jJ3-3" vertex="1">
          <mxGeometry y="112" width="130" height="26" as="geometry" />
        </mxCell>
        <mxCell id="HeiUSwzUPxhMAqTv8jJ3-9" value="+ update()" style="text;strokeColor=#36393d;fillColor=#cce5ff;align=left;verticalAlign=top;spacingLeft=8;spacingRight=4;overflow=hidden;rotatable=0;points=[[0,0.5],[1,0.5]];portConstraint=eastwest;fontFamily=Comic Sans MS;" parent="HeiUSwzUPxhMAqTv8jJ3-3" vertex="1">
          <mxGeometry y="138" width="130" height="26" as="geometry" />
        </mxCell>
        <mxCell id="HeiUSwzUPxhMAqTv8jJ3-10" value="+ delete()" style="text;strokeColor=#36393d;fillColor=#cce5ff;align=left;verticalAlign=top;spacingLeft=8;spacingRight=4;overflow=hidden;rotatable=0;points=[[0,0.5],[1,0.5]];portConstraint=eastwest;fontFamily=Comic Sans MS;" parent="HeiUSwzUPxhMAqTv8jJ3-3" vertex="1">
          <mxGeometry y="164" width="130" height="26" as="geometry" />
        </mxCell>
        <mxCell id="HeiUSwzUPxhMAqTv8jJ3-11" value="" style="curved=1;endArrow=classic;html=1;rounded=0;fontFamily=Comic Sans MS;strokeWidth=2;elbow=vertical;exitX=-0.001;exitY=0.046;exitDx=0;exitDy=0;exitPerimeter=0;" parent="1" source="HeiUSwzUPxhMAqTv8jJ3-3" target="AiPdem-0JGgYL8dESbZg-5" edge="1">
          <mxGeometry width="50" height="50" relative="1" as="geometry">
            <mxPoint x="180" y="390" as="sourcePoint" />
            <mxPoint x="230" y="340" as="targetPoint" />
            <Array as="points">
              <mxPoint x="230" y="160" />
              <mxPoint x="260" y="240" />
              <mxPoint x="260" y="280" />
            </Array>
          </mxGeometry>
        </mxCell>
        <mxCell id="HeiUSwzUPxhMAqTv8jJ3-12" value="" style="shape=image;html=1;verticalAlign=top;verticalLabelPosition=bottom;labelBackgroundColor=#ffffff;imageAspect=0;aspect=fixed;image=https://cdn3.iconfinder.com/data/icons/medical-equipment-33/512/MedicIcon-11-11-128.png;fontFamily=Comic Sans MS;fillColor=default;rotation=-180;" parent="1" vertex="1">
          <mxGeometry x="212" y="250" width="38" height="38" as="geometry" />
        </mxCell>
        <mxCell id="HeiUSwzUPxhMAqTv8jJ3-14" value="" style="endArrow=classic;html=1;rounded=0;fontFamily=Comic Sans MS;strokeWidth=2;elbow=vertical;exitX=1;exitY=0.5;exitDx=0;exitDy=0;" parent="1" source="HeiUSwzUPxhMAqTv8jJ3-7" target="HeiUSwzUPxhMAqTv8jJ3-15" edge="1">
          <mxGeometry width="50" height="50" relative="1" as="geometry">
            <mxPoint x="500" y="250" as="sourcePoint" />
            <mxPoint x="490" y="259" as="targetPoint" />
          </mxGeometry>
        </mxCell>
        <mxCell id="HeiUSwzUPxhMAqTv8jJ3-15" value="SELECT ..." style="text;html=1;strokeColor=#36393d;fillColor=#cce5ff;align=center;verticalAlign=middle;whiteSpace=wrap;rounded=0;fontFamily=Comic Sans MS;" parent="1" vertex="1">
          <mxGeometry x="440" y="244" width="80" height="30" as="geometry" />
        </mxCell>
        <mxCell id="HeiUSwzUPxhMAqTv8jJ3-16" value="" style="endArrow=classic;html=1;rounded=0;fontFamily=Comic Sans MS;strokeWidth=2;elbow=vertical;exitX=1;exitY=0.5;exitDx=0;exitDy=0;" parent="1" target="HeiUSwzUPxhMAqTv8jJ3-17" edge="1">
          <mxGeometry width="50" height="50" relative="1" as="geometry">
            <mxPoint x="400" y="289" as="sourcePoint" />
            <mxPoint x="460" y="289" as="targetPoint" />
          </mxGeometry>
        </mxCell>
        <mxCell id="HeiUSwzUPxhMAqTv8jJ3-17" value="SELECT ..." style="text;html=1;strokeColor=#36393d;fillColor=#cce5ff;align=center;verticalAlign=middle;whiteSpace=wrap;rounded=0;fontFamily=Comic Sans MS;" parent="1" vertex="1">
          <mxGeometry x="440" y="278" width="80" height="22" as="geometry" />
        </mxCell>
        <mxCell id="HeiUSwzUPxhMAqTv8jJ3-18" value="" style="endArrow=classic;html=1;rounded=0;fontFamily=Comic Sans MS;strokeWidth=2;elbow=vertical;exitX=1;exitY=0.5;exitDx=0;exitDy=0;" parent="1" target="HeiUSwzUPxhMAqTv8jJ3-19" edge="1">
          <mxGeometry width="50" height="50" relative="1" as="geometry">
            <mxPoint x="400" y="319" as="sourcePoint" />
            <mxPoint x="460" y="319" as="targetPoint" />
          </mxGeometry>
        </mxCell>
        <mxCell id="HeiUSwzUPxhMAqTv8jJ3-19" value="UPDATE ..." style="text;html=1;strokeColor=#36393d;fillColor=#cce5ff;align=center;verticalAlign=middle;whiteSpace=wrap;rounded=0;fontFamily=Comic Sans MS;" parent="1" vertex="1">
          <mxGeometry x="440" y="304" width="80" height="30" as="geometry" />
        </mxCell>
        <mxCell id="HeiUSwzUPxhMAqTv8jJ3-21" value="" style="endArrow=classic;html=1;rounded=0;fontFamily=Comic Sans MS;strokeWidth=2;elbow=vertical;exitX=1;exitY=0.5;exitDx=0;exitDy=0;" parent="1" target="HeiUSwzUPxhMAqTv8jJ3-22" edge="1">
          <mxGeometry width="50" height="50" relative="1" as="geometry">
            <mxPoint x="400" y="235" as="sourcePoint" />
            <mxPoint x="460" y="235" as="targetPoint" />
          </mxGeometry>
        </mxCell>
        <mxCell id="HeiUSwzUPxhMAqTv8jJ3-22" value="INSERT ..." style="text;html=1;strokeColor=#36393d;fillColor=#cce5ff;align=center;verticalAlign=middle;whiteSpace=wrap;rounded=0;fontFamily=Comic Sans MS;" parent="1" vertex="1">
          <mxGeometry x="440" y="220" width="80" height="30" as="geometry" />
        </mxCell>
        <mxCell id="HeiUSwzUPxhMAqTv8jJ3-23" value="" style="endArrow=classic;html=1;rounded=0;fontFamily=Comic Sans MS;strokeWidth=2;elbow=vertical;exitX=1;exitY=0.5;exitDx=0;exitDy=0;" parent="1" target="HeiUSwzUPxhMAqTv8jJ3-24" edge="1">
          <mxGeometry width="50" height="50" relative="1" as="geometry">
            <mxPoint x="400" y="349" as="sourcePoint" />
            <mxPoint x="460" y="349" as="targetPoint" />
          </mxGeometry>
        </mxCell>
        <mxCell id="HeiUSwzUPxhMAqTv8jJ3-24" value="DELETE ..." style="text;html=1;strokeColor=#36393d;fillColor=#cce5ff;align=center;verticalAlign=middle;whiteSpace=wrap;rounded=0;fontFamily=Comic Sans MS;" parent="1" vertex="1">
          <mxGeometry x="440" y="334" width="80" height="30" as="geometry" />
        </mxCell>
        <mxCell id="HeiUSwzUPxhMAqTv8jJ3-25" value="" style="labelPosition=right;align=left;strokeWidth=2;shape=mxgraph.mockup.markup.curlyBrace;html=1;shadow=0;dashed=0;strokeColor=#000000;direction=north;fontFamily=Comic Sans MS;fillColor=default;rotation=-180;" parent="1" vertex="1">
          <mxGeometry x="530" y="228" width="20" height="134" as="geometry" />
        </mxCell>
        <mxCell id="HeiUSwzUPxhMAqTv8jJ3-26" value="" style="shape=flexArrow;endArrow=classic;html=1;rounded=0;fontFamily=Comic Sans MS;strokeWidth=1;elbow=vertical;strokeColor=#82b366;fillColor=#d5e8d4;" parent="1" edge="1">
          <mxGeometry width="50" height="50" relative="1" as="geometry">
            <mxPoint x="560" y="294.6" as="sourcePoint" />
            <mxPoint x="600" y="294.6" as="targetPoint" />
          </mxGeometry>
        </mxCell>
      </root>
    </mxGraphModel>
  </diagram>
  <diagram id="ayi0LnqQigxCmHh5QRJC" name="build_apis_fastapi">
    <mxGraphModel dx="1110" dy="724" grid="1" gridSize="10" guides="1" tooltips="1" connect="1" arrows="1" fold="1" page="1" pageScale="1" pageWidth="850" pageHeight="1100" math="0" shadow="0">
      <root>
        <mxCell id="0" />
        <mxCell id="1" parent="0" />
        <mxCell id="46PyPGDRxOmanTsBk1Ec-1" value="" style="rounded=0;whiteSpace=wrap;html=1;dashed=1;fontFamily=Comic Sans MS;strokeColor=#666666;fillColor=#f5f5f5;fontColor=#333333;" parent="1" vertex="1">
          <mxGeometry x="30" y="140" width="660" height="310" as="geometry" />
        </mxCell>
        <mxCell id="46PyPGDRxOmanTsBk1Ec-2" value="" style="rounded=0;whiteSpace=wrap;html=1;dashed=1;fillColor=#fff2cc;strokeColor=#d6b656;fontFamily=Comic Sans MS;" parent="1" vertex="1">
          <mxGeometry x="419" y="340" width="191" height="90" as="geometry" />
        </mxCell>
        <mxCell id="46PyPGDRxOmanTsBk1Ec-3" style="edgeStyle=orthogonalEdgeStyle;rounded=0;orthogonalLoop=1;jettySize=auto;html=1;entryX=0;entryY=0.5;entryDx=0;entryDy=0;dashed=1;fillColor=#f8cecc;strokeColor=#b85450;curved=1;fontFamily=Comic Sans MS;" parent="1" source="46PyPGDRxOmanTsBk1Ec-4" target="46PyPGDRxOmanTsBk1Ec-20" edge="1">
          <mxGeometry relative="1" as="geometry">
            <mxPoint x="270" y="298" as="targetPoint" />
            <Array as="points">
              <mxPoint x="250" y="240" />
              <mxPoint x="250" y="265" />
            </Array>
          </mxGeometry>
        </mxCell>
        <mxCell id="46PyPGDRxOmanTsBk1Ec-4" value="" style="rounded=0;whiteSpace=wrap;html=1;dashed=1;fillColor=#f8cecc;strokeColor=#b85450;fontFamily=Comic Sans MS;" parent="1" vertex="1">
          <mxGeometry x="40.75" y="196" width="190" height="106" as="geometry" />
        </mxCell>
        <mxCell id="46PyPGDRxOmanTsBk1Ec-5" value="OpenAPI" style="shape=image;verticalLabelPosition=bottom;verticalAlign=top;imageAspect=0;aspect=fixed;image=data:image/png,iVBORw0KGgoAAAANSUhEUgAAAMgAAADICAIAAAAiOjnJAAAlvUlEQVR4nOydd1xT19vAT3YgCSEM2VtEEVABERXFvWqXVbHaOuqve7nbam1tq7bWLldbq9bVum1t3VtxsEQFBFQ2yAwJISRkJ+9HLy9SNDfJzT33JprvX7fk5Jyn8uXec895zjl0g8EAHDjAGyrZATh4MnGI5QAKDrEcQMEhlgMoOMRyAAWHWA6g4BDLARQcYjmAAp3sABwQQVNT0/Xr1wvyC8rKymtrayUSiVqtBgCw2WyBQODr6xMaGtYzKrJPnz5cLheXFimOkfcnGJVKdfbsuZMnT+bfyjfnF02n02Jj48aMHT1w4EA63aqbjkOsJxOVSvXXwb/379/X3CzF8PUuXbpMe2Xa2LFjaDQatgAcYj2BpKdnrF2ztr6+3sp6QkJD5s+f16NHDwzfdYj1RKFWq3/++ZfD/x7Gq0IqlTp9xvRp06ZSqZa95znEenKQSCRLP11aUFCIe80DkwYuWbKYxWKZ/xWHWE8IIpFowfyFlZWVkOqPiYlZ+fUKJycnM8s7xHoSkMlkH34wp7y8HGorsbGxX3+z0sy3RccAqd2j1+uXf7UCtlUAgOvXr69ds87Mwg6x7J5du3ZnZWUR09bRo0fPnDlrTkmHWPZNaWnpzh07iWxx3dp1YrHYZDGHWPbN+vUbtFotkS3KZLLNmzabLOYQy47JzMzMuZlDfLunTp0uL69AL+MQy47Zu2cfKe0aDIZ9e0007RDLXqmsrLp58yZZrZ8/f14mk6EUcIhlr5w17+0MEmq1+tKlSygFHGLZK+np6eQGkHY1DeVTh1h2iVQqLSkpITeGmzdzUKZtHGLZJUVFxaTPxcnl8urqamOfOsSySyorTLztEwPKnLcj5x1odCqtTqM36GhUOpvBQWbfLE0/IhihUEh2CPcRNhgN46kQS6VpbWipapBWiuW1Ynlds0LYohC3KJsUmhaFRm4w6JFiQ7qnvBQ39/6DpvTWomUznNgcDofH5wlc+e7uAk8Pd29vrwBf70A/nyBnJ3xWHGCmBfVVnzCkLS3GPnoyxZKrmstF+RWNBffEd+5JiprkdZbWYDAYWhWyVoVM2Fj76Kee7t7Bgd3Cgnt0DY3sHh7jwhPgFLi56IidxjGGXq839tGTI5ZCLbtTl3W3Pru4/nptcynUtoSiOqGoLutGKvKffj7BUT3iYyL79o7ux+O6Qm0agWbdEhq8oFAoxj6yifisQSSryam6kHcvtVSYpzfoSImhura8urb85LkDFAqlW1h0QmxyYvzQAL9QeC1yOBx4lZsPl2s0DHsVq1nRmF1+6lr5ySrxHbJjeYjBYLhTnHunOHfnvnWB/mGDEkcPSXrGy9MP94Y8PTxwrxMDnh6exj6yM7F0eu2t6stXi/8trE1v73TbJpX3Sv488POfB36O6hE/euiE/gnDmQwLFiOgExAYiFdV1uAfEGDsI7sRq0XZdKXo78tFfzUrGsmOxTJuFV67VXiNt4M/auiEcSNSPD28ra8zPLwrHqFZBYvFCgy0Z7GELffOFvyRUXpMq1eTHQt2WmTNBw9v/fvojkGJoyaMnxUS1M2a2gQCQVBQUAWpw6TR0VEo66RtWqwGaeXxvC3ZFadt/KlnPnq97uLV4xevHu8XN2TKhLfCgrtjrqpfYj9yxeqXmIjyqY2KJVU0HsnZmFF6jKwXPdhkZF/IyL7Qv+/wVye/5+8bgqGGYcOGmcy2gweVSk1OHoxSwObEUmuV5wp3nynYodIqyI4FOmlZZzOyL4wZ9tLUie+48CwbAAsP79q9e/fbt29Diw6NAQMGuLu7oxSwrRkxsbxu+eGUo7kbnwarEPR63bEz+96a/9zxM/tRBrIfy6DBg6DFZYKUlMnoBWxLLDeOtyfPn+woSEAml/6ydcVHX86sqCo28ys5N3MIXvjVTmJiYmTPSPQytiCWPlf8q0Td9g86JeEjOpVBdkjkcKcod+6SKfsObdLpTPQsc27mLF68RKlUEhXaQxgMxtvvvGWyGMlitWgqD1U8c6l+/qW6BchPPF0Ch/eYRm5UJKLVaf/Yv+HU+b9QypBoFQDgtdmv+fubfqqQKVZR84E9pYnVrakAgEr56RLpP8jPR0XNdOP4kBgYubwwbvrYEZOMfUquVYmJ/SZNmmhOSXLE0uqVF2o/PFUzQ61vbv/h5fpFGn0rAIBJZyN5UU8hL4yb/tq0ecY+JdeqkJCQxUsWo2Q0dIQEsWSa6r8rRuVLOi/TlmnvZTeuQq5jAgZH+g4gPjZysWWr/AP8v129yvysCqLFqlNk7C9LalBmP/bTG+I1Taq7yPXE+Hl0KpPY6MjElq2KiIj46acf3dzczP8KoWIVNe8/VDG2VddgrIDeoLlUPx+59uT5j4x8lcDoyMSWrRozZsxPP/0oEFiWJUucWDdEa07VzNIZVOjFquTniqVt70Qjo6a7PwW9eJu1ylXg+vmyzxcuWsBkWfzoIEisRmVeWsNSAMxaCne5/iONXgYAYNBYE+Pnw4+OTOBZxXgAtqicnNhTp768Y8f2wVgH9wkSy4MdPdJ3CwWYtRu9XFtzrfEb5DrKPynKLwlydKQBzyomk7l8xVe7dv85ffp0Hx8L7vqBQYGvv/H67j27Z/9vtjUJ0HAnofV6fUNjjXcXfwBAOH8SAOB0zWwDMJ2wcFO0PoL/ihurOwDgpbi5d+qyNDoTz1C7A6pVXy3/Mj4+HgAwY+b0GTOnFxUVXbuWXVhQWFJSIhQKO47s0+l0Ly+vsK5hkZGRffvGBwcHY/0f+g9wxfpl64qrmWeWL/4tJCjCIrf0QJNaN++FoGP373Y8v5E9ZxzL/Q1qqARDjFXthD8Audbr9c3NUrVKBSiAzWbzeDwYq3MhPgo371x98tzBFlnzpyvfKKtoW/IQzp9k5jOxuvXi3eb9yPWIyFc8uPgvSSALgq3qBJVKFQhcvby9vLy8+Hw+pDXfsMTae2jTvyf+RK4xu3Wl4WO1vuVBL575xPTi4VnFZrOXL/8K3SrCgCLWmQuH/ty/oeNPsLnVqq3LEq5Ernv6DYjxR0tZtAugWrVy5Yq4+DjrAsQN/MXKuZWxYctXj/4cm1u54p9FynzkekLcXAYNtxVUxAPbql69e1kXIJ7gLFZ1bcWqtQt1+sf3zTG4pQfa1Pq2X4Y712d01Ex8AyaMp8oqnMVqVciXf/+hTI528iIGt2paL99p3oNcD+8xzZNndC2bzfK0WYWzWGs2flZda/pEFwxuXW1YrNbd95VOY06yt178U2gVnmL9c2xnWpa5+/ha6lartj6zcTly3cM3sXfAUDxCJoKn0yrcxCouK9y+d61FX7HUrVzxr43KPOR6QtyHTBrbupCJ4Km1Ch+xlMrW79Z/rNVqLP2iRW4ZgC61bi4yjS3geI+OnmV14HAh0Sq1mpwEm47gINa23T/V1GFc622RW7WKtNuSXcj1sB5TvVyCsIYMHRKt2rlv/Y+/LsVQM75YK1ZufuaxM1Yt9LbIrasNS1Q6yf1ePJVhs2Px5Fq1/5/NVzJOX04/haF+HLFKLLVauX7zl9YHYb5bCp0wQ9g2+trdJ6FP4HDrW8cX0q1Crn/bsUomQxv3gY1VYu37Z0tdwz1c4jDfrVtNmxqVbWepTYj7kEU39/hrArARqwAAkmbR1t0/YmgIL7CLda+2/K8j23AMxUy3DEB34X4vXg8AcHXuMib6NRxjsAbbsQrhzMVDd4rzMDSHC9jF+v2P7zC8CaJjplv1ioxCSVvqxNDuL3vz8clNswZbswrZEHXjtq/J2loMo1jXc69eu3kZ72CA+W5dbfhUqWsCANCo9EnxC2BEYj42aBVCcVnBhcvHMLRrPVjE0uv123ZBfH6b45ZS15gh/AK57uYdHxc0El486NisVQg79q1Ta0jI6sYi1qW0E+VVRRCCeYg5buU3bWlQ3ECuX4z7gEV3hhrSY7FxqwAAInH9sdMkbPxnsVg6nXbXwV/gBPMfTLplAPqLdXMMD3rxfCfPcTH/IyCqjti+VQgHD/+uVBG9kZ3FYqWmnaitr4ITTGdMutWgvFbYtAO5To6Y7MOHeBhEJ+zFKgBAs7TpOOE3LcvE0uv1B/79HVowj8GkW2nCpUqdGOnFT+67kJio7MgqhEPHd6o1hG5mbplY126kVlXDPf/oUdDdUurE6Q2fI9ddvfrEB4+GHY/dWQUAaJI0nr98BMMXMUOx6ATYJStezyvIghmPUXhcfvv6RGR/kQ7rE6kTg897OcU/2Mdb9NXhyUqN3ERtbEGgW6SPa6gnz1/g7MVlu7LoHA6Lz2G5AABkMunVrLN1DVUVVcUlZYViycPjHu3RKoQA39D13x40c3cr67FArLLKux9+YmKvXKiguOXJjp0UcgG5jV24vedg9k+Pfp1KoYZ7xUX7D+ru08+izIja+qrc/MyM6xcC/cJmvjzHWDFbtgrhi49/6RPd38pKzMQCsX7ZuvK4dYkM1oPiVrL3mijB/x4c5KT79vj0GsnDQ949uH4Dw1/sFzqOx7ZghyeLsH2rAACJ8cMWz/3B+nrMwVyxlMrWme+NbFWYeMQQgDG3WDTBtNCbTnQPAEBJQ85Pp98EAPi6ho2Nnh0TMIRKgbjm2y6suv9+Q6P9vvakwJWII+loy5YtM6dcatqJS+kn4cdjGrVadSXjdGzMAOQfyJ3d05XZtbTlsNbQqtQ3hfCeQfaL1+hUSeETJics9OGHQu1Y2ItVyOwh30UQGdEHrwpRMPfvmOB3CnSMvScWSnbUKTKRHz7f592+IWMokPdpsiOrEAj7PZr17y5uEubmZ8IPxgKMuEXNEn5NWAx2ZxVyPGdZ5V3cq30Us8S6mnXWolEJYnjUrWcCDgz3/ZWY1u3RKoQrhGQtmyVWWuYZ+JFgoZNbQdxRznQvAtq1X6uQ2wS8ytsxLVaLTJp/5zoBoWADcatRVEdYi3ZtFQDgXk1ZTS30EzRN7+h3I/eKpcedEUxC3BAPdywHLcvl8uLiksrKSmFDg1wu12i0dAadw+F08fQMCAzs2jWMy+V2+oq9W4VwLefycz5wF8+ZFis79yrUCKykb5/B783+zKKvVFdXnz1zLiMj/c6duyh9RwqFEh4e3q9fwvDhwwMenKr9ZFiFJAA/NwbuSVimB0hnvTdK1GR0y39yCQoIX/3FDjbL3IU62dey9+7dm51t8ZO9V+9eAwYM2Pr71ifAKgAAi8ne9VsqgwHx4A8Td6zq2gqbtcqJ7fzJnO/NtKqsrHzDhg03rt/A1lbOzZycmznYvmtrVgEAVGplUemtyIhYeE2YECv/9uMPvbEF/vfqIl/vQJPF9Hr9nt17tm/fodVqCYnrP9igVQj5t2+QKdad4lx4bVtD76jEkUNeMFlMJpOtWL4iM5OcVB+btQoAUHj3JtT6TYpF2opHFOg0+puzPjFZTCQSLVr4UXm56b3gYGDLVgEAikvzodaPNo6lUivv1ZRBbR4bY0dM9vM28bYskUjmz1vgsMoYEqm4UVQPr340sSqqimxwBIvJYE16fjZ6GbVa/emSpVVVBC366ITtW4VQUl4Ir3I0scor4S4exMaI5Odd+e7oZTas31BYCPFfDQV7sQoAUFldAq9yNLHM2amWeJ4Z9TJ6gbSraUeOHCUqnP9gR1YBAO5VQ+znoIl1rwb6jJKldAuLDvALQSmgVCrXrLFsN1S8sC+rkElDeJWjiVUvxGfvKxwZOmg8eoEDBw4KhUKiwnkIi8VCtyrnVrpNWQUAwGtvs8eCJlZDYw28hrHRL3YIyqcKheLA/gMEhvMQCoUSGoa2DjssJJJGNescUMJokTUroC1iMCqWTC5VKole8I9OcEC4hztautWZ02daWloIjOghSqXy6BG0DYO4HJeI8BgCIzILePN1RsVqkoggNYmZqEgTB6adPEnmjq6nTploPaq7rRzN1Y64qRFSzUbFkjTbnFjhoVEonwqFjWQNMSBUPAClgA3esZqlYkg1GxWrRdYMqUnMhAV3R/n0+nXy58uvXUOLoX0tpO0A77dsVKxWhQxSk9igUCg+Xv4oBQryCwgM5/EUFqDF4OHmxWLZ1kkt8lZYXVKjk9AKJfmLnjviJujCYKCdgllaSv60ZkmJia14BvcfJxITl55vEjeBJ6SajYqlUpF/HktHeFwX9AK1tbVExWKU+noT07rvv25ZFrX9YvRRqMF7q20rcWJzUD41GAzNzeR3ClUqlVxuW3d6sjB6x6JSqFBzoi2Fx+WjfKrRaGwkEUOpVHI4Rv8G1FqlTm9Df7E0KoNJh9LtMypWyouvp7z4Oowmn2b2ZH6TVXaC7CgekhQ+ISVhEYya4e6ZQRhMJpNGs4kJEzYb7Qag0tjWZAadxoBU8xMiFgDA1dWV7BAAi8VCeQ7ef1Ca2sOSYGgU0wtLsWG03iLpwRzxOkitYoBJdXku8F+UAr6+PiIRybMF3t4mFmTLVBKiYjELBg1tBMcajIql0cvqFeQsbjGGRi9nUI3eD0JDQ/PybhEbUWfCwsLQC4hk1UTFYhZsBtr91RqMPgpZVPKfLJ1oUqFt7BTZsyeBsRiLIRLlU6lCpNLaVh/LiXix2DRY+8BiplGFtsgxLi6WsL2mjREfj5a/UCW+TWAsZsFhw7p9GBXLiQ5rsB8zda1ouwoKBIKYGDLTB0JDQwMCAlAKlIvIn83sBI8tgFSzUbE4dCwbA0GluvUieoHRY6AfS4HCqNEmjrYrqrtGVCzmwmObWO+EGeN9LJornQLrAYwNqaYMvZs1dOgQNzdynuDOzs7jxo5DKdCqbilrJPnd4hEoAmdYGyCijWO5MOHuzYWBkpZDKJ8ymcwpU1IIDOchEya8yOGi/R3eundZb9ARGJFpXJzcyBkgdWGgLbQihbvNe9ELPPf8c37+fkSF04abm1uKKaEzy44TFY65eHDR8tusBE0sAbMbvIax0aS+XdOKtsMgg8GYN3cuwa+HH875wNkZ7XxXsbzubr3NdbAsOlDIUtDEcmOhpQKTRY54PXqB3n16T06ZRFQ4YOy4sUlJSehlUu8eIOs0eRS8XEzvLoYZdLF6wGsYG67McOQkJnRmz54dhzqkhBcREREffPA+eplWtfRK0d8EBGMpvq5d4VWOLlZPqhm73xIDneKc6LlsSmhmAGeYycI0Gu3zzz/rFgH3Ue7v779y5Qom00TW2pmCP2xt7hnBXwDx3wdNLDqV7cZCm6MgjFDec1PDrsd5LKRR2n6LOr2JfR85HM63365Cn2OxhuCQ4B9/+sFVYGLkWiyvvXB7D6QYrIHv5Mlzgjg0YyJtposTyWss+cywZwMOjfXfzWO0DWor1LL9177//uT/TLrF4/G++2710GFDcY+qX7+EtWvXmDNmtj/rB42O0MOYzSTEE22RpvWYeNL5OPUvkGyFGoEx6BSnWI+FsW5zaNT21A5DZunxQzfWtyjFAIDTBTvHRM1Cr4TFYn366ZJevWI2/rpRocBheQiDwZg1a+akyZOoVNOpbFllJ25VX7K+URgEe0RDrd+UWM4DoDZvjBDuM0neq10YD9+HayTF+zJXlwgf7ol9PHdzd++EYA/TSQ3PPvtsQkLCr79uTL2Yak1UCQkJ77z7NvqEYDsiWc2+rO+saQ4qXbv0hlq/6QMEthdFyLTE7Wfkwggd5L06mDum/SdKjfxozqbUu/sfHbkWOHstGruda/YUfVFR0Z7dey5duqzTWTAITqFQEvsnpqRMjo42969crVX+eOqNe01EHOCGATaDs2rSKSoFYjK3abHO1b5bKNkGL4J2aBR2rPv8WPd5dOrDtPGsshOHbqyTKoymhoZ16fXesPUWTU00NUkuXriQlpael5enUqmMFWMymZGRkYn9E4cMSfb0tCDXQ6fXbUn9JK/aqrsjVKL9B72RvBpqE6bFKpb+dbL6VahBPDgRbsxgr+9cmA8nkWqbS/dlri5uMH2WRO+AYbMGLcdw6rNOp6uoqKisrBIKhS1SqU6vp1KpPB7Pw8MjICAgODiIwcAylbYrfWVaCVoWNemkJHyUFP4i1CZMD1MFcoZTKQy9AdZqOB4jaJDXauQsZwSlRn48d8uFO3vNnLUta8yVKhpdnbtY2jSNRgt9gKVfRKFV3WLOHwO59PSF3nU2/VfOpPF9nQbCaJtGYcW7fzQ1NLujVdnlp5cfnnLu9i4zreI7eXww4mcMVkHCmcn7YMTPnjyzOvikECCIEHCgHxdqQiw90Cp1TWEupg8XsZRAzqiXQ7P6dfmMTm07ZamuuXztmfe2XVnarDB3E1HEqi7/P+d14cpRIYEnYnZE3CQ8faFt3sbV2dOW3eodiP/A3qOYEIsK6GyaIMzlBQrA7Q2CxwgY47/72cC/+cy2NS0qTes/N9Z/c+yVIktSADpZdfjk7h9+XjJ3yZSsGyT0mnfuW79u0xd7/96E/Kctu9UnaDgBrdCWLVtmshCDyqlTZDZrrN1vnkphxrrPHeW304P9cNj3RuW5jRcXFNSkWTT//6hVm3asQo5pSb16XNRUHxkRy2TCWjT3KKHB3U+eO3gjL41KpUX1iENe6XsFDL1VfblVLSUsDJMEufcc2RP6q5i5Yj24ddHQszdNEsAZPj7gQFeXl2iUtletBmnltstLTxfssHSO1phV7ZSU3z6b+g/HmRcSFAEpN0sPdAWS7TdEP3R1eREACseZByggNz8zryDLlt0a1XN6kBlDytZjergBQatXbisKU+mxLOTl0v0Hen3z4BfQhlqrOHFr27nCXRi2XjFpVTveXv4bv/+XYvkwBDo6g7qoeX+2aLVEXQQAGOG7OYL/MrLx0/sfTaypqwAATJv4bvuWKpJW4doz7whbyDnYpyN0GnPFi4edWWj79uCFuf/odCo7gm/xKcJUCiPWfd7UsOsdrcqpurD88JTT+duhWgUAGDN8EmKVQivMFC5HPLCGZnVphvCrHcU9zta+0V7blfrFKl3z/Q4DnfHmjI+RH/55YIMN9rf6BA4nxioL7ljIQuRdpX3Mr9rfechg7x8ErIc7ugqlVfuvfV9Ym255nMBSqxgM5rb1p3hcVwBAduN36cLPAQCe7D6hvGf9nYd0cYqjmrcfht6gaVBcr5KfL5MdESofP0AVI3h7kHfbtOA3axZczTyDXNvafWvuqN9CPQlaemmBWPd/l5UvVMpPmyzGofsO7PJ1OH9i+0/UWuWp/B1nC/7Q6jHmkFhkFQBgaNL4uW8vBwAYgG5ncXSL5j8bZdMpzu6sSHd2tAsjmMvwY9M8GFQnKoWpN2i1erlC1yjT1Eg1pSJVfqMyT2cwkRZBAbTJIZc92Pd/Z0JR3bsLX1Sq2pbS245bge6RC8f8TlhzlolVKTt7uOo5lAJUQI9xe7ev52Imldv+w7x7lw5c+0Esx75HqKVWAQBWf7Ejouv933R5y/Gj9yZibtpMvJ0SXwo+c98xAA78+/uOvQ8PirIRt2YM/CI+mLgFvZZ1bAO5wz1YRu+lfs6DUkLTB3qtbLeqseXer+fn/XZxIcFWhQZ3R6wCANySbMLctPnUKdJvS/5Erl8Y96q/78NJT1vob7lxfPoEEjF81Y7Fb0xxHo/ZWdCZ7j3S9/cXgk60r7/Q6FTHcjevODo1vwZttZZJMFgFABg7vG2VjlRdUSkz/ezGhasNn6p099+a6R168QikuzWy53QaldDlCxaLFebyvBvr4UAIBdB6ub03LfRGN/7DFZu37l1ZceTl43mbtdZl5WKzytmJmzywbbV7vmSLARC07kqhE2YIv0Cue0X1S0oc1fFTEt1yde6SGPoMMW21Y7FYFEBN8PgUufZxHpgScjXJaxWT1rYJu0hW89uFhRsvzhfJrD2SDptVAIBhg8azWU4PBpxUBZLtVoZhEbeatgiVN5Hr2a8scGL/ZxUrWW6NjZ5NpxG9ATaWwcMwl+dCuM+M8N00Ieik+/9Pzmh06hN5W1cceTkPjyxvzFYhZ9wjFyXSQ0odrNOtHosB6C7WzUHuke6CLlMmvNmpAPFuefIC+hF+u8K+ue24gH0R/KnISxAAoKAm7eujU4/mbtTojCZkmo81VkX1iA/wa8uvutVERLe9E/WKrELJTuT62dHTAvw7bx5JsFsv9HmP4N4VgrXTHWJ53abUj345P1fYgk9evDVW3Td+RFu3XaS8VatIwyUkS0lrWKrUiR/04ulvzfjk0QKEuRXuFRcTkAyjZpNYJdb5wt0rDk/JrTKxH5r5WGmVgO+eGN+2TpqU2xWCUidKb2ib2o+OjE8eMPbRMgS4RaXQJsbNxbdOC1q35st6g16tw+0sJyutuv9SPXQCnc4AAKj1LXekZK4/LpBsbVBcR65fmzbfyekxW2fBdmtI9xRfAcTdGdCxSqwh3VP8cFr/b71VVCp19LAJyPVdyR6NnszzFg1A396LF7h6TH3p7ccWg+eWwNlrXLTp3VPgYZVYNCp9WuIS65enWW8VAKBvn8Ge7j7INTGj7eg0KLMLmtqWzY0fNSUoIPyxxSC5NaXfRywG2pZdsLG28x7gFjGy53RrasDFqo6jDDWtV0WqfGtCwos04ecKrejBciD6WzMf04tHwN2txLBnI+Gvw0EHhyS4sdGz/d0wnnaMl1XeXv59ohORaxK77Z1Q6cTpwraTL3t2jx2aZHQ8CUe33Dm+L8XNwfZdHMFBLBqVPnPAlxiOvcPLqk45fVamUONLgWR7+8kxs6bOc3bmGiuJi1tUCm1m0pfwDjKxIBJcavHiB02Mn2/RV3C0isFgjkx+HrkukGzXG2xq2yDDg1687r4ufPdpE99BKWq9W+N7vRnsAXd/IjPBLR+8f9iz5k8d4GgVACCp3ygkU9QAdPkS4nLZzESovJnf1BbVuBEpIUFo3QZr3Ir2GzSCkBU45oDnQoPJfRcFmNHZwteq+7+tkW3d9oqWU50yRW2E9IZlCq0QWdSP0otHwOaWJ9f/1QGfUQDJpwm1g6dYTDrr9cGr0I9nwd0q4nP6MKDSS9IaliLXPbr1Hj4YLQsXg1tODO4bQ75zYvLwC9lacF4aJeB4v5682liSBu5WkZXTh4HC5j9qFRnI9cyX53A4JiQw3y0qhToraYU3PxjvkK0C/6N7QzyiZgxY9ug9GYZVZOX0YcKQWjtH/6AXz3dxe2XSuya/YKZbKQkf9/DtByFgq4ByJnTvwGEvxc/r+BMYVpGb04eBRlXuLXGbKGOHTwoLNn0+g0m3xkW/PqCriQcrKcA6bDw5YlL7XBUkq8jN6cNGhvDLVm3Dg5lN2luzlpiz/B/FreSIlLExsyGHjBFz927AQLhXrFqnFMtqIFkV1SN+wvgZyPXFujlEbpSKGZ1BpdAJQ3n37zEebl6NovrSctPHrj52P4jeAUNSEh6zsMVGsGxdIQZalGIeu20/dBytAgAsen9VUuJoJKdvT5nNdTJQmBB0GtmOWtoieXvB8y2yZnO+1XF9okwpcWa5YNgdkzCgRwbJKhvJ6cPGxbo5eqAFALjwXF+Z/J6Z3+r4TOSyXW3ZKiLEQiituLNpx7c4Vmg7OX0YEKny80QbkevRQ1/qGmruvkJ/HtiQV5AFMzTcIEis0KCID99YRqPhk9VvUzl92MhsXC7X1iH/L2/P/MS8Tbwos19ZEB3Zl4DwrIe42+nw5Oc/W7DO2cno9L752FpOHwbUeunV+sXIdXhY1KihE9DLM5msRe+ven7sK4REhwOEPqf7xPT/dtl27y7Wnhhrgzl9GLgr3Vvd2rYGc3rKBy48o+druLl6rlyyudPSahuH6A5goH/Y91/92Tu6P+YabDOnDxuptXORDfR5XP70lA8eWyaia8wPy3d16wr3TCXcIeHNgsflL1u0YcqEN7HtDmqzOX0YEKsLc8S/INcjkl/oFtY5lWr86JdXLt3iJrDgwBUbgZxXViqVOvWlt7/8+FeBq4dFX7TtnD4sZDWulGtq2nrxs5a075jK5fA//vC7N6Z/xKBjOXaFdMgcC+kV1W/t1/vbh6PMwcZz+jCg0bdcaWjL0AoL6TFm+EQAQO+oxHXf7BuQMILs6LADfeTdHM5fPrJ552pzBqC/Xba9e3gvwvbpI4znA4/5c5IBADK5NO3auZHJ+B8FQjA2IRYAoEnSuGnn6svpJ1HKhARFrFm5F7k+UjWhQoZW2L4QMCNSQtPbT7x+ArCVaQGBq8ei91ctW/Szr3eQsTLtoww2ntOHAa1Baf1u4TaFrYiFENtrwLpVB2ZNncdx7pxg6ezEHfL/u2vYfE6fBTCp/AFdVkwLu+HOIuLACMKwlUdhJ1paJPv+3XL89D61pm3DrfGjprzxYGNPnUG1raibXWRfoUOlMHq6vtbXY7ET3bJXY7vARsVCEDcJDx7eevL8QbVateHbv5Ad1e427z1d8xrZoVkFlcLowX81zmMhjxFIdiywsGmxEJql4ozrF0YNaZtN+6t8BFk7qlkPg8qNdJ3V2+19LsOP7FjgYgdidUSsKtxdGk92FFhwYYREC97s4TqdRSPoNBtysTOxAAC1remFku3FLX/ZRbYMlcIM5Y2PdJ3pzxlKsbFXJajYn1gIGr28RPp3kfRglfyc4UE2pk1BAVRf56Rw/uSuvBdZNKNpC08w9ipWO0qduFx2orzlaJX8nFpP8nmTDCrHzzk5hDcuhDveiW5/M8c4YvditaM3aOsUGdXy1OrW1HpFltagIKZdKoXhxY735Qzyd072ce5PoxB3XrAt8+SI1RG9QdOozGtQZguVOSJlnlhdqNFbdjowCjSKk4AZ7s6O9mTHdGHHe7J706kW7w32xPNkivUIepmmRqIuaVaXyjT35NqaVl2DQitU6SVqnVSjl+sMyvahfBqFSQF0BpXDorkyqXw2zY3D8OHQfLgMPz4zlM/symX4PlXdcGw8JWI5IBrHX54DKDjEcgAFh1gOoOAQywEUHGI5gIJDLAdQcIjlAAr/FwAA///QJMTtZbTgfAAAAABJRU5ErkJggg==;fontFamily=Comic Sans MS;" parent="1" vertex="1">
          <mxGeometry x="49.75" y="201" width="70" height="70" as="geometry" />
        </mxCell>
        <mxCell id="46PyPGDRxOmanTsBk1Ec-6" value="API Specification" style="text;html=1;strokeColor=none;fillColor=none;align=center;verticalAlign=middle;whiteSpace=wrap;rounded=0;fontFamily=Comic Sans MS;" parent="1" vertex="1">
          <mxGeometry x="119.75" y="265.5" width="110" height="30" as="geometry" />
        </mxCell>
        <mxCell id="46PyPGDRxOmanTsBk1Ec-7" value="" style="sketch=0;aspect=fixed;pointerEvents=1;shadow=0;dashed=0;html=1;strokeColor=none;labelPosition=center;verticalLabelPosition=bottom;verticalAlign=top;align=center;fillColor=#00188D;shape=mxgraph.azure.code_file;fontFamily=Comic Sans MS;" parent="1" vertex="1">
          <mxGeometry x="151.25" y="215.5" width="47" height="50" as="geometry" />
        </mxCell>
        <mxCell id="46PyPGDRxOmanTsBk1Ec-11" value="" style="aspect=fixed;perimeter=ellipsePerimeter;html=1;align=center;shadow=0;dashed=0;spacingTop=3;image;image=img/lib/active_directory/generic_server.svg;fontFamily=Comic Sans MS;" parent="1" vertex="1">
          <mxGeometry x="440" y="370" width="28.000000000000004" height="50" as="geometry" />
        </mxCell>
        <mxCell id="46PyPGDRxOmanTsBk1Ec-12" value="" style="aspect=fixed;perimeter=ellipsePerimeter;html=1;align=center;shadow=0;dashed=0;spacingTop=3;image;image=img/lib/active_directory/generic_server.svg;fontFamily=Comic Sans MS;" parent="1" vertex="1">
          <mxGeometry x="480" y="370" width="28.000000000000004" height="50" as="geometry" />
        </mxCell>
        <mxCell id="46PyPGDRxOmanTsBk1Ec-13" value="" style="aspect=fixed;perimeter=ellipsePerimeter;html=1;align=center;shadow=0;dashed=0;spacingTop=3;image;image=img/lib/active_directory/generic_server.svg;fontFamily=Comic Sans MS;" parent="1" vertex="1">
          <mxGeometry x="520" y="370" width="28.000000000000004" height="50" as="geometry" />
        </mxCell>
        <mxCell id="46PyPGDRxOmanTsBk1Ec-14" value="" style="aspect=fixed;perimeter=ellipsePerimeter;html=1;align=center;shadow=0;dashed=0;spacingTop=3;image;image=img/lib/active_directory/generic_server.svg;fontFamily=Comic Sans MS;" parent="1" vertex="1">
          <mxGeometry x="560" y="370" width="28.000000000000004" height="50" as="geometry" />
        </mxCell>
        <mxCell id="46PyPGDRxOmanTsBk1Ec-15" value="" style="shape=hexagon;perimeter=hexagonPerimeter2;whiteSpace=wrap;html=1;fixedSize=1;fillColor=#bac8d3;strokeColor=#23445d;fontFamily=Comic Sans MS;" parent="1" vertex="1">
          <mxGeometry x="419" y="180" width="182" height="115" as="geometry" />
        </mxCell>
        <mxCell id="46PyPGDRxOmanTsBk1Ec-16" value="" style="shape=cylinder3;whiteSpace=wrap;html=1;boundedLbl=1;backgroundOutline=1;size=15;fillColor=#fad7ac;strokeColor=#b46504;fontFamily=Comic Sans MS;" parent="1" vertex="1">
          <mxGeometry x="640" y="175" width="40" height="50" as="geometry" />
        </mxCell>
        <mxCell id="46PyPGDRxOmanTsBk1Ec-17" value="" style="html=1;rounded=0;fontFamily=Comic Sans MS;fillColor=#ffff88;strokeColor=#36393d;" parent="1" vertex="1">
          <mxGeometry x="580" y="185" width="30" height="30" as="geometry" />
        </mxCell>
        <mxCell id="46PyPGDRxOmanTsBk1Ec-18" value="" style="endArrow=none;html=1;rounded=0;align=center;verticalAlign=top;endFill=0;labelBackgroundColor=none;endSize=2;fontFamily=Comic Sans MS;" parent="1" source="46PyPGDRxOmanTsBk1Ec-17" target="46PyPGDRxOmanTsBk1Ec-19" edge="1">
          <mxGeometry relative="1" as="geometry" />
        </mxCell>
        <mxCell id="46PyPGDRxOmanTsBk1Ec-19" value="" style="ellipse;html=1;fontSize=11;align=center;fillColor=none;points=[];aspect=fixed;resizable=0;verticalAlign=bottom;labelPosition=center;verticalLabelPosition=top;flipH=1;fontFamily=Comic Sans MS;" parent="1" vertex="1">
          <mxGeometry x="632" y="196" width="8" height="8" as="geometry" />
        </mxCell>
        <mxCell id="46PyPGDRxOmanTsBk1Ec-20" value="Service API" style="rounded=0;whiteSpace=wrap;html=1;fillColor=#f8cecc;strokeColor=#b85450;fontFamily=Comic Sans MS;" parent="1" vertex="1">
          <mxGeometry x="288" y="245" width="92" height="40" as="geometry" />
        </mxCell>
        <mxCell id="46PyPGDRxOmanTsBk1Ec-21" value="" style="html=1;rounded=0;fontFamily=Comic Sans MS;fillColor=#ffff88;strokeColor=#36393d;" parent="1" vertex="1">
          <mxGeometry x="410" y="250" width="30" height="30" as="geometry" />
        </mxCell>
        <mxCell id="46PyPGDRxOmanTsBk1Ec-22" value="" style="endArrow=none;html=1;rounded=0;align=center;verticalAlign=top;endFill=0;labelBackgroundColor=none;endSize=2;startArrow=none;fontFamily=Comic Sans MS;" parent="1" source="46PyPGDRxOmanTsBk1Ec-23" edge="1">
          <mxGeometry relative="1" as="geometry">
            <mxPoint x="390" y="265" as="targetPoint" />
          </mxGeometry>
        </mxCell>
        <mxCell id="46PyPGDRxOmanTsBk1Ec-23" value="" style="ellipse;html=1;fontSize=11;align=center;fillColor=none;points=[];aspect=fixed;resizable=0;verticalAlign=bottom;labelPosition=center;verticalLabelPosition=top;flipH=1;fontFamily=Comic Sans MS;" parent="1" vertex="1">
          <mxGeometry x="380" y="261" width="8" height="8" as="geometry" />
        </mxCell>
        <mxCell id="46PyPGDRxOmanTsBk1Ec-24" value="" style="endArrow=none;html=1;rounded=0;align=center;verticalAlign=top;endFill=0;labelBackgroundColor=none;endSize=2;fontFamily=Comic Sans MS;" parent="1" source="46PyPGDRxOmanTsBk1Ec-21" target="46PyPGDRxOmanTsBk1Ec-23" edge="1">
          <mxGeometry relative="1" as="geometry">
            <mxPoint x="410" y="265" as="sourcePoint" />
            <mxPoint x="390" y="265" as="targetPoint" />
          </mxGeometry>
        </mxCell>
        <mxCell id="46PyPGDRxOmanTsBk1Ec-25" value="" style="sketch=0;outlineConnect=0;fontColor=#232F3E;gradientColor=none;fillColor=#067F68;strokeColor=none;dashed=0;verticalLabelPosition=bottom;verticalAlign=top;align=center;html=1;fontSize=12;fontStyle=0;aspect=fixed;shape=mxgraph.aws4.agent2;fontFamily=Comic Sans MS;" parent="1" vertex="1">
          <mxGeometry x="440" y="245" width="39" height="39" as="geometry" />
        </mxCell>
        <mxCell id="46PyPGDRxOmanTsBk1Ec-26" value="" style="sketch=0;outlineConnect=0;fontColor=#232F3E;gradientColor=none;fillColor=#067F68;strokeColor=none;dashed=0;verticalLabelPosition=bottom;verticalAlign=top;align=center;html=1;fontSize=12;fontStyle=0;aspect=fixed;shape=mxgraph.aws4.agent2;fontFamily=Comic Sans MS;" parent="1" vertex="1">
          <mxGeometry x="541" y="180" width="39" height="39" as="geometry" />
        </mxCell>
        <mxCell id="46PyPGDRxOmanTsBk1Ec-27" value="DTO" style="text;html=1;strokeColor=#82b366;fillColor=#d5e8d4;align=center;verticalAlign=middle;whiteSpace=wrap;rounded=0;fontFamily=Comic Sans MS;" parent="1" vertex="1">
          <mxGeometry x="479" y="254" width="41" height="30" as="geometry" />
        </mxCell>
        <mxCell id="46PyPGDRxOmanTsBk1Ec-28" value="DTO" style="text;html=1;strokeColor=#82b366;fillColor=#d5e8d4;align=center;verticalAlign=middle;whiteSpace=wrap;rounded=0;fontFamily=Comic Sans MS;" parent="1" vertex="1">
          <mxGeometry x="500" y="184.5" width="41" height="30" as="geometry" />
        </mxCell>
        <mxCell id="46PyPGDRxOmanTsBk1Ec-29" value="Service" style="text;html=1;strokeColor=#9673a6;fillColor=#e1d5e7;align=center;verticalAlign=middle;whiteSpace=wrap;rounded=0;fontFamily=Comic Sans MS;" parent="1" vertex="1">
          <mxGeometry x="473.5" y="219" width="66.5" height="30" as="geometry" />
        </mxCell>
        <mxCell id="46PyPGDRxOmanTsBk1Ec-30" value="Heroku" style="text;html=1;strokeColor=none;fillColor=none;align=center;verticalAlign=middle;whiteSpace=wrap;rounded=0;fontFamily=Comic Sans MS;" parent="1" vertex="1">
          <mxGeometry x="460" y="340" width="110" height="30" as="geometry" />
        </mxCell>
        <mxCell id="46PyPGDRxOmanTsBk1Ec-31" value="" style="shape=flexArrow;endArrow=classic;html=1;rounded=0;fillColor=#fff2cc;strokeColor=#d6b656;fontFamily=Comic Sans MS;" parent="1" edge="1">
          <mxGeometry width="50" height="50" relative="1" as="geometry">
            <mxPoint x="514.0999999999999" y="300" as="sourcePoint" />
            <mxPoint x="514.0999999999999" y="336" as="targetPoint" />
          </mxGeometry>
        </mxCell>
        <mxCell id="46PyPGDRxOmanTsBk1Ec-32" value="Deployment" style="text;html=1;strokeColor=none;fillColor=none;align=center;verticalAlign=middle;whiteSpace=wrap;rounded=0;fontFamily=Comic Sans MS;" parent="1" vertex="1">
          <mxGeometry x="540" y="302" width="66.5" height="30" as="geometry" />
        </mxCell>
        <mxCell id="46PyPGDRxOmanTsBk1Ec-34" value="Ports" style="text;html=1;strokeColor=#36393d;fillColor=#ffff88;align=center;verticalAlign=middle;whiteSpace=wrap;rounded=0;dashed=1;fontFamily=Comic Sans MS;" parent="1" vertex="1">
          <mxGeometry x="565" y="155" width="60" height="30" as="geometry" />
        </mxCell>
      </root>
    </mxGraphModel>
  </diagram>
  <diagram id="ZkaSYwNgj1nTE1HsXvok" name="jwt_python">
    <mxGraphModel dx="2148" dy="834" grid="1" gridSize="10" guides="1" tooltips="1" connect="1" arrows="1" fold="1" page="1" pageScale="1" pageWidth="850" pageHeight="1100" math="0" shadow="0">
      <root>
        <mxCell id="0" />
        <mxCell id="1" parent="0" />
        <mxCell id="zptN3kTYpkBEM_b_qXS6-1" value="" style="rounded=0;whiteSpace=wrap;html=1;fillColor=#f5f5f5;fontColor=#333333;strokeColor=#666666;fontFamily=Comic Sans MS;" vertex="1" parent="1">
          <mxGeometry x="-800" y="40" width="750" height="460" as="geometry" />
        </mxCell>
        <mxCell id="zptN3kTYpkBEM_b_qXS6-2" style="edgeStyle=orthogonalEdgeStyle;rounded=0;orthogonalLoop=1;jettySize=auto;html=1;entryX=1;entryY=0.5;entryDx=0;entryDy=0;fontColor=#B5739D;strokeWidth=3;strokeColor=#B5739D;fontFamily=Comic Sans MS;fontSize=14;" edge="1" parent="1" source="zptN3kTYpkBEM_b_qXS6-3" target="zptN3kTYpkBEM_b_qXS6-9">
          <mxGeometry relative="1" as="geometry">
            <mxPoint x="210" y="405" as="targetPoint" />
          </mxGeometry>
        </mxCell>
        <mxCell id="zptN3kTYpkBEM_b_qXS6-3" value="oblJ5wV9GqrhIDzNSzcClrpEQTMK8hZGzn1S707tDtQE__OCDsP9J2Wa70aBu&lt;br style=&quot;font-size: 14px;&quot;&gt;a6X81-zrvWBfzrcX--nSyT-A9uQxL5j3RHHycToqSVi87I9H6jgP4FEKH6ClwZfab&lt;br style=&quot;font-size: 14px;&quot;&gt;VwzNIy52Zs7zRdcSI4WRz1OpHoCM-2hNtZ67dMJQgBVIlrXcwKAeKQWP8Sx&lt;br style=&quot;font-size: 14px;&quot;&gt;SDgFbwnyRTZJt6zijRnCJQqV4KrK_M4pv2UQYqf9tQpj2uflTsVcZq6XsrFLAgqv&lt;br style=&quot;font-size: 14px;&quot;&gt;Ag-YsIarYw9d63rs4H_I2aB3_T_1dGPY6ic2R8WDT1_AXzi-crjoWq9A51SN-kM&lt;br style=&quot;font-size: 14px;&quot;&gt;aTLhE_v2MSBB3A0zrjbdC4ZvuszAqQ" style="text;strokeColor=#B5739D;fillColor=none;align=left;verticalAlign=middle;rounded=0;html=1;whiteSpace=wrap;fontColor=#B5739D;fontStyle=1;fontFamily=Comic Sans MS;fontSize=14;spacing=7;dashed=1;spacingTop=7;spacingLeft=7;spacingBottom=7;spacingRight=7;" vertex="1" parent="1">
          <mxGeometry x="-780" y="360" width="580" height="120" as="geometry" />
        </mxCell>
        <mxCell id="zptN3kTYpkBEM_b_qXS6-4" style="edgeStyle=orthogonalEdgeStyle;rounded=0;orthogonalLoop=1;jettySize=auto;html=1;entryX=1;entryY=0.5;entryDx=0;entryDy=0;fontColor=#B5739D;strokeWidth=3;strokeColor=#F57E07;startArrow=none;fontFamily=Comic Sans MS;fontSize=14;" edge="1" parent="1" source="zptN3kTYpkBEM_b_qXS6-10" target="zptN3kTYpkBEM_b_qXS6-7">
          <mxGeometry relative="1" as="geometry">
            <mxPoint x="-290" y="134.5" as="sourcePoint" />
            <mxPoint x="-460" y="175" as="targetPoint" />
            <Array as="points">
              <mxPoint x="-460" y="90" />
              <mxPoint x="-460" y="160" />
            </Array>
          </mxGeometry>
        </mxCell>
        <mxCell id="zptN3kTYpkBEM_b_qXS6-5" style="edgeStyle=orthogonalEdgeStyle;rounded=0;orthogonalLoop=1;jettySize=auto;html=1;fontColor=#B5739D;strokeWidth=3;strokeColor=#7EA6E0;exitX=0;exitY=0.5;exitDx=0;exitDy=0;entryX=1;entryY=0.75;entryDx=0;entryDy=0;fontFamily=Comic Sans MS;fontSize=14;" edge="1" parent="1" source="zptN3kTYpkBEM_b_qXS6-6" target="zptN3kTYpkBEM_b_qXS6-8">
          <mxGeometry relative="1" as="geometry">
            <mxPoint x="-359.07000000000005" y="269.5" as="sourcePoint" />
            <mxPoint x="-460" y="350" as="targetPoint" />
          </mxGeometry>
        </mxCell>
        <mxCell id="zptN3kTYpkBEM_b_qXS6-6" value="&lt;div style=&quot;font-size: 14px&quot;&gt;{&lt;/div&gt;&lt;div style=&quot;font-size: 14px&quot;&gt;&amp;nbsp; &quot;iss&quot;: &quot;https://auth.coffeemesh.io/&quot;,&lt;/div&gt;&lt;div style=&quot;font-size: 14px&quot;&gt;&amp;nbsp; &quot;sub&quot;: &quot;ec7bbccf-ca89-4af3-82ac-b41e4831a962&quot;,&lt;/div&gt;&lt;div style=&quot;font-size: 14px&quot;&gt;&amp;nbsp; &quot;aud&quot;: &quot;http://127.0.0.1:8000/orders&quot;,&lt;/div&gt;&lt;div style=&quot;font-size: 14px&quot;&gt;&amp;nbsp; &quot;iat&quot;: 1638228486.159881,&lt;/div&gt;&lt;div style=&quot;font-size: 14px&quot;&gt;&amp;nbsp; &quot;exp&quot;: 1638314886.159881,&lt;/div&gt;&lt;div style=&quot;font-size: 14px&quot;&gt;&amp;nbsp; &quot;scope&quot;: &quot;openid&quot;&lt;/div&gt;&lt;div style=&quot;font-size: 14px&quot;&gt;&lt;span style=&quot;font-size: 14px&quot;&gt;}&lt;/span&gt;&lt;/div&gt;" style="text;html=1;strokeColor=#7EA6E0;fillColor=none;align=left;verticalAlign=middle;whiteSpace=wrap;rounded=0;fontColor=#7EA6E0;fontFamily=Comic Sans MS;fontSize=14;spacingLeft=7;spacingBottom=7;spacingTop=7;spacing=7;dashed=1;spacingRight=7;" vertex="1" parent="1">
          <mxGeometry x="-440" y="170" width="370" height="160" as="geometry" />
        </mxCell>
        <mxCell id="zptN3kTYpkBEM_b_qXS6-7" value="Header" style="text;html=1;strokeColor=none;fillColor=#FFB570;align=center;verticalAlign=middle;whiteSpace=wrap;rounded=0;fontFamily=Comic Sans MS;fontSize=16;fontStyle=1" vertex="1" parent="1">
          <mxGeometry x="-760" y="130" width="240" height="60" as="geometry" />
        </mxCell>
        <mxCell id="zptN3kTYpkBEM_b_qXS6-8" value="Payload (claims)" style="text;html=1;strokeColor=none;fillColor=#7EA6E0;align=center;verticalAlign=middle;whiteSpace=wrap;rounded=0;fontFamily=Comic Sans MS;fontSize=16;fontStyle=1" vertex="1" parent="1">
          <mxGeometry x="-760" y="190" width="240" height="60" as="geometry" />
        </mxCell>
        <mxCell id="zptN3kTYpkBEM_b_qXS6-9" value="Signature" style="text;html=1;strokeColor=none;fillColor=#B5739D;align=center;verticalAlign=middle;whiteSpace=wrap;rounded=0;fontFamily=Comic Sans MS;fontSize=16;fontStyle=1" vertex="1" parent="1">
          <mxGeometry x="-760" y="250" width="240" height="60" as="geometry" />
        </mxCell>
        <mxCell id="zptN3kTYpkBEM_b_qXS6-10" value="&lt;div style=&quot;font-size: 14px;&quot;&gt;{&lt;/div&gt;&lt;div style=&quot;font-size: 14px;&quot;&gt;&amp;nbsp; &quot;typ&quot;: &quot;JWT&quot;,&lt;/div&gt;&lt;div style=&quot;font-size: 14px;&quot;&gt;&amp;nbsp; &quot;alg&quot;: &quot;RS256&quot;&lt;/div&gt;&lt;div style=&quot;font-size: 14px;&quot;&gt;}&lt;/div&gt;" style="text;html=1;strokeColor=#F57E07;fillColor=none;align=left;verticalAlign=middle;whiteSpace=wrap;rounded=0;fontColor=#F57E07;fontFamily=Comic Sans MS;fontSize=14;spacing=7;dashed=1;spacingLeft=7;spacingTop=7;spacingBottom=7;spacingRight=7;" vertex="1" parent="1">
          <mxGeometry x="-425" y="50" width="145" height="90" as="geometry" />
        </mxCell>
        <mxCell id="zptN3kTYpkBEM_b_qXS6-11" value="JSON Web Tokens (JWTs)" style="rounded=0;whiteSpace=wrap;html=1;dashed=1;fontFamily=Comic Sans MS;fontSize=16;fontColor=#000000;strokeColor=#000000;" vertex="1" parent="1">
          <mxGeometry x="-790" y="50" width="300" height="60" as="geometry" />
        </mxCell>
      </root>
    </mxGraphModel>
  </diagram>
  <diagram id="Z825ZKsumI9XSanj_9w_" name="sqlalchemy_alembic">
    <mxGraphModel dx="888" dy="534" grid="1" gridSize="10" guides="1" tooltips="1" connect="1" arrows="1" fold="1" page="1" pageScale="1" pageWidth="850" pageHeight="1100" math="0" shadow="0">
      <root>
        <mxCell id="0" />
        <mxCell id="1" parent="0" />
        <mxCell id="V73r7apO1GCHhs5CvjY2-1" value="" style="rounded=0;whiteSpace=wrap;html=1;dashed=1;fontFamily=Comic Sans MS;strokeColor=#666666;strokeWidth=1;fillColor=#f5f5f5;fontColor=#333333;" parent="1" vertex="1">
          <mxGeometry x="30" y="150" width="710" height="300" as="geometry" />
        </mxCell>
        <mxCell id="V73r7apO1GCHhs5CvjY2-2" value="" style="shape=datastore;whiteSpace=wrap;html=1;fontFamily=Comic Sans MS;fillColor=#ffcccc;strokeColor=#36393d;" parent="1" vertex="1">
          <mxGeometry x="660" y="368.5" width="60" height="60" as="geometry" />
        </mxCell>
        <mxCell id="V73r7apO1GCHhs5CvjY2-3" value="" style="shape=hexagon;perimeter=hexagonPerimeter2;whiteSpace=wrap;html=1;fixedSize=1;fontFamily=Comic Sans MS;fillColor=#e1d5e7;strokeColor=#9673a6;" parent="1" vertex="1">
          <mxGeometry x="40" y="250" width="200" height="90" as="geometry" />
        </mxCell>
        <mxCell id="V73r7apO1GCHhs5CvjY2-4" value="Business Layer" style="text;html=1;strokeColor=none;fillColor=none;align=center;verticalAlign=middle;whiteSpace=wrap;rounded=0;fontFamily=Comic Sans MS;" parent="1" vertex="1">
          <mxGeometry x="87.5" y="280" width="105" height="30" as="geometry" />
        </mxCell>
        <mxCell id="V73r7apO1GCHhs5CvjY2-5" value="SQLAlchemy Model" style="swimlane;fontStyle=1;align=center;verticalAlign=top;childLayout=stackLayout;horizontal=1;startSize=26;horizontalStack=0;resizeParent=1;resizeParentMax=0;resizeLast=0;collapsible=1;marginBottom=0;fontFamily=Comic Sans MS;fillColor=#ffcc99;strokeColor=#36393d;" parent="1" vertex="1">
          <mxGeometry x="270" y="160" width="250" height="138" as="geometry">
            <mxRectangle x="270" y="160" width="70" height="30" as="alternateBounds" />
          </mxGeometry>
        </mxCell>
        <mxCell id="V73r7apO1GCHhs5CvjY2-7" value="" style="line;strokeWidth=1;fillColor=#cce5ff;align=left;verticalAlign=middle;spacingTop=-1;spacingLeft=3;spacingRight=3;rotatable=0;labelPosition=right;points=[];portConstraint=eastwest;fontFamily=Comic Sans MS;strokeColor=#36393d;" parent="V73r7apO1GCHhs5CvjY2-5" vertex="1">
          <mxGeometry y="26" width="250" height="8" as="geometry" />
        </mxCell>
        <mxCell id="V73r7apO1GCHhs5CvjY2-8" value="+ id = Column(Integer, primary_key=True)" style="text;strokeColor=#36393d;fillColor=#cce5ff;align=left;verticalAlign=top;spacingLeft=8;spacingRight=4;overflow=hidden;rotatable=0;points=[[0,0.5],[1,0.5]];portConstraint=eastwest;fontFamily=Comic Sans MS;" parent="V73r7apO1GCHhs5CvjY2-5" vertex="1">
          <mxGeometry y="34" width="250" height="26" as="geometry" />
        </mxCell>
        <mxCell id="V73r7apO1GCHhs5CvjY2-9" value="+ title = Column(String)" style="text;strokeColor=#36393d;fillColor=#cce5ff;align=left;verticalAlign=top;spacingLeft=8;spacingRight=4;overflow=hidden;rotatable=0;points=[[0,0.5],[1,0.5]];portConstraint=eastwest;fontFamily=Comic Sans MS;" parent="V73r7apO1GCHhs5CvjY2-5" vertex="1">
          <mxGeometry y="60" width="250" height="26" as="geometry" />
        </mxCell>
        <mxCell id="V73r7apO1GCHhs5CvjY2-10" value="+ date_listed = Column(DateTime)" style="text;strokeColor=#36393d;fillColor=#cce5ff;align=left;verticalAlign=top;spacingLeft=8;spacingRight=4;overflow=hidden;rotatable=0;points=[[0,0.5],[1,0.5]];portConstraint=eastwest;fontFamily=Comic Sans MS;" parent="V73r7apO1GCHhs5CvjY2-5" vertex="1">
          <mxGeometry y="86" width="250" height="26" as="geometry" />
        </mxCell>
        <mxCell id="UiIwBZd8lvWISaC5GNV--2" value="+ contract_type = Column(String)" style="text;strokeColor=#36393d;fillColor=#cce5ff;align=left;verticalAlign=top;spacingLeft=8;spacingRight=4;overflow=hidden;rotatable=0;points=[[0,0.5],[1,0.5]];portConstraint=eastwest;fontFamily=Comic Sans MS;" vertex="1" parent="V73r7apO1GCHhs5CvjY2-5">
          <mxGeometry y="112" width="250" height="26" as="geometry" />
        </mxCell>
        <mxCell id="V73r7apO1GCHhs5CvjY2-13" value="" style="curved=1;endArrow=classic;html=1;rounded=0;fontFamily=Comic Sans MS;strokeWidth=2;elbow=vertical;exitX=1;exitY=0.25;exitDx=0;exitDy=0;entryX=0.001;entryY=0.1;entryDx=0;entryDy=0;entryPerimeter=0;" parent="1" source="V73r7apO1GCHhs5CvjY2-3" target="V73r7apO1GCHhs5CvjY2-5" edge="1">
          <mxGeometry width="50" height="50" relative="1" as="geometry">
            <mxPoint x="180" y="390" as="sourcePoint" />
            <mxPoint x="230" y="340" as="targetPoint" />
            <Array as="points">
              <mxPoint x="250" y="250" />
              <mxPoint x="230" y="170" />
            </Array>
          </mxGeometry>
        </mxCell>
        <mxCell id="UiIwBZd8lvWISaC5GNV--112" value="" style="shape=table;startSize=0;container=1;collapsible=0;childLayout=tableLayout;swimlaneFillColor=default;strokeColor=default;shadow=0;sketch=0;fontFamily=Comic Sans MS;" vertex="1" parent="1">
          <mxGeometry x="210" y="350" width="380" height="90" as="geometry" />
        </mxCell>
        <mxCell id="UiIwBZd8lvWISaC5GNV--113" value="" style="shape=tableRow;horizontal=0;startSize=0;swimlaneHead=0;swimlaneBody=0;top=0;left=0;bottom=0;right=0;collapsible=0;dropTarget=0;fillColor=none;points=[[0,0.5],[1,0.5]];portConstraint=eastwest;swimlaneFillColor=default;strokeColor=default;shadow=0;sketch=0;fontFamily=Comic Sans MS;" vertex="1" parent="UiIwBZd8lvWISaC5GNV--112">
          <mxGeometry width="380" height="30" as="geometry" />
        </mxCell>
        <mxCell id="UiIwBZd8lvWISaC5GNV--114" value="id" style="shape=partialRectangle;html=1;whiteSpace=wrap;connectable=0;overflow=hidden;fillColor=#ffcccc;top=0;left=0;bottom=0;right=0;pointerEvents=1;strokeColor=#36393d;swimlaneFillColor=default;shadow=0;sketch=0;fontFamily=Comic Sans MS;" vertex="1" parent="UiIwBZd8lvWISaC5GNV--113">
          <mxGeometry width="40" height="30" as="geometry">
            <mxRectangle width="40" height="30" as="alternateBounds" />
          </mxGeometry>
        </mxCell>
        <mxCell id="UiIwBZd8lvWISaC5GNV--115" value="title" style="shape=partialRectangle;html=1;whiteSpace=wrap;connectable=0;overflow=hidden;fillColor=#ffcccc;top=0;left=0;bottom=0;right=0;pointerEvents=1;strokeColor=#36393d;swimlaneFillColor=default;shadow=0;sketch=0;fontFamily=Comic Sans MS;" vertex="1" parent="UiIwBZd8lvWISaC5GNV--113">
          <mxGeometry x="40" width="150" height="30" as="geometry">
            <mxRectangle width="150" height="30" as="alternateBounds" />
          </mxGeometry>
        </mxCell>
        <mxCell id="UiIwBZd8lvWISaC5GNV--116" value="date_listed" style="shape=partialRectangle;html=1;whiteSpace=wrap;connectable=0;overflow=hidden;fillColor=#ffcccc;top=0;left=0;bottom=0;right=0;pointerEvents=1;strokeColor=#36393d;swimlaneFillColor=default;shadow=0;sketch=0;fontFamily=Comic Sans MS;" vertex="1" parent="UiIwBZd8lvWISaC5GNV--113">
          <mxGeometry x="190" width="100" height="30" as="geometry">
            <mxRectangle width="100" height="30" as="alternateBounds" />
          </mxGeometry>
        </mxCell>
        <mxCell id="UiIwBZd8lvWISaC5GNV--117" value="contract_type" style="shape=partialRectangle;html=1;whiteSpace=wrap;connectable=0;overflow=hidden;fillColor=#ffcccc;top=0;left=0;bottom=0;right=0;pointerEvents=1;strokeColor=#36393d;swimlaneFillColor=default;shadow=0;sketch=0;fontFamily=Comic Sans MS;" vertex="1" parent="UiIwBZd8lvWISaC5GNV--113">
          <mxGeometry x="290" width="90" height="30" as="geometry">
            <mxRectangle width="90" height="30" as="alternateBounds" />
          </mxGeometry>
        </mxCell>
        <mxCell id="UiIwBZd8lvWISaC5GNV--118" value="" style="shape=tableRow;horizontal=0;startSize=0;swimlaneHead=0;swimlaneBody=0;top=0;left=0;bottom=0;right=0;collapsible=0;dropTarget=0;fillColor=#fff2cc;points=[[0,0.5],[1,0.5]];portConstraint=eastwest;strokeColor=default;swimlaneFillColor=default;dashed=1;shadow=0;sketch=0;fontFamily=Comic Sans MS;" vertex="1" parent="UiIwBZd8lvWISaC5GNV--112">
          <mxGeometry y="30" width="380" height="30" as="geometry" />
        </mxCell>
        <mxCell id="UiIwBZd8lvWISaC5GNV--119" value="1" style="shape=partialRectangle;html=1;whiteSpace=wrap;connectable=0;overflow=hidden;fillColor=#fff2cc;top=0;left=0;bottom=0;right=0;pointerEvents=1;strokeColor=default;swimlaneFillColor=default;shadow=0;sketch=0;fontFamily=Comic Sans MS;" vertex="1" parent="UiIwBZd8lvWISaC5GNV--118">
          <mxGeometry width="40" height="30" as="geometry">
            <mxRectangle width="40" height="30" as="alternateBounds" />
          </mxGeometry>
        </mxCell>
        <mxCell id="UiIwBZd8lvWISaC5GNV--120" value="Python developer" style="shape=partialRectangle;html=1;whiteSpace=wrap;connectable=0;overflow=hidden;fillColor=#fff2cc;top=0;left=0;bottom=0;right=0;pointerEvents=1;strokeColor=default;swimlaneFillColor=default;sketch=0;shadow=0;fontFamily=Comic Sans MS;" vertex="1" parent="UiIwBZd8lvWISaC5GNV--118">
          <mxGeometry x="40" width="150" height="30" as="geometry">
            <mxRectangle width="150" height="30" as="alternateBounds" />
          </mxGeometry>
        </mxCell>
        <mxCell id="UiIwBZd8lvWISaC5GNV--121" value="2022-09-01" style="shape=partialRectangle;html=1;whiteSpace=wrap;connectable=0;overflow=hidden;fillColor=#fff2cc;top=0;left=0;bottom=0;right=0;pointerEvents=1;strokeColor=default;swimlaneFillColor=default;shadow=0;sketch=0;perimeterSpacing=9;strokeWidth=14;fontFamily=Comic Sans MS;" vertex="1" parent="UiIwBZd8lvWISaC5GNV--118">
          <mxGeometry x="190" width="100" height="30" as="geometry">
            <mxRectangle width="100" height="30" as="alternateBounds" />
          </mxGeometry>
        </mxCell>
        <mxCell id="UiIwBZd8lvWISaC5GNV--122" value="permanent" style="shape=partialRectangle;html=1;whiteSpace=wrap;connectable=0;overflow=hidden;fillColor=#fff2cc;top=0;left=0;bottom=0;right=0;pointerEvents=1;strokeColor=default;swimlaneFillColor=default;gradientColor=none;shadow=0;strokeWidth=18;sketch=0;fontFamily=Comic Sans MS;" vertex="1" parent="UiIwBZd8lvWISaC5GNV--118">
          <mxGeometry x="290" width="90" height="30" as="geometry">
            <mxRectangle width="90" height="30" as="alternateBounds" />
          </mxGeometry>
        </mxCell>
        <mxCell id="UiIwBZd8lvWISaC5GNV--123" value="" style="shape=tableRow;horizontal=0;startSize=0;swimlaneHead=0;swimlaneBody=0;top=0;left=0;bottom=0;right=0;collapsible=0;dropTarget=0;fillColor=#fff2cc;points=[[0,0.5],[1,0.5]];portConstraint=eastwest;strokeColor=default;swimlaneFillColor=default;shadow=0;sketch=0;fontFamily=Comic Sans MS;" vertex="1" parent="UiIwBZd8lvWISaC5GNV--112">
          <mxGeometry y="60" width="380" height="30" as="geometry" />
        </mxCell>
        <mxCell id="UiIwBZd8lvWISaC5GNV--124" value="2" style="shape=partialRectangle;html=1;whiteSpace=wrap;connectable=0;overflow=hidden;fillColor=#fff2cc;top=0;left=0;bottom=0;right=0;pointerEvents=1;strokeColor=default;swimlaneFillColor=default;shadow=0;sketch=0;fontFamily=Comic Sans MS;" vertex="1" parent="UiIwBZd8lvWISaC5GNV--123">
          <mxGeometry width="40" height="30" as="geometry">
            <mxRectangle width="40" height="30" as="alternateBounds" />
          </mxGeometry>
        </mxCell>
        <mxCell id="UiIwBZd8lvWISaC5GNV--125" value="Senior Python developer" style="shape=partialRectangle;html=1;whiteSpace=wrap;connectable=0;overflow=hidden;fillColor=#fff2cc;top=0;left=0;bottom=0;right=0;pointerEvents=1;strokeColor=default;swimlaneFillColor=default;shadow=0;sketch=0;fontFamily=Comic Sans MS;" vertex="1" parent="UiIwBZd8lvWISaC5GNV--123">
          <mxGeometry x="40" width="150" height="30" as="geometry">
            <mxRectangle width="150" height="30" as="alternateBounds" />
          </mxGeometry>
        </mxCell>
        <mxCell id="UiIwBZd8lvWISaC5GNV--126" value="2022-08-15" style="shape=partialRectangle;html=1;whiteSpace=wrap;connectable=0;overflow=hidden;fillColor=#fff2cc;top=0;left=0;bottom=0;right=0;pointerEvents=1;strokeColor=default;swimlaneFillColor=default;shadow=0;sketch=0;fontFamily=Comic Sans MS;" vertex="1" parent="UiIwBZd8lvWISaC5GNV--123">
          <mxGeometry x="190" width="100" height="30" as="geometry">
            <mxRectangle width="100" height="30" as="alternateBounds" />
          </mxGeometry>
        </mxCell>
        <mxCell id="UiIwBZd8lvWISaC5GNV--127" value="contract" style="shape=partialRectangle;html=1;whiteSpace=wrap;connectable=0;overflow=hidden;fillColor=#fff2cc;top=0;left=0;bottom=0;right=0;pointerEvents=1;strokeColor=default;swimlaneFillColor=default;shadow=0;sketch=0;fontFamily=Comic Sans MS;" vertex="1" parent="UiIwBZd8lvWISaC5GNV--123">
          <mxGeometry x="290" width="90" height="30" as="geometry">
            <mxRectangle width="90" height="30" as="alternateBounds" />
          </mxGeometry>
        </mxCell>
        <mxCell id="6pjSIr2vocvMl93qHhhT-6" value="" style="shape=flexArrow;endArrow=classic;html=1;rounded=0;fontFamily=Comic Sans MS;strokeWidth=1;elbow=vertical;strokeColor=#82b366;fillColor=#d5e8d4;" edge="1" parent="1">
          <mxGeometry width="50" height="50" relative="1" as="geometry">
            <mxPoint x="394.6" y="309.9999999999998" as="sourcePoint" />
            <mxPoint x="394.6" y="342.4" as="targetPoint" />
          </mxGeometry>
        </mxCell>
        <mxCell id="6pjSIr2vocvMl93qHhhT-7" value="" style="shape=flexArrow;endArrow=classic;html=1;rounded=0;fontFamily=Comic Sans MS;strokeWidth=1;elbow=vertical;strokeColor=#82b366;fillColor=#d5e8d4;" edge="1" parent="1">
          <mxGeometry width="50" height="50" relative="1" as="geometry">
            <mxPoint x="599.9999999999999" y="398.0999999999998" as="sourcePoint" />
            <mxPoint x="640" y="398.3" as="targetPoint" />
          </mxGeometry>
        </mxCell>
        <mxCell id="6pjSIr2vocvMl93qHhhT-8" value="" style="shape=flexArrow;endArrow=classic;html=1;rounded=0;fontFamily=Comic Sans MS;strokeWidth=1;elbow=vertical;strokeColor=#82b366;fillColor=#d5e8d4;" edge="1" parent="1">
          <mxGeometry width="50" height="50" relative="1" as="geometry">
            <mxPoint x="540" y="236.0999999999998" as="sourcePoint" />
            <mxPoint x="580" y="236.29999999999995" as="targetPoint" />
          </mxGeometry>
        </mxCell>
        <mxCell id="6pjSIr2vocvMl93qHhhT-10" style="edgeStyle=orthogonalEdgeStyle;rounded=0;orthogonalLoop=1;jettySize=auto;html=1;curved=1;strokeWidth=2;fontFamily=Comic Sans MS;" edge="1" parent="1" source="6pjSIr2vocvMl93qHhhT-9" target="V73r7apO1GCHhs5CvjY2-2">
          <mxGeometry relative="1" as="geometry">
            <Array as="points">
              <mxPoint x="630" y="308" />
              <mxPoint x="690" y="308" />
            </Array>
          </mxGeometry>
        </mxCell>
        <mxCell id="6pjSIr2vocvMl93qHhhT-9" value="" style="sketch=0;outlineConnect=0;fontColor=#232F3E;gradientColor=none;fillColor=#000000;strokeColor=none;dashed=0;verticalLabelPosition=bottom;verticalAlign=top;align=center;html=1;fontSize=12;fontStyle=0;aspect=fixed;pointerEvents=1;shape=mxgraph.aws4.file_system;shadow=0;fontFamily=Comic Sans MS;" vertex="1" parent="1">
          <mxGeometry x="600" y="211.5" width="53.42" height="50" as="geometry" />
        </mxCell>
        <mxCell id="6pjSIr2vocvMl93qHhhT-11" value="migrations" style="text;html=1;strokeColor=#CF7F67;fillColor=#ffcccc;align=center;verticalAlign=middle;whiteSpace=wrap;rounded=0;shadow=0;dashed=1;sketch=0;fontFamily=Comic Sans MS;" vertex="1" parent="1">
          <mxGeometry x="586.71" y="171.5" width="80" height="30" as="geometry" />
        </mxCell>
        <mxCell id="6pjSIr2vocvMl93qHhhT-12" value="" style="shape=image;verticalLabelPosition=bottom;verticalAlign=top;imageAspect=0;aspect=fixed;image=data:image/png,iVBORw0KGgoAAAANSUhEUgAAAcQAAABfCAYAAAB2ibcrAACJ4klEQVR42uz9eXRd53UniP72/s5wR1yMBEGCBAWCIgXOmgdbgyV5djzETlJx7EripFKdrlRXpbu636t+/dzptd7r7lX9aq163VVd6epUddWrKXZVJlccT4ksW5Y1UQMlgYPAASRIELi4AO58z/Dt/f6451IgBRKXFKXQDvdaWpQo4N7zDWf/9vjbhFtyS27JzSr0u4DTB9CbQPw7gCZ/rz/Ji3oKcA4DZgSIfw6Qn/T13JKfHnFubcEtuSU3lyhAPx5FyloMOR52s5pcnpwXP+pumfvW9HSMn0wQoW8CXm8/BimLyfsJvcvkvf7ITHj6aSDCLWC8JTeBmFtbcEtuyc0DhA8OI7vQh62OwQc8Q1804N9kwuciQvEVL3OSN2yWYrGoP0HgQV8D0n9rEzYWevEBJ02/aJh/i0GftIRWrSd/atrrCRuNxk/Smm7JLQ/xltySW/JeyZ+MIPMCYbTXwwESepRADxFhQkFpCzTrxrstNP4GKHR4eFjn5+cFgL2ZgfBZIMXD2AgP+4yhRwn0KCnuUCI3JizV2dnU8LMj/el8AKBSLBZv9jXdkluAeEtuyS15r+RrgDeyFaM+8b0G9Jio3seMcQXllIBYUS+Rc/hFt2+myKkeEqlls9kmALpZ1/QUkMpvwWYhHGCihwV0PwF3oLMmoL7E3pFX3Z5TU07eS7vp7MaNG5vFYjG4BYi35BYg3pJb8lcPCM3mjRj1PNwDokeJ8KgCWwiUB4Gg0FCpcsH4r73o9v7wx37fggU7rjFcq9XoZl3Ttk3YxA7uV6JHGHQvCNsZKADEABADjXMm9epLfu8PXnD7zq/AkI1jIyJ061bckluAeEtuyV8xeWoMvRnCfaz0MSI8TKAxBfqI2l6fKqRFtHLGpF95zu974TWnMFM1biOKoqaItFqtVoSbLN/27CjSRPgAM30SRB9gYBuAHgUZIpACGgON0ybz4g+8vh+95vWeqoNrNo5bURS18HZhzS25JbcA8Zbckp92eQlww1Hscok/TdCPArSLgIICphMBVYUGoOoJk3nl6dTgc8fc/Nm6yrKNolIcxyXHcWrz8/M3FXj8cCvGDfBFZv4YgF0A8h0g7Lh9qrDHnOzz30tteHbay55tKa/YOF5i5hIRVY8ePRreAsRbcgsQb8kt+Ssgz/agX3rxcc/Ql0iwX4n6QHAVhI5niDYixEvsnn/Z7Zt60+k5FyiWrMU8Ec2r6lKz2WwAiG8GD/FPgMzGzfgYMf1npNhHil4lclavpyNlNnM/SA2+fMTJzcWCJWvjBSKab7VaS8ePH6/fLGu6JbcA8SdWDhw48GkiMtVq9YcAKtM/uT1at+SnFQiBtNmEA+TSbzPhcVLKK7U9wsuBQxVqiaJF48+dcLPnA2AFwIIx5kIYhiVmrk1PT/9lh0vp2VGkHMZBJvrPCHgSSgNKYAVoLTAEgFmTOXHGpIuRapmIisaYCwkY1nArXHpL/goBIgMwk5OTVCqV3Hw+n/F9PxXHsSWioFgshrlcLpqZmbFoV5h19WLs3LlzExH9t0S0N5/P/1BV/18TExOvRFEUzszMvB/hFwOAJycnqVKpmFQq5QLwfd9PAUCj0QhFJAjDMPQ8T1zX1enp6c4a9Qbs6eWKZy0Wk2v5Hlr1J73tsPzkGRdfBfjR9h7h+Kp9+o1ruF83Styt/GvM9Dsg9F2+0WuJKOIGm/KicZehWBGRUqvVWhaR+k0AhjhcQG8A/iIR/haIJkDtXub1KmKK7BbrZKqOcVbiOF5sNpvLiWd4CwxvyU89INLExITneV7Wdd0RVd1CRAOjo6P91trNzDzkeV6LmUvpdLqoqnOFQuGCtXaOmZestfWpqalOCGUtBeCl0+nPE9F2AD4z7wHwcCaTORPHcTn5nffiRXP27dvnx3GcN8ZsMsYMM3Pe87w8M/cBGBKRIWaG7/vLAEoisiwiNWNMee/evbNRFM2VSqVqsVhsXSc4mr17946p6jAAGGOsiMSO48RBEMSO48SqGotIZK2NwzC0juMIM7/jezqVfVEUmUwm4wHwHMdJiUiKmU0YhvNHjhy5kOzlT0Tj9DcBv2cTtjFjoyh4v9PmnhAi+TdB6s0vztXKeP+AkZR1P4j6rsEssaFyMwDXiVAnoprjOK1V78NfqtTyyLhGtxLRYAcM1xMFtE6m2mKnaeO4DqBeLpebt8Dwlvy0AyKNjY0V+vr6hgBMANhPRAeJaBLAJlXtYWZDbYGqKhEFRDRPRKeY+RiAw47jvLJ///4zCwsLy3Nzc8HlnsqBAwcmiOjjAAoAVFUrIlI2xgzEcWwnJyfDRIHcEE9w586dmVQq1aOqo8y8K5VKTarqHiLapqp9RFQAkCIiNsasCoGpMnNERFUARdd1jzmOc3jz5s2vb9y48aiqLlSr1fLMzEzX1FV79uwZdBznrwP4IABl5lhEQiIKU6lUlCiZEECoqmE6nY4ARKoaE5ESEalqx8MkImIAroikiSgNIGuMyQDgVCr11OTk5L9fXl5enJubC2+Qd/ueeoaFEdzmO/h1MD0AJRYoAQRWiQZTwT99fNemP5sqa/P9Wo8QvXktdFAKiJLGACJmDgCE9Xo9vlmAowI0+0AXCGhR94tSq2xFJGTmgJmDVCp1U9+lW3ILEN+VTE5O5lzXnSCiB5n5LiLaLSLbiaiPiNbUCUREAFIAxohoTFUfBDCnqm8YY14YHh5+sbe3dzqKovnp6ekGAJmcnMww85MAdiehw0hVzxPRsojkPM8rm9Wo9C7Ckrt27epLpVLjqrqbiPYy8x1EtAPAKBH5HWC/onXQ/p8eEQ0AGFDV24noESI6TURvAni5p6fn2V27dr119OjRKtqFBVdTfMTMu4noEwDu7Hw5M1/p+6Ftscy8uuGZk9+l5N9hjLksn6UWgHFd94Wenp64r6+vMjU11Uqe8aaUu0aQchzcD+ZPE9F20NvchKpks6rNOywfn+vrOdPX11d7P9bTFDriEIQI3AUYQkAqBKuqIiI2iiLruu5NAxy+QSNSLDChCYVeKWd4iVEAiBJZIrKqGkdRZGdmZm5Rtd2Snz5AHBsbS/X19Y0T0f1E9HFVPaiqG4kozczX1GxLRB6AMQCjAA4S0ROpVOrldDr94r59+6YajUbRcZzbVfVJIhpKfq1BRMdExAKgKIqkVqu9qxdtcnIy5/v+rsQLe5iZdxLRJlXNJx7V9bnP7d/tBXAA7fL0B40x9zDzf9q3b9+zxWJxfh3PhY0xu1V1rNu9TUDbWX3WVwPxVT9jVHWAiMY8zysZY6KJiYkoyYPelIqs38GIYXoMii1rqGl2oXceQO3DP3D6/0hEdGxsLJ6ZmZH30vuqwpzOq62DkF8/WgqFQkRZiEistbbVasn09PRNAx7/ZAbRb43SopJWmCDogg9ZAYsE5K21ttlsdtZzCxBvyU8NIDp79+7d6jjOQ6r6JIB7AIwxc/rdPlSijEeIaIOq3gHgEWPMkXw+P0tE48l3uckLVQRwUlVjZm6tCjHpda5pu+u6TwD4UAJcI4kXS90AyTWsMaWq25h5UFW3Adi2YcOGP920adOpZrPZTEK+lyjq0dFRD8BGIsq/1xdDVSXxgjeoao/jOCv1er2eeJU3nSJ7CnAcwkElepjbhtVl+w1iRc8W2/zwnVp//VUnHwwODrZmZmbe03BkTUxFjJ01wB1d7TtBhMgCUCK66cY9fR2Q3zS0AmhRgZi6AUSC2AQAiUiTfPYtMLwlPx2AODEx0ZPP5x8kos+q6oPMvBVA7t14T2t5NsnzDQDoJaIJtHNjHoB0opgjETlKRBVmbqpqw3Xd1tzc3DUD4p49e4Ydx/kIM39MVe8BMEJEqRu5prXWqKo5IrpTVYeYeZu19mthGL4KoIp2PvBiqDOVSomqPoN27nSnqt5GRBsBZN4tWqtqrKorRLSgqhVmrqjqWVWtEpETRZGJ45hv2ps8gl7D9HFuRxeu5IGZnMS77g+XH3wt03NOROqjo6Ph7Ozse+UlamSdQDh6y5B2BYgCqAKS5Ht1rWKov2ypg8sp6Dy1AdHvYk0WRDf1mm7JLbkeQKQdO3ZsymazP0tEvwDgDiLKATA31H1aGxhzayjxBjNPiUiLmesA6tVq9R1FOOvJ/v37DzDz3yGiB1V183sNhGuAopsU6HyGiAqZTOafjo+PvxGGYXV2drYTQsX09HQ0Njb2456enlnP87ar6riIbGPm+9HOqWauVWGLSMzMZ1T1KBHNquoyM9dUtaaqVVUtqWozqWS9KSsCvwqw72Ingz6Gdnj4CnsN8gSFLVHzvntby4d+7PZUBgYGGrOzs+9ZteNKy41Cr/WW28V1bP8EiSiLtVaZ+aYEj1jCMth0qo+7AHm65SHekp86QOT9+/ffQUS/TUSfUNX+JDeF9woMuwCTk6paYuZmHMd1Y0wj4XnsVrm5+/bt+6gx5rdV9V5V9YmI3+/1dCo/iagfwOPGmEomk/mnzDwDoIJOvQWg2Wy2Ya09Z61tMfMFVT2iqq8CuA/AZ5LcalfPn1T5zovIXzDzSQBlVa2KSFNVG6raIqIaMy8HQdCcm5u7KfOHu4eQcYh+XoENtO5ew+3V6PY7o5W7XzC5k3Dd2ujoaPCeeYn9S4EN3WPdTh5VQARtbyqO45sREPWVGCsf8TQBROpiTSQgFiLSKIrUGHMLDG/JTywg0t69e3sdx/ksgL9PRLd1FO5q4FDVbhrC6TLP77pFRCIArwCoqmrVWltR1WaX1r67d+/eLcaYLxHRr6nqpiusRQBYVQ2JKAIQJ9WXIRFx4tkxAKOqhogcVfWSqtprWmsCigDQB+Azruu2APxft99+++mEzSMEIFNTU/HExEQ9nU5bADVr7ULi4Z03xmxW1ceZ2e8SFBXAHIA5EVlAOx+7GMdxzVrbTFpiwlar1Zyeng7wdj/izSQ0lsFeBn4eXd4pT7R/lIIHnoyX3vxz9Nf6+vqa75WX+Mw04v1jNKu6fqUpASoEiVQuPkdSIHZT7fnvzKH1kS0oEaOpWL/SVAErN3kY+Jbckm4A0UxOTm52HOfLAP7+lQpmEgARVQ0AtAAERBQkSlyJyBERl4g8VU0nBSUO3i7/vzYTtd3fd0ZEZhNQqKVSqTqAYB2lRjt37sx5nnfAdd1fUdVPJ20hl4NhBKCuqstEdAHADIALAFaIqKKqTVUFEaUAZIkoT0Q9IjJIRKMAhgAUVDWHdvGPSTCP1gPF5M8BVf2kMWYunU7/0eTkpExNTQmStoyEsUTGxsaCbDZbjaLIT/q7nmHmjqfb1T4CKBLRMoBlEblARAtBENSJKKhUKjbxCjuN7DddyPTbQIZBvwyiAnVhBCSTF7yCRhO328b+19zCyQvsVUdGRoK5ubn3ZI1WrIWDEO3irPUsFJXEm1pVVHPzCSNWIOY2WF913wUQIZLkbuvKygpwK2R6S36SAHFiYsLPZrN3ENGXiejXkqbttRSqTUBwAcBpIiqizcG4AqAiIsLMPhGlRSTLzIMANgHYqKoDaOe9vGsBR1VtEtFhVV02xtSMMZVyudxcpyWAxsfHh9Lp9BNE9NcBPMTM2cvWoqpaTTyu4wBOAjivqrVkjU20G95jY8zF71JVttY6zGySNY4mlaNbiWgkWWsf2s371KX3toWZPwfgTDqdfnZ8fNyePHmysSp8KkmFZAggHBgYCEdHR19PimAGu7UtAKyISBVAVUTKRFQWkWbCC3vTl8fnt+IAEz2qeGdl6RV1OYE8aO+IDQ7eZcuH/1z6FgcHBxtzc3M33EucBNQlWFXE693u9kazSLtnT25iQFQR2AQU173MSiRWoNbamxvkb8ktQFzrL0dGRjLZbPY+Zv5lIvoU1i5oEQBNIrqgqqdU9TgRvSUiVWZuqWpnxlkcx7EFAGbuhBn70W7G39ppOUjK+zPreVLJ955Fu9WirKqVKIpqiXd4RUDcu3dvrzHmU0T0mwD2EpG7BrDPE9GUiLwG4AwzV0Skxsy1OI7rqtoEEIpILCLWGCOqStZaNsaYOI4NETnW2lOe570Ux3GBmUcB7ACwh4juUNUhdFGElIRiJwF8WETOZ7PZYN++ffHhw4cFb1eedsAqKpVKsnnz5jKAOrqw2pPvEACBiASq2rLWNpeWlsL3AhjeC/mjAeQ90GcVGOmmQfwSUFR4BUQT26PG3ik/c+oUZyujo6Ot2dnZG07rJgShLgtQAIgF7E0PHkQxSLuabi+AlbcB/lYO8ZZ0fcveb2PcuYJneK8x5jcAPIl2y8PlLCaiqjUiOgrgcAJORWYuM3PlcvBgZgEAYwwRkROG4VljzDEi6gGwiYh2qupetJvVR1Z5UmsBYh3AW6p6gZmrqlpR1fr09HS4CigukX379mWNMR8hor+JNp3cWiUO5wA8S0RHRGQOwIq1doWIVsIwrFlrm8aYVhzHcbPZtK7rijFGrbUkIhTHMadSKZNKpZiZ3TAMfRHxmfksM7/JzK8CeFBVH0sqSrvxiH0A9zPzq8aYxUaj0WFWubyKVgHYhOqrkfx/Xl+nUZycTywioapGN2vhzFoymsF+InxAr726FkRgDzowLMGBXdI4POf6C319fTe84vR3ADxCJFCNuoFsq1AhczFk2gGRG7lvXwX4vn7kXAX9H8uoff3t9eo17J+FwhKt/zuqZIUgRCRhGP5EgeFTgJPuR+aMgXy9iOb17NUtuTb5kxFkBg02OUDfKxZv/sYcrrlz4EYBopPJZCaNMX8NwGNXAENNvJAjRPRcAoZLAJYAlFS1EsdxnZmDDnh0LMJKpULZbJZbrZaTz+fdOI5TxphzjuNMM/NhVZ0EcCeAvUmhC1/23RbAeQAnRGQFQFlEKq1Wq4krz1NzmfkJAL+pqvuZ2awBsktE9JyqvqaqCyJSVNVFAMthGFabzWYzCIJwfn5+NRjpZZZM508aHR01QRCYTCbj5PN5PwzDlOd5C2gXsDQAfD4B/i4UD21S1fsBTKVSqcrOnTuDY8eOxWuAv0ZRFHqe10iqR7sJPVsisom3a+v1+vs+DeJ65aU+FIjpCQWNdwP+a+6tIlWQ6PbxuLF3ymRPzXBmtZd4w14+JogAcReFptpuzH9PzoB+WEBvKo8d4vA2VWwmgP92D536FfCp1zQ6/X8/gyq6zBWLwJLpjvZO6O3K2W6Kar4AmN8cQZ9v0DsXoXJ4Hiu/8/b7/Z4rxa8C/OFhDBoPO4mwFcQbtyqC3xql2V8Gn3gh6D31O21y/huSc/4m4BeGUTg+j8qvtCNd1wK49O1hZFIG/XVB619cQPnrN3Cvvgn4hY3YGHvgt+pY/LUSVqdtbuj9fKqAQk8B2y1hP4HuV9Cmcdf5px+dyP3gW9NLQaLj13R6vgaYka3oqQvof5xF5elLo2jXBYi8b9++LY7j/KyqfpSIBtYAJE1K8Y+r6gsATorIAhEtRFG0GEXRsqrWS6VSkM/n4+np6bVQ/SJoZLNZx1rrJTykC8aY00T0OhEdVNVHE28udZl3eALAXBLOLIdhWLXWBlfYKDp48ODDRPRbqno3rdGjluQHX1HVNwAURWRBVS/EcbzoOE6lUqkESQjRdnvJZmdnL/KETkxMNKvVqjMwMFAloorrujHabDM/g3WKLJLKU19V70iIxc+ranVVePjytURoU9l1ewksgJiIJI5jWdUfdtNbv2EeezzgAwAKwPUVLDOBfNWhERscuF1ah+cdrzgwMFBf3ft5Q950C0uErjxEAiRuhyJvWIvC14aQ2+phDzv8ISJ90ADjIORVQSloyYUcvZ+c7//jsdT3v9ZIn326WOzcrysqPeJ25ehac8jecS9BVml9C/8pwElvxX4CDhLTLgIGRg0Wem/jl36X3Of/rR1eeLqdN3/Pohjf7EfPhjzuUqUniHEflLaAkANgDeuiy3LkA87Kd/5Btvf7/yjOLSQRhet6nq8B3pYxbHeIH4bqxO1j9PI/4/Rf/M9mZKWL2a700lZsVMa9othDRKMpRe3vjNHU58T9wT/ljeeefpuF6VrBi340jCHPw35i3qfQ212Ad+dp+g96/Kf+Yzl99OhttzUPHTpk362+6Bgfnof9RHy/kt7NwC4CDYPgplUq42721OTkxrlKpdKcnZ19R+HkUwX05nrwCED3egbxV7fyC8fEe/Xfm2bp6Rlc031xVoVKc8z8OIDPEtGmK4QVBcAigDeZ+aS1tpiAxzwRLS0uLtZGR0fD+fl5Oz8/f9WNmp2dZbQLQoLR0dHGwMBAPQzDsud5RRGZJaJpAI8CeJyIhpPc4byqnlDVpQ4gZrPZxtGjR9f0Dvfs2bMzCZPenzTbrxX6PQXgtYShZZGZ5+M4XoiiqHzkyJHVIcprkc7aJSn0iebn58Ph4eFgYGDgDdd1/2NCFL6nC33CRDRojNkuIsdd110aGRlpJGw8lzxXEpoOu37INj2boj01Q35SyuGfKqDXBT8EYBcRHLQrRxUKaRBXGUAa0tsVKAJen0STt0X1PW+Y/MlTQauMdgHVDQvRhATNUPdN7CIsIvKuc4hfBfjDG7HFSfHPGNVPAthNoH4F/FXNQBsdYDwD3bebWgd/PSN/uGV8+NAPbaqSTGGxVwmZxt2AvIBElKSTF01A/pK1PT+GjY7wp4X0s0TYAVA/AMcQgpzqE7er/dbn3JX/4I6Pn/xeu7jshkYzFKAfDWE8leYvEumH0Sbx7yWCo8koZyaMOMCOPGT/Xagf+O98+/U/2bv1yLGm1+hUfnd5Ls7HN2GcPP4YVB9j6B4Q9XnA49sp2HqQWv+6Ojy8Mj8/v2ZdxDcBv28L7lGiLxNwjwGNEJBWgiXF4qgj9/6CU/0XGBs7/vTMzDWN2fom4PdtxgHHoc8T4SFAxwiUp/a7Utko0QM/16u//8e1hafPj4ysvIupMfT0VmxMER5j0CME7AdhjEAFBXwFyIIqZ026ctLN9zlwGgMDAzI7O3vR+/0q4Hx8Gx4kob9GwH0g2mqAOEf60f1O/NImpL9z7xa8+DVuLs3MoKuJQh1ANKlUahsRPYn22KYrRXdsMqppxlq7BKAYRdFCGIaLrVarNj8/H6wHhJeBKwDY2dlZnp2djcbGxlrpdLqJdivFsrX2LDMfI6JPJv2Px5n5DBGtqOqKMaY2Pz9/JWvedV33ZwA8gitTm1WI6C0iOm+tXSaiYqPRWASwMj093bpKGPZ6wFHn5+fFdV3p6+t7loi+mbDi9HfhJaYBbBaRHmNMOp1Ou3g7tLL6Z6/5WYlIO6wo75YU/f0StwcTxPowQAPaaT5UoEVUPe7kXuuRqGebbe41tH6fLREopTq0xTbvGo9rr51DujgxMdGZTH9DvEQTQ9TtDhCVoJpwmSZGznWdydcAs3Uz9hiH/nNSfBSgDURwtQ2Eq98Fo4qsAXZkVTfeRsHkzxD+lRB9uzU8vJgo5XiNMKglwFIX74cF4mhVH+I7vKQR3MtEXwHrhwg0DMBFAkJQZB2gJwfZtDtujlS86j+vTU5OzdXrjRs1CPwpwHlpK+5LEf0dAA9rG4wvFr6t2iyH2s+zKw/ZOCnNyXST/89/ExaeaY2OrnQTWXhmAJv8HH6+HSHS20HUr+0qe2KlvKPUGoMc2rRp09TAwMDlE2bomxsxOOzzl5T0i1DaASADAiu1T4IJBV9laLetbPmci//v8vj4q4dPnqwmhvJVn+2pEQxmXHzWEP0SiPYQkNcORrT7lbIe6RNDEm36WLzUH2f7v/X8zp0LuVyudejQoa515Tf70dOXxy85RJ8lYDuBBgGkFTAKAhGoDj53yCv80TP+wMsl4/vc1oG1iYkJnp6exrdG0d/H/JsG+rPaHlSdBtoRTQYGPJWdGyl87HHX/fc+Bv/dHwzR3FQXM2gdANi3b1+KiB4gokcAuFcp9rAAytbaxSR/V8pms0uVSqW2livbrU4eHx/P9/T0bBCROAiChuM4sYgsElEjCaW+KSK7mblqrT2vqiUAS7VarZ6ELN4Rlr3zzjvvB/BxVe1bazJE4nHOqurxhK6sJCKLqVRq5bXXXrtRYHg5MNpkn0pDQ0PfVNUPA+jrorjGqGoumVOY8jzPSfJmNyqst5om7KYGxZfGUYDgQVLaqwR/lXLXJXbnfugPvHh7VB3aIOGGnNpNXVafmkEb3rUrarx4xEufmiOnkiiQG+IlMkFIYbuM7KokhkqnGO2aFfwQcuk0Puow/X0C3dFWuERtXbO2UaAKJqDgA/dtscHYz5vy5t5cz9eez47PHjp5suNlXNwLK+1wu3bR/BkTt0Jw1GGqAYC/AZgvbsLmrOEvktG/DtA2JfhIFOLqGLIqHAI2FGB/4cFoZVMK+o++huwrdnS0/G7D2y/1oYAe/iKgf1tBtxFdVf+t3qv+tOijO7S29StG/tk3s0Pf+PHOnReOHTv2Dt2hAD9TQMHrxaMG9NsgOkhtL8h0jN7k5xxAR/KkewAsMLPtTGT5R4B7/1Z8wDH09yB4AKAc6LKKfEqi2YpC2uoTd2p1sOry78RjY68sh2ElmS1r1/JYPzmKO9XQf8WEJwiUXw1OuDQZl/EUBzfbVv9nuDTYy/KHTy+2zkxOTjampqauSNzxFODEfcj25vEkmH6bQHugCZgnGwuFWiA4Z1Kv/Glq+NtvmOxc7HhVa20sInEcx3bX9LT53WFMFgz9XRA+A6Veoktb9lRhQOgxQH5Qor/3MFW2r/QW/qFJbz3z+pkznbtsrwSIZIzZSkQfJqLhLsJslplbIlKPoqhWq9XeDcuHOzk5OZZKpb6oqr9qjCk4jnNcRA4ZY34kIqcSb/AoM89Ya1PWWnEcpxzHcfnkyZOttRY2Pj4+JCKfIKIDV5rFiDYl2gm02VnK1tola22lWq2+F2B4iXE9Ozsb9fb2HnNddwrtytr0ujqVKCUiPhF5nucZXG/i7Cqe4s3uGX4V4DjGhGlHMoYvKhKFhqDWtJM/8oZfOBOD53ZHtZG02j6jSK8HikQgHyhst7XHtmv+9UX1SuPj442TJ0/GuAHzEh2CXu95rBVevNr+fHADhtI+f8Vh+vtEyKLLi7JqjxwPGN1kw//6k1Te2ufJP8Pttx8vi1RXhwXNNbwfLaJmi5xARCRFpB+w5dQXtmEyDfoNED4LcO/VnjN5NiIg3Qv5yD1RuTeVkv/PN5y+53p6hpanpta3/C+X3wXc3UPYiiz9l1D8IjEXqOuz6UAPPA/YNaaN/+bzrfNb+03uX/ZNTs4shmF9eno6+iqAj/Sg9/k89qcd+usE+owS9XR+n9b4XKvEZeNkE0O+usOY1j8cRN+WDD7FTH9XlXYSX92CJgIRwfdVDt4bV/72XMr/n7+X6jkOYGU1KCpA3y+gkMnjMXL4d5ho76XYesV1Oz6wfZMGf/NxWypkvMLvfzf2T0xMTFSTan+9+PmAz5swlHZxD4F+hUCPApRtm2ercQUaEJVfcwvf/5P00PNFSpVgTDmO4w57VuWBSgW/vNU8mCL5L0D0IRCt+W6v+jsCkBuA/fLn7MrGzT79gz/ac9vrZ0qtahLqjdcCRE5Cd3d1l3JBmog8IgpFJLread5jY2Opnp6eScdxvkREP5c0sBOAe5j5biL6MjO/LCLPAHgNwGkAK6raCsOwjnal61rA5fb09NxNRI8SUXYta29Vpey8iFSJqOI4TrVerzeTvMl7DQ42iqKG7/sviMgTuEqbySoFyURkmNk0m80OIN6Uo5jeK/lUH/Ig3EdEu0G0esqC1pkXn/P63hSR2jy75aLjP7MhCsaM6tVSAJfIoER799rqviPeyAlrTHlsbCyYmZl51wUcEYAUvbfn9BLgYgTb1aUvE+O/ILr2VpTLvNrUBo1+8QNRhcXo//n9zKZjrdHRDtn8Na0lBLcazBERyV5uZj4RLe1JgX6ZiJ4gUPZany2ncteuqPbrTXHib3g9L+3bN7J0+PDhVree4p8AmaHN2OsY+g2APk/87sapOYQNQxp96VFbQyoy//YHufypaGysunt5JmP68POG+D8HaCcIznqga5m0yh5U1e8Lw+wvYG5gJMOfYMaXANx2LcxehuD1qL3/0Xjl55qu8/97KpXq3OXgawA934+RdA6fZuK/jXav9LV5M8DGDRJ/7k6tNZY8/w+ecXKnJyYm8MXp6egjo/CfizCcT+GAgD7JoA8TYROu4KAoYOc4deLHbt/RIvsrAlrmtn4uEtFyqVSqf97Mj6YMfYFAHySia7rfPSKP3SfLFKv+L98pDLwuIpUkvWffAYjM3A9gQxfeISez+HLvJr8xMjKS6e3tvZeZfxnAJwAMXp43A5BR1YfQbsM4JiJPGWOesdYeUdUrzjycmJjoBXA3EY1fxTvsVMuuEFGNiOq1Wq15jcTg7ypEmcvlWtba15h5EW2qN7qat6CqMQCICKtqt2w3PzXyVYAbGYyl2wn4jateJLVAdNpkjk672XmolkvGmzsNr7EdPOnCjkCR7yZ06hDSt8fVx7d5vS9WncwS2sU1N8RLfC/l2VGkrcEBboPMF5CwSqlCBYgtUUhQYxQetcOm3d4dd0Diz96vjUYlXPxXzcEN08aY6szMTGy7JZAHtMXcbMGEY7aZ/mRz4ZF+sl9g8P1EcK8vnAFTUPvgpK0unUV65c/j+MjIyIheKSS4+jefantE9xtDv0qgjygod/EeKSJLFDDgGFWPCNztXjmE/iGNPne31FrLLf/ri+nM6Zb6PaD4g2gXf3VllAnYVhwTF1j9T2pp1+0aP+EyfZKAjaBrby9yFIURGzx+FyrTx9MD5fTkZLS7MoUNilHD9EUi+hUQjV4rscXboKhbRzT42f22Mn/aSTWORdGFntGeLFPlbjdFH1fC46y0g5iuOibMEuIqOZVl41QEXI7juGitvSAiy7VarTE/Px9lN8MnoB8E7zoe1clC7j4gtZ8rcqpRGhiYZuZ33BkeHh72kMz+6yKMY1R1QESGVdV3HMf09vbytSjnycnJ3NDQ0OPM/F8S0WcTKrcrfR8xc4aI9jHzlwD8Dc/zPuR53kbXdb3E8r/ku9PpdD8R3Y52szZd8d61+wEbSfi3SURBUsH0vkhSsnwewAVqF1FczRARVQ06YbS/ivRXu4eQSTm4G0R3YhWNoCpQZ7P8gtf/RjKhoxJF0fIR9Y7XyfxAgNlrMXL6bLzr3mDpXmYupNPp9OjoqIvr7HN8P+Tbw8g6jIcM0W8R0ecB9BJACRiGS+zOHncyL57h9KsVNrMWaKpCtAsvjwjEQHZIw48fiJsfFJG+bDabGRsbc6x2O1EFNoQJ0hI5H2nM3zcqrV9l4MHrBsP2S02syPRr9Mg9wcrjG5k3ZLPZ7NjYmHs1XfRSH3qyvfiQYf4tEH1MifJJTlAFCBaMd+INJ/fMaU6/tGzc6Ra4ZBWRancesQtsGpTgE9u1sX8DUf8fYrgVKo5rOz3TzV6pEGxLyd4bLG3bH1V+LqXyswSMgLqdl7ImaI1u0uCBnRpt6zem99MmszPt0q+QoV8D0Rai67/fBFBadce4bX1qR1yb6M9kCikjw3Dok0r8yyDevR4YAgArTAZxqkdjJWtrAJbjOF6J47hTn2KhaKlyBaBIrzVq055k3dMn0SMHw+qH7tBwJJ/PZxKnkN5GzWzWQXvgbHepBqJeANtVddBxnNnLP/Bqsn///l4An2Dm3yCie7oB4Q4QJ17kw6o6wMy96XT6GxMTEzPT09NNvF2CzcaYASLagqsMLk2IuS2AiIhCIgrDMFyv7+dGi0RR1PI8r4R29e7VFIQkkyd+4voFb5DQRhebGPQI6B0DgGXGpI9Nu+m5ZH5jhYhqJ0KqXXC8F3oRvZKGblFFrisvEUjtjOqP7YjrPz7mpcvGmA7pw01HWPAUkMo5uAdMXwHowwT0riq61RqZ0mG358UX3N6pPGLdFdWG7oiq+4c03O8q8l2asWSgA30aHWTmZ1Q1cF03lrA7JWoT5fVwuLT7Dlt/xFfcrokCFoXGRM0WuOZAvJRqjqm7kXREIFd1cMS2Hjtgy6/P+z11EQmv5NH/yQgy1sUHGfQ3wPgAQJnOfVBAluCe+7E38Mxrbs+pggTYJs3ceNwc3Ro39hYk3uGsQV+5htJlD9iUtzKZMfb4+XQ6Kgbu1CiiOU0MlfWDcBRvsUH/g8Hyvh6J72egj97eL9siXrEgm1ZbMGh7/Ovtk1H4vRpN7pDG5IiNnBGKHmbQzyZeZycPb1tE1Zg48FVyrmq6W6AkgunV+J49cfO+19I9c294XmMybC7lCCF3iQ0MOAWJBzZHzfyZdCauqWkRUbCqHxNFi5Uhlw650ElHsQdAtlvPlgBSgH3o5lFpPH5XXJ457W2ojI+PRydPnuwMTlCnWq3a3t7ezsy9dacxJC0A24loe9KLuDw2NtZcL9eya9euESL6bEIUvpuIrtXtpcTr2w8g57quEtF/HB8fnz+ZVMGNjo76ADYn4Gmusg4G4Kkqq6oVkTj1dnz9fZOkkb6c9ANeXa8AzaSgSf6qjc95CXDE4KASHmzXv7wtTeLy627Pm1V2KgyuhmFYEZFGBWi9nCmc3Npo/cC18T1Ou52om5eHC4gnHg5LD5zKbJ1NpVKdeYk3FYvPG4DX2oz9MPRlKH0IhF4kRBqqUEsI501q5jm//80ZTp0HUJ4x/uEKOUfvDVdKIxI8yUCmqwkhgBGgxwC9nueVrbX1iB1WjdZNaFlARmxrS4/GuzNixzUBPFHEDebSLKePnzHp2bzG3ibbGh2xwaQL7cp4IcBk1G6/Pa7e+ZRfOGE9rzE6OhpezjT0u4A7bHA3E/0NInroEjBUaARqHndyb7zg9Z1YMu78BUqvnLCZ4Bi10ndR9fXdcflDG2z4kEfoWU/pisJR0l5x3N7Ac5feQvbkxqB8ylPdgXW8YgXUgWQ+0Co9OCLBPgcodEApAjUWjXt62mSPRmxaW2xj86a4dUcGMtTFGXIKumlH3HjYifWuDOQ+Ao1qO/KhVhEtsXv6hJM5VmO3MmKDgU1xa3sPoi1GL6nkvkpoVnu2SOuDBbU/ftUfPPmgjV7cLs3XPdWHqcv2p6zaoS22NXw4jr0KXUy3XjzH78+jfHCcv9ujTpAn+2RO7YO+6iYA3NV9IRAUfkZlxyYEBzYhmpZCoTkyMnKRstIpFovR5s2b55m5tdZEizXEqOoogLustcd83y+FYdi4Wq5l7969467r/hKAXyCiiWT00/W5Cu0RUjsAfNEYcyGbzT49MTGxOD09rZlMJpv0KxbWST4T2oUsvogQABSLxfddqcVxHPu+X0lItq/6o6paBhBba22j0fgrNXF8pR8bCkyPc5s1ZHUZuJ4z6beOm9x5FaqBUSaiWqlUCubn5+P/Hajvm8g9s5fsE47qFlWkurGoXUFuu60/uD8sv/iCl6t4ntdMwuk3BSB+DTC1rZhwiL4Ioo8BGLycVSoAV6fd7Ftn3VRRhJZEZH6ZU9VnfDodWz7/OBay/WIfQxfKyoJsjZxQiNJibcpxHIfCLnNrUHfEBrtcqN/x/lRhl9g9c9jNv/iqW3hrjvxFD4i2aSP9SGPxA7fZ5hMOtCvr34UWBmx0+6i2Np5N5cqJLrrYiqEAvTiKnWToN4no0YsVjqtwqMZu8U2v50QZvBTH8SIzz7ciqR0jX5c8M9MAnX9Ql2VQokcMXd1TVIIskxc3YXxV9d6gnso9XHndFX2AgP711FtO4qEsbF9iFLACGoDKJ53Ma4e8vteOOblzAbS+RfLuo43i2Z22/mGfdMN6d9pRzW20wQMMJQ/oUcCAAAsEMyb96vOpvkNHTH62RVwbsAEOcnXLXeHKE/0a7UY3nihAvRrtHJVoy5zJz/841X9uqHnh2T6N73C6pKlMqfRsltaObdIcWqDsaWNMJ10hAPC/AtFdzYFzEz3en9+mwblxhEe2xM0PDUp4P6HLvGJ7L/J5sRMjEo6ejv1Fz/M6d0ac5MtWAJSAd4Sj1vQSAeRU9S4iOqGq5zzPq42NjYVreIm8f//+O5j51wF8BsDmZJDuuyoISSjYbgfwZc/zTgMIh4eHreu66cQ7THfh6aYS4HRFhK2115QLvRHSarVsJpMpJyHRK3mRqqotZq6KSGSMsY7jyF8VQPwqwPkUdjHoI0rkrd6lQLlyzM0eK7n+soIrIlKx1jbm5+cv0mn9mfHPbrPRd1zE9xlgS5cvjemxdse9Ufn+17zCaUtUfa8mYVyPDBWQdxhPAPRZABsuB0MAGpKpHzHZs7FQVUSWVbUYRVF5LoztD5z88qA2/o8HpLwt3UV1oRDCFeNUVJWNMew4DtvAkMbxuu+LAVyGuknfBKlCKmzO/9jr+/6P/P6jZXKXIqJlVa0WtSciP57NBjYescGnQPDW834YcHzIhkHY4TOqs7lczscqpqEXNqHfGPp5ED0J0Ds8TwWkyO7cvEktxswV09aDC6pardVqwoWC931KVSfYHe6VeJJVM1cKJbZzkRQtOV612X51aY7TrZo6L2UR/hyvA4gEkAOkCXqxdSAC1d4yuZe+5w8+f8LJnQ+BlVi1XGa34aTkTG8rohEJPuECvet50z60v2MkgNpe+oyTfuWb6Q1PH3Xy5wLwCoDyinK97JpjvsjC3dHKL2dh70AXldqOam6DBFvU7zvypuYXDpjy89m49qBRHewmZ0wEs1HC3Tvi6vY3U5mjjcimxsbGGqtwRQ/NzUXl7MTSeT/35msUL+42tRN3h+XZMdv8hEcodBM6BeCl1A7lNB4EkM3n8/7ExERzenraMgCx1s6r6tS1YRKNJK0N+4ior7e3N4VLuVHN3r17DzLzfw3giwnYvmswvHT/9U4AjxljBoaHh7PGGOdyN/sqkgew2VqbJiI3n8+/74DYZXGMJEOJWwAiVY1937f4KyJPFFBghz6pwObLldm88U5Nm+zZllIVQDkMw1qpVFpNdyV/cqzUeiYz8O2YaArX0MDtqxZGbePOe8PliTiO8wMDAz5uguKarwHGL2A3lL9A7WI4vlwpq0KboPopJ7dARHURKcdxXCmVSlURqdZdd/Fpr/eFOfZ/T68C8KrQFTYXnvX7v/ddf8NhVY1EJI6iyKq1XdU1EIG43RdHCmiDeOkZb+DPv+cPvrFE7kKgekFEZq21ZxpheOoVyh866ma/FhKdXe/jO/2JLjRXENtHRBlrrT8yMmIA0FOAo565C8DPo03D9o73WwBZcLy5ZeJqkoMuN5vNWhiG9cHBwfrfKr3l/Q+ts5/dGTe+4kJHrqQjBIjn2T/xF+nBP3vVyZ0Nk7mpC47TWiZ3pp0aufqKVu8VAMSg5kmTeeW7qcHnjrn52dCYogXOiciZUGTmTU0dnnGyfxwpT3dzDu0G9iS8qMBZkzr8DX/j998wPWcDcDEhPTkTWDtzgb3p76X6vlNmfsoCtW4/vwfxIIBM2XF4ys2fqpH5oW33eneV5/NV+nfYxv1jUWMknU5nU6nU6qI2BRBPT083S6rLZ+Ge/b7T/+KfZIb+xetuz//eVDrTzfcYgI0i67LmiSgjIn6r1WIkACYAThHRn6nq3eiCOSXxsAyAA0T0C67rVqy1wdDQUFwsFjE+Pp7J5XIPG2N+m4geRHtqfOf3Oi0PswCKqjqceGqpZNK7s8oTXe8xcqr6s0T0UpJjIyLqlrkiB2A7M29U1VOFQqFTtfq+5RJd13WZeWgd68sm00SaCSBGzWbzJ2Yqxbv1Dv0s7iCmL3ZomTqKugWqvOVlj552M/MJGJZFpJ5Q+a0e0WP/ZZkX70q5/3w0Dg+wYrjLfIPXK/Huu8KVB6eyuTMlQX1kZCScm5uTv8y9HxvCkGHzRUAfUqy9EAFs2bjzoTENqDYA1Ov1eishqY8BxMWRkcWHc+63N0bhk2noY4miFwFsBGotG3fukNv7wvcyG16vKVcBLFOb0amqqqFrY2Hufh86Z/ZUZvBb30iNvGZVl0Rknpkv1Gq1krW2FoZhSD09pgI53AI/48OOd2OkKoFjJk9VfWOME8cxA0A8gk0G8ndBNHalz1GiaIHS87U2O1E9L9J8PDxrPmKj8d7F+CPs6K+S0h26qoVLFaqAiiJqMdeL7J/5sdf/wrN+7/GAqSJCy6S6DKBWq9UCllZVVIsOUdzRhevtlQDhSSfz6h+nR56edrNnASyqyAURuWCtLSeGH85llfYRXhbFTibkuzwLe874U3+Y2fjdI17hDICSWnsujuOFOI5XUqlUs1gsai2dXlpm9zvDEn1UFT1dvDdkQW5Hjz+dGlzcEy//RS6yd5mLA9LX+QwCbYyDB/eZ2jPTkj8bGlPF2yxJnchYNDU1ZdEejN6oDQ1VGqZ/OWdDOy6tX3eAoat9jyZ3JoTxjDG+qjpBEBi0PXRopVJp5vP5VzzPe0FVn1hrKsQVQqdGRB4koqrjOLVCofByf3+/k8lkPpSQat9Jl1wklWRaw+uq+hfMXEpGFfUD2A5gj6qOJ72O3Qy4ZVUdJqKDzDxHREHSr2fXw9MEnDdRm8T3zTiO/eHhYScJt70vgJjEyDdcCRBXDS4uMXMriqIQQFStVn9iZha+G/lUH/Lq0i+2qycvyR3KovHOvGWyZwKiqlipMHM1URLvmBU5Ozsb/emeDT/4lfrSc+k2ybXThecBV7Vno7YO3BuWX/2O37Pc19fX+MscnqwAveDiNkB/5qpDtAFtErdUNbbWBswcZLPZ1az/dm5uLpgeGZnd5YdfdzWcsESpJnFtmd3ilNtz9Dmv7/gF4y9DUQNQieN4OZl5WllcXAzYvbY9UEDOOam3njb9R6xqBUCRmS80m81ipVKpJIZMDIDvGSvMW6ZDUP3yempA256UDYiViEwcxywidBdgCi4/gvYw8Cvml2IgCohCBuJR23A+0prfvtcGe9KQzxDhXhCnky/qsK/YmKhVg1med/yZw17PGz/2+k/U2amISFWtVoiwrKqLrVaraq0N0kHYgmdK2uZ/7ardpMam9Krb88ZJk76gqkuqOm+tna9UKsvZbLaRjKKjeLSnFLv6uio+gi4AURVaJ15+1S28esJkLojIMhFdIKIFY0wpDMPG4cOHO7y78as7+l/Z2R7oMNHFGWsLJmRmttZyFEXynBZObqHwLzy1kwbYtp5eJ4Acgr8vrn70BSf/6gmvZ2l8fLyZsEbJpXYfolKpZD3Ps4vD2ficpP5iYxTu7VH52NUMDwUkBAUtMrbzrG/nvAHMzMxE+/fvn1bVZ4hoz1qzCK8Yw2d2VfUJAPV0Og1jzAEAf42Idq5avCazDEsAXiaiZ9AetVQlopq19hgRvcjM24joSVX9oKr2dxNeJaK0qu6y1j5jjKkw85qUPFcAnF4i2gVgxPO8cxs3bqwmZMbvi8JL9m4IgHOVpbaIaB7tvslQVSPXdf9K5BDbI57ow4pLSs40BDXOm9TZeeMv+aqtjIStfD20e22R7wS8Oy47vyOj4NmVVrSYcv7D5jj6IAMDXZ0P4PaKHd8ZV/dOmdT0jElXRkZGWklF2vsOit8HTNrDPrRZna6mVTSGaVlrIwCRiMSVSuVyI8oe8+Zqk9z3oxD0T8rsDL3pFpbf8PKVJfYbsWqTgFoURRURKTuOUw6CoFqtVhtzc3ORN2auaf0RqPGi2/9yxbgrIrLMzIsiUiqVStXi2+OmFIB9cabc+PJtZr7bOy7KNiRjAZCqkqrSXW1O5vsIV88rqVKUUes+FC2N3tNa3j9mm3emWO8mUO9qELFAFBPVq+wszHFq5g0nf+yQWzi9wk6ZiOpibRXAiohU4jiuEFE1CILGzMxMJGMI0AaVbkP2dpZTJ95w8qctUUVESkEQLDLziuu6zampqYvg0GMrLXbNBZA2u8n4CBDPcfrEm27P6RBmRVVLYRguWmuX4zi+fGpH/FbNX4anFbQL/8x6xkmTzcVpO47jyA9trvzBqPJclpofZOgwFJluIjR9Eu2+P6reddLLnEmlUtWkevjy6EzHuGt53pi03GhGgGMCfMBcJV8rRNJip9FgiqxtH0mnuNK5eKdUV4joB6o6SUQfS8Ciux6PdrjzE47j9DPzHqyqKkq8nEBVzxHRKwBeUtWiqpZEpJRUT4aqSo7jnGPmucRr/Liqeus9g6p6ALYSUYGIGqpaJaJW8hnUBSDtUdV7ReSUMaaclNi/X2GxHBENrJObWgSwqKrNZOhylEqlfurDpd8Gsg7oZ0F4B0F3RNQyAO4MK5tTEruDGuSGNBztyZmmk4e9XO/cBUN3at00rePHhKLXJSASgV1o/7AND+y2jcMLvlc0xjRwDeN0bqQcH4F3UM2HuugP05jacy5FJA7DUNaaq/j0DKLikHM6s2HTvwuNGSSiXmOMJyJWVZtxHFfDMKymUql6o9FoTU9PdyZfqLlGg2yF3fnTbuZ8KFJl5uU4jpeazeblYAgAmAJismiAEWK9AjlALSEOlS9hrvrYGDYkuiyzzhk7u8PKnoJGd/dLNO4AA4S3+yQFCFvElTI552ZN+vRbXu7k607+bImdsirViKiqqpWEEKIaRVGjXC43h4aGwpn2PEKFRSgOFQHpiuAnBDXPm/TsBSdVSti0lh3HKVer1UZCLfn23ZtDTNtshZS7qvsNievnTercgvFKsWpZRJastSu1Wq2xBie1xHNzlsa4Ru2/X6+wRpswQYIJSkRaqVTsj6BvbfD5+y7sPgfY1h7KcfWnNYrUnrjy5Hjc88IJL1/2PO9qY6xkZmYmHBjPVhk6j3bOs/9KXqxVhBVylkvw6slw9IutbBeLUA4fPhxMTEwczWQy3zDGjAC4H11wbK6SLBF9aPWmreIMPQngZQBTqroAoJjMH1xqNpvVKIqiTk4tn8+vJG0Z+5IWinV7bFQ1b4wpiMg8EV0AcAHAtnWa3TsyxMwfSp5tqa+vr7l65tZ7GTF1HGc7gKsZHpIYEmVVbVlrW3EcX2nw8k+V9I5hH7fL5N+hEFPQ3I6odmB7XNvpqgYuNGDVmEmFCPpO+0KhAGU0cgg0cC2lU6zwCoi2T8SNvdOcPtns66tYa/9SvMS+Flz2cfe6QA6QL+IRvT2lfmZmZq37IlPFYjCez1fy+bwQUS159+I4jltBELSWl5dbpVKpk5fvANc1FZ8poPPGP1OGU00ApExENbRHmK1FwaiqNgJMcz1A1HZ+JG6B4s5aiUj7YG4j0uH1jAdXJbdNmne5qikQTMLyI5YQNMgsLbN7/oyTmj7u5E9Pe7m5kjplIaqrakVEKsaYShiG9TiOG+VyuZmEMuNisXjxHQ1SiMnKsipsNxvXIC6fddIXBKhDtWKtrUZR9E4wbBsP9mFBDdzdeLEmceWC419ogWrGmEocx+U4jjtDsd9xn4uAKKimgHSRzNUGm1BEhIi0Xq/r3Nyc/YuJieq90fkf5kgeNtARKNLr3SAiUK/GOz4YrNw3k8mf9zyvdgUv8eJdTpfqodfr1HG12aMKjZgbi8YvLhq3plYja22cVO5fkkux09PTldtvv/35VCq1yRgzhPYkhi6ZI9o5xdX5QgBlAEdV9WUAJ1S1mJC1zltrF+v1epWZWzMzMwJAJyYmTKPRaDHzC+l0+s8A/A1011/iEVEPETlJnuMttBv4uyj1JVbVCSL6pKqedxynPjk5GU1NTSneQw7L0dFRz3GcB3B1lqAQbXq3sqo2oygK4jj+S8thvV/y1BByBPpY26i5VKFRu6owXYBNX6JGO/MQroIS1yNEYB86uNEG+7drcPis8Rdc163j7fFQ75vkfHgANq37zAru1bjQHVYhPnnyZGPfvn1xtVqtWWvJGKPNZrPTrHwjGJzkgvHnKo6pwaJBRPV6vd5KhmfrmqqVYFU16sYet6C4yRyJiBhjZHh4WE11eQiMdYnDHYILqJuMmdIYaFbZzBfJn5lxs6em3ezZ0+wvlOCuMDs1EalqG6QqAOrJuLogGX20piGtVVjJoEVd3pcmmcpZk1oA0CSiurW2cSWe5a8D8htAS7sYL9aeKMG1BeOVAjI1sbamqvWkNmHNZ8u119ItobvW4QTJjFVJQEamp6f12+N9J0fIftuT+G6j2NqNUecocjvi2kN7w/LLr6QKK81m86rDjrN5sIFkLyfvuCxkbCtkFs+Y1HzIbpPVBlEURZ7nCYBLGuQVQFwulxc8z/te4iX2Xks+8TIwLAF4TVVfAXAmCf0VAcwHQVBi5urJkycvsRCTF8QODQ2VNm/e/MfM/FF0kcxNOFZ9ETFEtCQiU0RUBpDv0sN1ieh+IrqQXPRgdHTUzs7OKm7czMFL3dKhoQ0ADqpq7iqPuJCEkOsi0jTGNMvl8ns5muqGys6dO/OpVKoniqLy1NRUY9VzX/X50xnsYcIHAeRvhnWwwu9FdPv2qLbnqEmfCPr6yiLSupwR5T0WSjso4CqUhBefl8BZiQtpEbdlDKfTaRobG6OZmZkrguLhw4flMrNBblSUxAJRlUwtVG6KxE0Raa03JcdpGyPr9r4lL2jcZI4IdBG4iUwPkfW701ftOXwr7J4/b/zpUyZzctrNnZsz6VKZqaLKVRGpMFBR1Wqz2ay3Wq1GGIbh3NxcfCUgvBjtYKhaaDdNOwpoxNwqcqoiIi0iagJ4O/y6Znwcym53Q9kj4qBF3FTVlois+9md+9QN2CogLcNhJzKxKkwvXz+53HxofPD7Bax8jKEj3TTSE2AKanfcHS/fe9QrzLTS6drVUlqbIzjG0UFSWpOWMBkT15wz6TMn3ewFVW06jtMMguBiD/3l3p/Mz88HqVTqTE9Pz390HKePiD53DflETSpJF5j5eQCHVfW8qpaIaCEMw2Kz2Sw1m81awjL+jopAALZYLAajo6NvqerrRDTRxZfGRBQysyGiQEROMvNZItrYpZcIVe1V1Y8zszXG/PNMJjM9NjbWCTXdcE8gjuP9rutuu1JcXkRitNthzqtqU1Ubxpigr68vTkr/b3ahTCZzL4BfSKVSrQMHDvwgjuMftFqtlYSf0F7JOzSERwjYpbh+QuMbuhACpVSHNklwYLu0Xrtg3UVjTD2xVt83QvjYXL2c/GJSTcEeNLNRw/wMZZwgCIy1V43WvWeGHwCESmEEEwIIjTEtVQ2z2exVjQlVGHRXkalCHAdwo064NHGTe4D1SaUTooDiMSf36nE3O33KZM+VjL/UUKooczWKogozKnEcV621tUaj0QrDMFyVb+vKaOAux3+pQiJQqwkERBSEYRgmxVFX/H3PAQlA670sAkgMCgQcJtzIQcLhfMXPriWsXqrg9RDAEkWRkrXWdoZbr+Zcjv+0bs5vy/pf2ySthxRd3GUAHrRvaxzcfWe0/PIPvcIVuYW/CjCnMEDgbaArRgakxs7ilJN7q6hO2Yqth2HYUNWLrXq81osxMzPTsNYej6Lo91T1e4nLvD4SigiAC8z8HQDPAzjDzBcAnG+1WnNRFBWttZW5ubmrDfRUAHGz2ayhPcC3m3BtgHauUq21VlXfUtVXVLWV5DG7MEZARLSBiD7tOM5XfN+f8H0/NzY25uHGN2S7xpgHAWy6kqFBRIsApq21FRGpAajXarUg6b+56WViYsJT1XsBfEFV/zoRfcV13YO5XK5ndHT0inuaSWEXgR5WUN9Nhe6A22+jveNxfXePg/5UKtVhyn/fmvU9e3UuzU6oqZ27kNSIbfQDcIwxTn9///tOPPG2ouQgYgoBxGEYRt3kwVlg1vOGOyQEVhEHRJaZbRiGkii2lHbZ4hCAGy/4/W8+6w4cnzXp2QY7s5HI2SiKZojobL1ePxfH8UK1Wi2fPHmyPjs727pBoeS1lJ8NiQNVtVEUxdba2Pf9K36PAlBp5z7XdQ8BiYjCWBEn7WmdFq51DGz1uyHpjokiBWlnCEG1Wl0dEZLvzs8HP6DCj1pEP+wqfEztHH6vRrfvjqsHM0S96XQ6PTY2Zi5/7x4FPBXsBXT/Wk5Gxzs8ZTLHXvULM8pcZeZqHMfN1aMEnSvscTQ1NVWbnJw8Zoz5H0UkJyJPEpG50sBdVbVEdIqI/lhVZ0VkGe1eowUiWmw0GmXXdZtrJYbXeoZyudzMZDKnrlYtmoBdrKrLRBQZY6wxxibMO98kogOqel+3fZUJdg4S0ecdx0kz8+95njc1MjJSvYJHe1269cCBA48w88eAd1oynd5DVZ0BME1EVWtthZlrYRi+73mr65V0Or05mWjSUeKDqjoURdFgJpPpeCSXWL7t3CE+ANBBtPPCFwmYW+DK617uxTe8wnGjGhPUtl8qvnZIEqDHRtm7opW7R2xrL3c5NcBXHdgWNx+83am9UXLypfHx8foa/VHvXeiWUO/2jvkiuR1RfcuPTcEH4NZqta6n0txoiYhaIThU1dhxnHhlZWW994iI4XbjISqRDYmjJG+lzKxEpMoIoF1575RT2zscNdNTTrYaic7bKLogIisAaqVSKRgdHQ2TcW3vOYewEGxM3GTm2HGciJnjYrF4xe/87wF6vB2MpW72KmYOhckmgCtJC9cV5a42IqS1PRvy6oAICpUgzCwiomsMIZB/19DSnqz/u3vi1mOs6Lvae5dMqIAP7d8SNe95iBff+I7bX05yiZcAeXozBpnpgwTsWOszFZBFx5v508zIs2U1S9bGK0RUTqVSjWPHjl0VEC96aQkozqRSqf8uaW59CEDqMuWtqtogoiNE9A0RKQJYZuZiHMcLzWZzCUB1cHCwdejQoa7zX3Nzc9HQ0NBZx3HW80xrRHQ0CZtGAKJKpRKmUqnnPM/7QyIaV9WNXfY0dgbvFgB8mpmzzPyve3p6DsVxvFgsFq/m2XalqCYnJ7cz85cB7F6LgzL5Z56I3lDVFQCdHrDm8PBwnOQ1b3ph5gkAd61iJxIiSruu26eq9eHh4U5FnnZCHlkfdzDzEwBd/qLYBeOfecYfPDTl5GaTashmW9de32zInjjwChpUeiXszap0xYhCBN5gw4O7wvqBN9O5Uw3XLa9T+ZZE70B69ZKfrqTMKKUV2lWoSTV/W9zYeZuG/ae97HnP8zre7A2JMNhrANeIuBWBQiISa+26XLxfA1jbemZ9JQ/EMXMgIsLMktw1qFIFqkE31YweJL0vroy/Huefv+Bly3EcL1trV44dO9YCYOfn5983I9SCbJ1Mi5mFiGyr1ZJOwccVQdQBg7raKxsIB7HVmF22juPYbvQJE1LreaAKICRuWmXbKW5KcoiXtHHMzc0FL40Nvb6Nwq/1qHxlvQkgyUzOVB+iXTvjxsGjTs/p2d7eWpK/tQDka22D9h4GfXgt50cUWmVT/JY39L2zcIpMtExES3EcV+r1emt12sO5uh2NuF6vN8IwPJPNZv83Zh4moj2X7UMJwKsAfiQiC0iKZ8IwXACw7Pt+ra+vL3j66aevFUg0mQx/tf4XTSpWTxJRS0RazWYzajab0cmTJ8O9e/f+J8dx7gPwqYROqNuXuEML92Ei6s9kMv8hk8k8vWnTpjNRFDVWN8Zei0xOTvZ5nvcJAI+vFWpLPNQ6gCNE9FbSo1kOw7DmOE6QWKk3vYyMjGSYeQ8RbX47vUARAJeZU8YYp9MI25EP9CEPxr0A9q4OlSna43nOOqkTx530OVUtqeqitbZKRAEzSxzH1wyKdePweaQbAVVvy6hsgCLf1ZgbQvZ2W3t0PC68tORli4m1etX7kFi6zrvd14qgPMyIaJ2J4YkScXo02vpgUNq9ZMxM7Pup0dHRxo0iKGcFg2G6eaEiUNCCE6lq3M34smWANxO6Kohpt1yYIAFbCYJAyuWyhr6t+Eytbj7DKLwNNhy/3TYHi+qS53l2aWnJXu6FXK+sCGhA4aC72X1xoG2A7wDLFVpmAAC7ATICQ6aLkKlCIubAEllrrbRarXU93hHAKOCBsN74IA3ATUsinZDp0tLSmq0+L1u//LDj/lGWgseNYqKbSRquat8m2zq4JywfXnT6Fl3X7fQD69ZhbHYc+ryuUW+iCmkSrzzn9v/gx37/NAMr1tolACu5XK6jy7UbQASShsd9+/Y1Eks8ukyBh0R0mojeSIBwUUQuBEFQjON4udVq1Vb1t1yT0hobG3McxxlZTf22hjSJ6A1mrqhqo1M1lVR+ibX2nOM4v6+quwDcgWskF2fmDIAHVHVYVW8D8A1mnhobGyuvCv12ta7x8fGC7/uPAvg8EQ1dbv0m3nYEYAbA4TiOl4ioTEQrqlpP6JSu+l0iwt2Eh99r6e3tHSKih1adXYQ2FysSI+cS+SrAuQzGmOgRIgxeojgUWmGneNjJH7PkVA1TKQzDCyKyYowJEkv02sN41tK8T+VaxE/lgTu8a2gx6pN48kBcueuwmz8xMDBQjaIouFpfojEwhO4U/FWjJorWBOEs2jSH617fjMrwjrh298Gmf+QHXrY0MDBQX6P5Glfx1MzoKLwHZtGiy+6eYTgKON14vhFxEDPCpNCi4zlc8S5vAZhXRaKuCoiKOGAOOh6V4zhijNEIPAeVqhIprTvnFZxTu/GecOm+IvHxwyY/39PTY+bm5rrWFU8BThMwzwPR71y2vz0xmP3uPF4Lsk02LVXtgNa6hTuRwqS7DJlG4NAyx4aNNcas5vxdUyb64bXtwPU9xBaZulXqzGy9kuGjz83ORme39R4douibPSq/Rli/PYYBv0ejie3a2PMWZ0+2+voqItL6h7OzDvn4pCp94vIWLVVIg3j5dS///J+lhl5Cu32tZIwp1ev1aqPRCC6PmHSTfRFrbT8RfYGIJtcIMXYYITYDQBRFy2EYrtTr9fpllVjXJMYYH20ldSX3UVT1pIgcBVBn5iqA+qqKIUmn00Gz2XxWRH6fiE5dp7XnEtHtzPxLzPybrus+2dfXNz4xMZFNPNf19pD37du3IZ/Pf4SIfp2IDl4+DzIBQ0GbkeYwgLNEtCwiS7VarbK8vNxx63WdPTMAUmuBzvsoxvO82wAcXG31ikg9GXBs4zjuhM0AAI8OIeMY3APQAb2sEd8SwrNO6uSUmz+vqlVr7TKA5TiOVxqNRrnZbFau558wDMuH54OFEnkvREQvq6K+3jSCVV5i6o64+vi4bWyO4zg/ODjoJ3dhzX2P2+CR6nL/rtjjVGkgjpVe6i7EATJAql+j3XfG5YcOxs0taTSyIyMjXRWJPTOA/LZR3OkYfOxbwxhLjIW31yhwuuXljIGgBYpExEZRJEkO8YqyOAxHaX0l2c65UdyECURE4jiWVqslxhhdCp1TCsxDu3vnHWh2NG7d92Cwct9mCQZ830+PjY25WB8I6Idb0Zcawf09Y3j84BZsvKu9Lxf3OCtgZaS6DWtGMC0iEma2Cahc8V6+CRAbsHYXXpaIKBClWERsN4PG+wwy1GW1d4u4YYltGIY2iiK5yrPbF+puaUWdv4iAI9rFGTFAPnRwxAYHJ6L6bX4UFUZEMkNbnLuY+CvEVFgDDFeOOrmXv+tveKHGTklVFwEUm83mSrVa7dDU6aX3YB0ZHR1Ne573eSL6BNGlZcxE5KvqFiLqU9UtAAZd100ZY446jjPT19cXT01NrWuFrCXZbHY7gIevAohLRPQCgPmkUbaqqo1jx45d9EgPHTqEkZGRcm9v7x+lUikfwC+hzWBzTYCR/PwQgI8BGAPwo0Kh8OzevXsPnz9//nypVGom3ymX793g4ODtAJ40xnxaVQ8CyFyhMGkZwCtoM+YsMvMSgKUwDOvdEkon3qGPLvM7CSkBX8lzux4ZGxvLM/OTADZe4iS02T0iVbWO49hOXkQBetHFZmp7h5tXKw1RaJNN+TWv8GaLzMWG6HK5XD9z5kyAy4pyrlEIgD3hF06OGfPDFMV3cdsA6+rlL0i849Gw9MDJ1Oj5mKg2MjLS8RL1Mu8XRtRwlyFAVqUrlQlVMogi4Dlf8Xl00aMHAvuqG7ZI8PBD8fKii4FqK5sN59oG45rN1l8DzPAmbPINHiOmzwG0uSfL//ELE4O/94OqNi5OEyG4ULjdvEkKErQVvKyiybriufW34LFPg93cYgvETXCrk0N0HEemp6flpWEsbVVzyic8ACDThQHBKZWRHbb+xJPh4tyPTG9zGghn2nu1pjH6FOA8txm3+cCHyadPOEq5rDG/d99Y77fPh05lbm4uBGCXszB5IAXtop8PgBCks571QOvRTvga68NtQlsmcdInuMr7vKKkUxiAwl83Fwtog0zdMsUMsqsiAWs+yteLxeCeQs+bfTZ+ylUZ72J4MgzgFyS6fVwae4662VNPpusb0rH9m3yZo6YKbRFXTjrZwz9MDb10nvwLAIrGmPkwDEvMXE3ORt5pGK2zzsHBwccA/CrR22S3lytVAD2qupOIhowxB5n5TcdxDhPRm/v27TsOYOHw4cOXV2le8SD27t076jjOl67kIapqk4heE5ETSQP+iohUms3m5UUvMjc3F6bT6VnHcf7IGOMT0c8nIH495fIZAAeJaJuqfsBxnBe3bNny/Ojo6GsiMvP666/XAMjk5GTa9/1dAO4moocB3Keqm5PCJFojD1oB8CoRHbLWXgCwBGAxjuMK2sNOu8odtlMO5lro9jy0rVkSEcrlcu8WFLmnp2cfgI/i0hBhDKBORKGqxlEU2SQvot8HUjmD+wC6T0FpusxavkD+zBGnMJt4mBVmrkVRFHTjMaML3fM/nSnXbx/PPp9V+6oHHYOiq0ntBkjfHtUfe8iUDj/l9K/09fU1r2S4qMKA1vcQE6on46o1neLqpH+QAMgPZhE/udW8nqZ4znQzzLv9e25G7fbb4ubPZGyRe7n3P7m7dr314tGjVVzWUP7sKNIA9hqmzxDjowTaBZDLonicW29Ob7rtUG9vb9UYE0jjqEcKt5uQqVF1HG0XcgdBsO6ZGRcpBka7uYwCjhrtIhQbx/FFsP2zeUSf2MYvupBPmC4AMfFCnILYyf1x9ec3SpB9I9vzHWd8/NShkyffkSf+9jCy6RTuZdDnGPQkFNsAIAUtb/PsuU3pgTdFpDI/Px8ghoFDaWB9o5MB9jV2AGgcx7oeIB4H6A6BS2Z9r58BMhA2VhCju7y7D2wGdbd/NXDDqloRvRi6vpot8xqc4g44P0whfMBX3A9aZwoN2v3AIzY4+Fi4tLBLm3sN0Ye1HdK9CPoBqD5j0lPPev2Hpt3MbKRUFJH5MAyLcRyXc7lccCWdetUHOHDgwB3M/BV0MVU7CREMoj1P8XZVfUxVzxpjTqjqmQMHDsxYa08DOLmwsDCfTJVYDY40NjaWHxgYuFNEPktEn8UaYaYkJHpMVV8xxhSttUsismSMqSbkw5cv1KZSqaa19rSq/pHrugbAFwBsuU5P0VHVwcRAGCeiD6rqNBG9dfDgwaMJufhetCuWd6E93ilzBQBWVa2jzejzIoBzRFQEsBCG4fLCwkK9WCx2nfNxXddNQLurdSXE6H3M7IsIJ3PkrhsU9+3bN+Y4zpcB3H7Z50RoE+6GAKIwDC9yYvqjGAXThwGMrQaiNnsIhUe8niMVMlWCVpm5EgRBM8kR34hqWwUQ/zn7M5sR/7BX4vsNcFuXe0B5iXc8GJUfP+H0zJwxTn3fvn3B4cOHL8kl7m6Ps+nphpmjDS7i+LBuZ2rD6v9/CJCy4nQB9DRDf5G6q4wlKPyM6K4t1Mr1aXHrAV3+3qHxke//qyYW++bm4v9mE/LjLnaw8l3M+gSD7iFgQ6cQiIGtOdUHAcy0805FZUUWbZ7RdZ/BhbqexuayM6MrnWEmgxRAW7sBWwFskzlMSJovtkZMAbKo7gtpCqZZMUTUXX6YCbm82Lt8bQ4NNsPxfcb787lt+cN/VE+d21Ashr8wjN5hz9mZIrkP0I+A6ACAviTSrQbYnVbeXXCcBTsyEufz+TgfTjsAervonQdB2Ye63VZPbwHYY5NTqNfFpWWXYBjdR4Mc5lEFstTFixSwaamyZYYEQSCu615tDXJ0eql5ZqJnqhDHz7gqO5gw3MX5eAM23pOX6mBG7SbC26HSpACvdc5JHXvO63vpiJc/3RQsqMo8gIUgCMqFQuGq3Q5XvCQTExM+gE8DeBDd0Oy8DS6OquaTKs2RxKNqdgpEiKi0adOm2qZNmxpJy0SViERV+5Ow5Cgzj2MNjs+kmfQUgOeY+ayILKvqoqquiEjjCiE0nZqaiicmJuoAph3H+YPksn0+8RSvuSKjA4ztFwEFtAcNP6ztAaoh2j13+Y5HeJXezSoRvUBEL6rqjLW2KCILYRguRlFUSSYBdJv3dBKDJI/uQ6YGwEEReZOIzjjtHhezVvj3ah8zMTHhFQqFAyLyFQCfWh0W7kw7QXt8VSQised5FoB+FTCGcR8RPQa8c2ZdhU3xuJs9GwF1EalGUdRYWlq6Ed7hJUfxb6aXmg/fnnt6b2g/xe3Qv9tNX6KjyG60wQMfapXe+FeZkaVms9mamJiIp6enL4Yj5wBnC+lWBXVTkUkG8Hyoz8zcme23WonMuJnFDdJ42tP4CepCgVwERcBzgW0FtYM5a+8ZRfHnfyal52iMGgYYZcJmImwEaAhAuu3QgUQRLxj3zDOp3nkiKhhjao9HSkoYQpd5UVcllSJ1kIxnurzCeA1PIM2ELV3GvY2v1hCRGGNkFRGHTkfm7JDPTzkq+wldkBokZ86KdEox4cMO5ePmg2NKC/dmGudom6k7kBFuK+JNIBpU4GL1ulW0zprUW6+keoKyMfkwDFeq1Woj9P0UaTSCLgreDOBmbZxjZu5mr8wwHCEdNF2cBUM5JeI7rOyw05XRx4pR6sJDTOhsXGpHvLSb/OQhIL7P8+e3SvzDtAYPuop+Wq8NAyAfMugL+hIjh4hACmgMCs5z6tiP/IEfv+YWTtTJLBB0IQiChUajsTI4ONhcr/XvigeUSqX2EtGjidK/HsCgJEflJJZkXwJESnSRc9ASUcejcxIFbQDw5SCS8KOeA/Csqr5lrS0R0WIcx6Vms9nhRb2SEpfp6eloYmKiUqvV3kqn0//O87wLIvJFVd3DzO51KNLOI5pEMaRWhZXb2uTqHugSET1FRIeTdpUiM19Q1flWq7UyMzPTvBbFPzk5mVLV24gofY15tDEi+jkALdd1y2NjYy3XdbGKePny6Qa8devWXDqdLqRSqduMMXcl47P2oh3GuzxHagE0OsObVTVuNBoCQD+wFVuZ6EsEDK+RAdGzJnN8Ht4KEdWJqBZFUWN17+KNAkQA9t8up2f/21z4VK/ae6ltWHSzeyatsuV2qT76QOS/9RRl6saYDmBbABgZgmuUxom78OYA8lVygzbs84lcNcZc5rXroZPLze1b0q+kHHrOh36KuqQlSJS9YUUPA3lAt5NqpESiCo+QTHpIrm4nhzvP3rHfT2/+T8ed3FIcx24cx2ao2Sqw0gawet2YXjmNh/pslLfWOq7r8tWU/FcBFsUAeP2cUluBiddn4zRcXBZth/7r89XqbbflvjeuzU8TsLeLsVkX90oVhoB+D+gF6R0CxAS1UHKJwG1aQboIogpE007mxT9NDT9zwslVlJkdVdPb28umtZwy7ZF46wKip5oekmCjZ60bMZv1ojZeCy6ndDMR5dbdK9V0n4aDudj64ghnMhm62md/AWCQboJSuptz7pGwx9GYib1u30/9J1PF1t6dhameIHomr7LTdGHkEcBIzjI5K7WK8JyTOvqtzIa/eNPJnW7CFMXaBRGZL5fLS729vY1u+uDXPKCdO3fmHcf5OFGbMeTdaJtVynG1x2CS/7f651b/ufpnO1yl51T1+8z8OhHNM/NcFEVzzLx08uTJRhd5Npmeng4nJyfL5XI5LhQKK8x8NMkpPpmEQc1lz3xda1zLG+yAejKr8SwRfRfACWvtiqouisgFz/OK1Wq1WzDsXGYaGRnxXdcdS8K02Wt8fpeI7gDw/zbG/FcDAwMzqlo6ePCgJOCWSwjI86qaS4wbc9n6L1/75YBYTWj0ImOt3ZGJ+R9v9m7rQfR3mOgJBb2DBSMmCqZN5gxIgpSEgVq00q2WBYDpq4TbrhEJ6b9vfxbPOUU5Yvr/7AEpfwndAmKSSxyw0b0fDFdmKunUyjlo7A8Py+H5+RYA8QlZkO7pNhLtAumNEmy7N1zafJjy521PjzcxMWE6BsrXgXgTe9NPQL8+INE2j7AHtP58ucuAkVRBirbHQvS2d0SdcLUiPOum3vy/stv+4LzxF4iowkA1QxTcRnaE28aP18335lQGd4TV7UdM5rUF4VQ6ne5UYb7DgN09Ct81fAcUXjdUBjm1A5O2eseRMP/KAjhVjeOLUY4pIP6GNW/8Nfb/8TCC/4EVw0TXtE9JChRKCQCC2pnAZEyUqkJCUHPazbz477Oj3z4Pr0hE1TiK6lEUtfYtLHBPjx1rh0y7+m7Tr9HWJ4LiHT9yCxckTf7IyIjTaSVb/YNfA4zbgwmX6MFuHBcDeP023LpXKlsr6pw6Y5upkZERMzc3t9ZZ0Fc2YRMThrusMuWdce3grrjxw5PKp2tEbqleN1j/XbX/07Hyhf9le/a7KQnuZujDUPhXZbC5NLXS3n8/+/J/SG3+87PGvwBgkZnnVXXeWlvKZDL1ZBrJujpjLUAk3/f3G2MeUtWeawWHawCP9fJbHRBpoT0t41kAr6vqgogsqOqC67pLi4uL1+JJ6dTUVDQ5OVmvVCqazWZfN8aUAEwz82cBbFfVNK6xX7GLNVi0eybnk57NV1V1Pmm870wBWSyXy5Xp6emrrmdsbCxljOlJp9N5Y0wPEfUmQ5kfJ6JH0GUBwRWAfAjA0OVLv8xYudbztqpad9Ta0bCRvTMoj90l5d2Drv0Egz6vIF7r8gug98UrB3baei4CDfkSD+Q8Oefc5i5Sy6zMtVrlf7uM+tPXyBz0EuA2tyInMXLPuch9yCLvsukR1gGxle3argbtauZf57ld1f4tcfMjn2/OYYHdHzZ75BhlsnNjQd0bdvhRBu3rVgkbaGrENg882Vqo3ebW7ULk6kpNFEB5OkkJfDe7ubE1mH1+H+mfGYk3GMVwR0l3fy5r0Fu1JxZoCGrMuqk3/yC16btzTmqRRZY0jhe3xo36h5qLvaOI7mXoJHVpLBOB98TVj2cbcfOkyfICsa2OFfSNmXL9UHLXnwKcZj8yvQ4OGugnAeqKTs8o/Nuixr1fkjPBBfK/tyz80omNuZnnL9TKU4D9t2fKjTtvH/hhOor/pKD2F7stmupyrySpZnz1j9Mbnz4Pb1FVS0ZkIS/N8sH6Mn0qW93pk3wSoK7IrIlABbFbHw1Ln9lsW/EZ41Exa3RmeHj5u4mR9VWAPjWCVMSYcJh+WYH93RQJtmcM2q0PhCuf2mBDOceeXcyEUh0eXvrXqz77PsBNb8ZQxuCjUOzohraNCJRX2fz5YO6vnaVUrgROnU/rsSPDKH13/qqFgToDxK9E6WO9TvSUa+0uJox28/6pQgJQ7aibe/H305ufmoezwEBJROYBzLdareVms9mZI9mVjnjHl46OjqY3bNjwOQB/F8DOxCPgGw2MXYJJHcAJEXkOwJEEOBastfPW2mKlUinPzs5eS57t4ronJydda61PRLlUKtUH4EEi+gi1k+QjSQjUvItnlySn2Uie+xQRvWmtPYP2nMgVa+2StbYkIsvMXJ2amgrWA8O+vr7HADzKzCPJc44lYU8PN6Goag3An2+Pay9/oj4/vE0a4xmVSQNsQheFDtqe7hsLUBTgPJHOWqVzDeVnntPC0/+MssszMzMhuuCZ/CrAH9uMvcbB55RoAwEbSGlYiTbRxeKn6ysq0vZ09XoIOimMN6ziDV902CP9+WTqyrV4rmoVzYDoeAv8QlP52Zd9/+nfq+fnE6IL+uhEf+Zn1d45oc1fy4j9iAH6EzaR635+C8QNNkunTWbq+97gc0e8/IwAi24cF++PivTBYGXLCOy9rsiHiTC+Hu3WGp/faDC/HCo/W4F55hWbOfRvziwu/4MeZEZ7MOEYvpsJX4TibuLu73PnjkTATJPMMysw3/yWzT7zTUmtpFIpAeD/fV14YEKafzel8hDj2kFxjbMOK+QsTLvZ1//cH3jxtJs5FwktsLXzo7ZZ+XTrQv9E3NiVZnyCQR8iWj+Hedl6bEA02wC/0GDzzKz4T38t7Z7cUCnavyfYCgf3ENNnSOlJYuq5xueXEHSuAXqhBfPcOfKe/n820lMPz8/Lrw5juN/HHgI9RoRPEdH4tejBZG9WGsQv1EHfeQuZ7/1hetPJp6+u2wiA9+9uS927VeP/mw99rK1/r3xGorBN4pUjbu7lf5/Z/NQynAVVLTHzPDMvNJvN5Xq93kh0Q9f48A6FZIxRVT0G4OtEdK+qTiaeQz6ZQE/vgxK1aLMKHAfwPBFNd0ZIWWvnoygqLS8vVy/2RF3HVyQutIyMjFgRiRzH+b7neacB3A/gfiKaFJFhIkp12aKhCRCGaLdKlFV1johmAZxR1VkAy0RUBbASx/Fy8melWq02Oj1LV1Pqrut6ST/ob77fBsq7sGssgNrmuJnbIq2Hcyq7uq346+TVQHANsMkAmwC62wBR3XBh2XFOuOLGo6OjHUak9cLmzAb7mM3/A53cG92YC500wufS0H1Q7LOKMhPSAF1zfpralakZB3ogrXbSYR13xD/X29vbBFCZnZ2NvjW91BocH54yZL++jYJ0TuURVvRdq6fYyRXGoOYSu+ePufnDP/b6Xj/tps5Z0KKIzO8LV8KPhUsf7lX7BQa2g5DDdXhZDpDNi3xAIXuJdShIOfO7x8a0z8ze5Yr+KgEPArSB+Nro2jt3xAMmHLWbIyaDdPpURtNRtVptGGOi7/QOvOo2Fv7lFoRORuVeVuSuBxRFoRGoscDe6Tfc/CvPugNvLjj+glUsqsqFqNVa/Gw4v+EONH/NaZNNb7kWw2HVepwUdFtK7WhaZKJEfsWnnuW7vJg0XvkNw/QpAm4DX09RINiHbvFUN8ckdy2x19qQz8/dmWo5ear+HAM/R8DtBMqCrvEs2u9BX07lcQc0lDYoNo1Z2rlzZ/nYsWOd6Ndaefz4RbfvyGBY+r4Lu4eBUb3C6ymKuMpm4YiTf/kb6Y3PrZA7T0BRRBbiOC4CWA7DsNHlIImrA+LMzExrZmbm8MTExIVcLvcyEe0lov2qejuA4SSXlEW7uupGj75RAE1VvUBErwN4k4hmkmrSoqoW4zjugGGAd0dUrADiubk5zWaztl6vx8aYljGmCOAo2kwrd6nqBIABVc0SkbMaiJJJHHES1q0DqAAoqeo8gDkiukBERVWtiEiHTaeczFYrh2HYSFpFujq4ZLJ1o9uQ3k2AhmDmSFVrMUzdEprQd5/7i0CNInnBKT9f8KxbyGaz0ezsbLzeffgdQD5isMI3gml7vXwNoXCDPsqpsmPPeulOePwiE9MPbarCnvvSI6j4WzTQvMYPuYqhrpr2V4X9GsSVBeOffM0pvHrI7z2+aPyFWLVkbbygqsU7mvVUnu24IRy4EQsSwJTZc4+kC7mmj0JUMTuA+CEQbXg3nluSsLYldnHGyxVc4YLnefHMzEzzaTtSzfQOPftQVEptk1aUFbnb0e696sRrjxvEy+dN+q0X/b5XXnF6TlTYWUyM9WIYhkUnCCoj1Bgz0AcItO1aAWWN7+WADJ9wU6kVpPqbxiERvt8Bbuv2nK+GXzHInXay5Lip/qrjOtSkO5mwH/TuuHcF0AabeNZNp5tAn+u60djYWNQZxLvWr/zD43PVPbelv59RecyHbliLECBWRCvsnH/DLRx6OjX0SpHcCyIyz8zzRLRIRCv1er2ZsNBcs7N0pUXbarW6bIx503Xdec/zjjPzqKpuFpHRJAQ0lLRK9CZFF871ei0JDVuLiEqqelpVp4johIgUE8aWRREpEdHy8vJyLfEMbxTRtZ2enlYAum/fvghAEEVRzff92aQdYScRTSRMPMMikkoqY2MAoYjUkucuElFJRFYS/tGyqjbQppWrqWotaTOpA2hWKpVWQm3XdQ5scHDQJhMwGgByV0hZSgLUctm/32iwo8QgYrxdGXx5GF5VNQDQaIIqVrmiCuncEm1jpgpgQWTboSJlBpgAQ2soKwW0xbwy42TKSyaV9R0nU6/Xux1tpJE6ZRdaoXaRwzteYihEkrYTJVIFhAAiVaZVz4UrW6+d0VZMq0rC23GwNgApYJUgAIHa6zUADK8BBi3i5ZMmc/a0ybhQ5Hp6ejrnLzMzM9F3R0aWm32Dz91ty60dUfPCAKIPZVUm1itfV4UGRNUl8s6edVInX3d7jk95uZka+4uquhTHcTGO41Kj0SibxlJas3ReweFqYvHO+V22JiVVw+19YuDSM1RAq2yW3nR65hYonYoNUjXHqQ1aW6V2JOriyK/2H9DOZ6uSEoFI1XAbDC75bFHYCrnzR5z8hRVyM8Yg7fu+MzExgenp6fC5vslSHfYHDzm1xphtzfXb6AMp1bH1yNJFYevES0uOf/aUSZ847PYcO+Zmz0Xslki1FEXRIhEtiUj59TNnQt2KsjIvABjHqirgzl5Jm+nHqpK2Z/619+vy4igFNCJqnDf+7FG/EAXk5BZsumUjmhOo5VXFLtrZK4VVQJQgSbuhMaQmubuXfLYA8QXjn3rNKzRjUKFoUq2IeMmDNNuVyJfmli+eM0iSqiI2yXOvPgtVaEhUP8vp2TecbOQ4Ti4IgnKr1bpakY0CiEuqC0pYUIWldxok4SJ7Z19zCy896/W9cYG9ucjaBVWdi6JosdVqlU+uQaJwIwBR5ufnw97e3qqISBAEddd1zxJRQVX7VLXAzP1ENKyqwwD6VbWAdk9eLqlMzKLdjuCsGqu0WnMrgCjpxZsHMJtUX86iTcfW4axcJKJla225Uqk0V1Hu3MjSewEQHT582E5MTMQiEqpq3fO8EoBTIjKkqhsAjBJRvhPWTZhXGqpaT0Zg1VW1KSJNY0wjUVz1ZrPZCIKgCSBIpm13vJlrOrRDhw7JnXfeeQjAn4rIZiIySfN2Z5pEnFSy2uTPi/+sunQ3RJKxTp22Gid5FldVHSJyExo5A6CoqqULnF64YLwXXNg4IuM1yEiLGDGRtSAbE8WqEAOwITVG1TGqjgN1GOIawDUKhyBU5NSZKa/nQo0cXdW83lVR1UpszpNj/4Ml2tmCY1pMFMFIBIosKBaCFUCEuK1YtA2IDLAhMawwpDAG4hjAZVXTfl44BHEAaAum6UB9B2IscRiCgggcxkSRANYS20RxqSEYV8WwwnVIXKPqsqrrAg5DTNGkzrzi9J5aYd9qHF/eWiBzc3PBD2S4VOrpP3QyHZT2h9WZjRI+UNBwd1Zl1AHSFxUVoKKIAuLGiuOeO20y00ed3MkZTs+VHLcUkLMsbaKLUhiGSwCqMzMzQXkEYRX84xToT2Li4QY5HBBJCI4j4tiCrG0bNFYV6hDYUXEM4BiIZ1RdB3Adta6Ccc6kpp/3e8/EyXOdYu/YoEbfIMWBgB23CUbAbCPlyBKsJbJWySogDJBL4jgKx6i4Buo7CtdAXSHIWc4cf83rnQ0dRxHHYGY9fvy4ArBTU1Mtu3PnQpVzz+0y5cXb48b0sI3u7UG8MyPxqLMqh6wKiYiaTeJKib1zp5zMibe83OkZTi0skVcS0LJaW7LWlgCsXLhwoZ6Mh5PFBuYyOf5jJWoExJkWGbSofcei5L4DFNvE2HIIxlFxjKproK6j4hmCa1RMjZ2Vl5zeNy5wuuUYQ+cir7lkzJ/1WvEDokKTDAXENiRjY1Acg6yCYsuwLIAhGFZxXRXHUbgM9RxS16i4Ftx63u17YcFJB0aVz0dec5HNM1DqF8JIgxxuEWkAE8dEsQWsgGNpP7cSYFy0z8KBeKzqudS+vxVyii97hamznGl03tH1ehO/PYyBDMKPOor9pHSxpUcVagnBvPFOvez1vviC23fkArkXRHVBVS8kdSXlkydPtvAuJ5SsM9EDZmxszHFd1wPgp9Np3xiTJqI0EWVUNZuU4meYOQ+gkDSkZwFkVDXFzF7CiOKpqs/MbtKUXkvCjHUAJSIqAaiISBVAmYiWAaw0m82VOI7r09PTrXeD/NcgDIDHxsYcY4yfSqXSAHKe5/UBmCCirUSUUtVS4rm2iCi01gbGmKaIdACxFUVRyxgTEFF4+PDh1SB4vWugiYmJwXQ6fYcxZjOA3k7fITPHIiIdIETSIJuMxUHnv2+0lwiAmJmJiEXESYDQ6fw7EbUAzLHI/AGpyG1Rs2cRbm7RcdM1uG7Qdi1FEm+s424qQK7GxhN1XYjjqToG6jhQrrBTP23SF5rGuxBF0blarTZ/8uTJ+hXyE5fIbw4N5e7IB7vqrr9tnry+mnEzNTKmSY6NlCyYLAGqyR4KAAgpYMHttRKpZVfVuCKuT2ocVWOgjqNqCKA6mdgn68AqB0xxwG7QAEUW3O77IxJpKxQ1RMqqRAB7NnJTpI4r4rpkHaNqljhVO8NeMXD8orV21lo7l1AERqvf0+HhYX9oaCi3naINgxJuG4sbuwYkGktBNqTEFgzBa5BpVtitVMnUz5t0cdpJz5fVKUfGlFW1TEQrYRguB0FQqVarjVVpCf7qeHag17i7VtgbLZlMfoXZr8NFRGQFUDDb1WsiVTaq7ErseKqOB/F8WAdQXiS/fMrJzkm7JuDCluZS/WGpDhP7Y/OO179s/EyVHWoRiRWIEgkne3YxHAGQkdhNQVxfxPVgXQC4QOnKOc9fiITmoyiaDYKgOD093UjuBgEwk5OTKd/anhEjG7ZoNLZRWjv6NdqSUu33YXuhcOrs1Mtk6lV2a2c5tXjOpBfr7JQD1UpSFLfcarVWjDGVSqXSXJ3D/gLg3T/as1XS3s5FTg+VPC9bIzYtMhJeth7THhdKvOq++xDXEXVdip0mnOC0ky3WyCxEInMp1eKDrXnvNo0nFtgbXnT9fNV4ThOskbbvlhKJJjqGO3ulsUmJOi7E9UldT2I3Vid+y8ksrBh3EcB5DoKFB2olM+bGY3XXjCxypmfFcf36up9t2RNxMxDXg3qOxk4NbuuEm1pokLegqnNxHF944403ymiTdLxDDz07is3G4BeY6JcItBOgi0QDMdA6Z9LHnvP6n3/Nz0+X4C4kd2deVYvW2pX1ChJvBCCu/hmenJw0lUrFpFIp13EcN5vNeiLiWWt9EUkZY1LMnFJVvwOAxhgXgCsiHS/CWT0SSFVt0mMYJHm4BhHVRKQSRVEVQG15ebnVTcHJewWMu3btKqTT6QfRHtt0IAkPm6RwpqSqUyLyrDHmcBRFy1EUNV3XbVlro3q9Hicx8xs1bZsmJiY8Zs77vj/gum5fFEVZYwwDgIjYDggm43AUgFprL4LhjQTFjuWnqmSMYWutUVVOWDbYGEPWWk2MhEoqRbUUgMhqLhaTB+BF7dBrh8hY4jhWIlIRYcdRElFmYWOMEgkbNUoiLFF71NdKHMeLSbVxq8v9de4aH8+ms9mBQLVfjMmByLXJPiUTBiTZR+08z+o1d54r4Y6lNgWzsrIyK1M7NxNffJvZ82wUhiLMdvXZJMaKvv2ZhrnN6WxEDRtVEiKR9gDciqouLiwsLM/NzbXWMKrM2NiYm81mM47jFHpU+z2j/WkrhbTaPAF+0xitKcWRchwQBTFzMxm2XBGRchiG1TAMG8zcmp6eXp2TpYmJCW8j0GNTPGDJ77XMaStimEjsqjVZayWZCU2O45BI2D5ZFiOqbNSQEEncfteXgyBYttbWh7ymY7ivEDjSH1uTj9v9sSrSnq+XfL5Ya7UdB1RSFSbLhlkMq2FVpYjZqmoziqJlY0ypXC5XZmZmVithAmBGRka8QqGQNibuLVCqzyXb64r2pBl5ArwaGYmIrWWOA6UgbkeAaiJSsdZWOkQRx44d6xgNq1M4PDyM9Fh+og85fwDs90RR5KkBiVycYiGr71f7HRI26pCwGBZhEjZEpP//9s78t67juuPfc2bufRsXUdxEhTYhW7ZsWqLsJnHSGq3TpEm6pkgKdANawAmK/NA2Afpb0B/6H/QPaIGiBYr+YKMomgBJA6R17TqOnVhyLNvURlmLKVFc3iPfdteZOf3h3Ss/yRRFSc9L7PsBHsQHUMM7d+bOuXPmnPO1QBJb285d2OVy2U4RDUVEe53PexxzWYkix+ystdeeJWute+f5dCyiiXuTjMmxys5cU8fcttbWjTFNa226J0mqpuaNCZX2gKjqWNg5cts9p72xcJw/p0ROsTBbInFEcbaWN5Ik2ep7Mel3c9BL05hTZXyDif4EoHsBaFBPcCwFwvO69toPyxM/XtK15ZC9DefcWpqma8aYdaVUa3FxMRyU15Du4HfpySef5PX1dW61WqpWq+kwDPWePXs8IvKYWaNXMNozxmgi0sys8wVTKUUiwvnD45yzIpIqpSJrbZSmaVgqlcJ6vR5nrkXzPhtCAMD8/LzPzA9prf8iy1GcyNyB3Of5dURkAAQicgHA/xDRD6y1p7vdbhtAnC0sg3Tx8tzcnD8yMlJJkqRSKpVKvu9TkiSSaQO6OI6Fmd/16Xa72E1JpV37mZ0j5xxVKhXKfzbGsO/77JyjUqlEYRiStdYwc6yUitvttoyMjPjW2pLWWgFAkiSOmcX3/WuSNP3tlUolstZyXuUkSRKx1po4jqNqtRqcOHFi1wXQkaXcRFFUKZfLFREpeZ7H5XIZaZre9P7d2Oe8f9Zads6R53mc/9x3xiq5qyhvO++r1tr1t533tf/+eZ7HzCzOOZMkSQyge4u+EgA9Pz9f8n2/EsdxtcxcNcyVLEJZIU3JKWWNMQkzR2EYBr7vB1EUhWmaJhcvXjQ3eflUs7Oz/sjISCVN0woze+VyGcwsSZK4/v5k13zdnCiXy2SMYc/zOEkSCYIg1VqHzWYz3L9/f5rNk5JSqpaPCRGJ1trd2H7//XLOke/7nM+TOI7FOWfSNA07nU6wQ/QxZ7vFUpIkFc/zqsxcrShVFs/znHMqG0cjIqm1NnLOBUmShFnwXby4uGh3GAs9OTlZnpmZqWb90nl/oigSrfW1Pl3bCWXjn/cpn+/WWhvHcZwkSeD7flSpVOTKlStez6CrqtZaZS+l1+Zv3n5/2/3Pp7WWfd+ndrvtiCg2xnQBxKOjo251dVUDqFQqlUq1WvXyOayUcrms043j3H/dvu9TGIaUybxFcRyHp0+ffpeE3bOALk3hYV2hv1aErwloDFn5HwgkBnV+7o88/x+lmZ9sal23Qg0AawDWjTH19fX1zmovf3Jgwuk0gP9P2eTK37zYGMOjo6Ncq9U4jmOVPRB84wKqtXZxHDtjjEmSxHS7XZOV5rIfwI7wWp+OHDmyh4i+pJT6FoBP305pNxEJAfxURL5rjPmZtfYigEalUskV7wfh8uVsR6CSJLl2aK+UEqWUXLx4sf9MTbY5vKYB3lu6YS5gdnaWMpWGa9RqNbu0tJS/GPDs7Oy1gIDl5WW5yfXetE2llIyMjNhM8drdwf3jgwcPqiiKuL/dlZWVG19eZKc+919XPr+v/ZFswcgXJqWUZH3dbnx27GumdL/bvjIAPTMzoyuViuf7vtZaa8/zVBAEUEo5Y4yJ49hEUZSurq6mfe58uZ15t02fZLv7NDc3B2vttX7d0Kf8/6jsunmX85luHIO+tnd7Ts/ZuuXVajWttfZ831fGGM4XfWOMyT0+t3n+r7IXCWWtpV32513zSikl5XLZ3fByzQB03vZN7tct2+6b89d5BHYY55utK7TddWdj7G5cz78LVMc/gc+WNH1bwL/J3AtsyoLsTIfV2gve5I/+c2jf8ewYrZ6m6brneethGG6GYdjN0irsQBf/QRuTbRbI/g/m5uYonxye50ke4dk30PIBGUIAoAcffHC8Vqt9BcBfEdHRO00tyVQ5TonIswBestaeds5dqdfr7ZWVlXhAA7ldLULZ4TsdOnRoSGu9Z21tbXN9fT3se7BlwHNpu+uSm1z3Tg/ZTu3d7XVvV3JPbnE/d9PXnSLpdvp+s/7e6TORv6yqgwcPUpqmBACZ9Ja7w2fuVvdMdvH7txrz2217EPeL3jkWuy5VYrt7dTfP6J32Z6e5SLto+1ZjIXcxzrTL5x4A8NJejFAVX1CavkXgX83TR0TgUiBqsH/xufLEs89XJk5FtlfNi4jWnHMbzrlmGIbBnaZVvN8G8XYXy0EsagPjvvvuGx0eHv4qM/8NET2CXnV+k6VZ5DsrjV2WdsuiadMsKf8VAMeI6LUois5FUbTeV4PVvR/9m5+fHyqVSp8H8CkR+e8kSY5lh9Hv2zUUfGDQLgx0wa1fkAru4r4+vw8TZY3fJc1/SUS/lEdAO4GNiFtXuHT6hfLET475I+e7jhpEtKad2/DStOHbre799SR+WNfdNIB7HCi04CkBtR1oC8AQQ1LqjVlCEPZhV1aQfnOXR29UjFGPrCzal4noO0T0afSioTazaNJ2loDvZ1Xl92R1XqtZgM0t5cKyii0bAM4AOCEiLxPRySiKLi8uLm72ucPeqweQFhYWHtda/y2AI865f0jT9F/DMGzdbe5OQUFBwU48Dah7pnEPl/EHivgpAh4GEWc5jrYLVb+kyydf9cZeX9b+Vd9Jd8QlnX0uaU3aKJwySTqCGCUHzWR9cvA1wSdwyZHzGT1haCE4R3DkermrZBE55bZCg00LBGB0rzSx+VQT7e3W28IgZhw9evQJZv4OgM+jp+7+Jnouz7VMocKgF3bvO+fGMy3FWSKaArAXPZWJWwrsZkUI2ugVLD8J4DiA14wxZzY2Nq725VkO1DgtLCzUmPlbzPxt9FIw/tFa++8ispGmaTOL1LLFTCgoKBgkrwBeMouHPKY/BtEfEuFAnm0gvbKB0SZ7b19RpYsJuFsVh5pLeQhWVcV6Gq6sRDRn56aZ+obOBKzz7/2u/17BCIIwkEIQOkJbhDYcYaVt+Sc/Zu/5f8bkVl95NwFwd+V5PiosLCxMKaWeQk8MuQ7gf0XkVedcg5kjAHlaSNpL9ZMSekUIxp1zs8w8B2BORA4AmKAdhECJiLMCB4dF5H4Avwzggu/7r05PTx+bnp5+rdPpnM9ULwaVrgERuQ/ArwEYz4xxwMwjxpiw0+kE2Y64MIgFBQUD4/tAyXwCj/ma/pyEfgeE/YLr4zIUxBt16UxNzAQDpCCkepWhFPVslJdJ89Bud3N0w6mmElghJAx0hpQ8cECpaH9t9KXRhYXrIrcLgwhAa/1EZiwuisgPiOhNIgqUUil6KRWtJEkCAEkWoadKpZJHRBXn3EhWvWcfMx8UkcMAjgIY36lKPPWoZnJT0yLyCDN/QURODg0NHT98+PCLzrnXAXSy8O67caf6WusnMn1LJSJdAO2sDJ03NDRUeAoKCgoGytOAGvsEDilNXwfo94QwiRvl3npWTvmQoRKEdmXt7gSCIqBCghJDHq0IPrs/Dd4+61Uvz83N2TzQrDCIgHLOHQZwTER+6Hnesoiwc85aazsisqW1biulwitXrhhmltHRUe52u0pr7ZXL5bJSqgLggnPulNb6mIg8mCmFfDLbMdJOhhGAJyJj2a7zADP/iud5vy8iPyei7x8+fPjldrvdzHLEbjva7ciRIweI6LczEeQk2wUnSilyvezyDzKyt6Cg4CPIPVOY0BpfI9BvETC5nfYpvc/HdkIgEgx7cA+MI517S6m2UupalRtVDBswNDR0joheUkpdcc45Y0xqrW0aY+rNZnMzjuPWmTNn4jAM4yAI0kajkT766KNJkiTx5uZmJCKhtbbLzC1rbV0pteycOw3gZJa4P0n0Timim28YibNd+zCAfcz8CIDPaa2fqFarpX379q0RUdLpdHb9DjUzM1MdHR39CoBvZCX3uugJFJ81xmymaboZx3Gn0WgkhVEsKCgY0O7QH9+LzxDT10H0MG4iBP5+QwCloPiqrpw77u8514BqlsvlYO/evcn6+nqxQwQgS0tLq48//ngrjuNhY0xsjLFpmgbdbrebKWu8K2T3ueeey39M0Tt/47m5OVUul7eUUnURWWXm89baV4jofiL6dSL6DHru0UruTr1x99j3XQGoElEVwKyIfBHA5ZmZme9OTU19LwiCJWttPStoe7MIVZ6YmFgQka9nRcldVgz3FHpniJFSKup2u0WEaUFBwcDYO4UxML4IoSMgfCiMYa7OEhG339KVtQtcNkTkeZ6nOp0O5YtuAUCXL1/G8PCw9X0/TpIkMMYEly9f3m0NVQHgms2mrdfrdnV1NRkbG4vDMIx83w+YeUNEFgG8AaCNXrSUnwXf8M0M4w0wEY0C+BQzf9nzvEOlUml4//791bGxMZ6cnITWmvLd4/z8vDczM3Of1vopIvoygJKIdInoRQBvAmg45+pKqc2+AJ6CgoKCu90dqvFxLGimPyPmQx8aMfOelluyxuW3fuaN/vyqrqwopTajKGoZY6JGo2GLHWIPCwBLS0u2t6u+lvbgbv+W90ognT592gBIDh06FFYqlbyAch3AWWZ+Xin1WefcESI6kJ0flndTFSf7nWlm/qqIfElElkql0nEAi1NTU+fHx8evKqVaSqm9IvIVAH8EoIZeqsWKiJxBT8i4C6DbarWSYndYUFAwKCYBzwMeAuiBu93R5TqiuHXcRC8K9SaCz7m+ZiTcvqArb53zhtaYOTLGxM65NC8rWRjE642iu8G43cVY9trLDGM8Pz8fGmM6WutWJih8jogOMvMRETkC4AERmQRQ2Sk6td8wZm7Qx0TkKICmUuqSUmpFehI1YwAeI6LxTLswyHapVwEEzrl2GIbdJEkGKbZcUFDwcWcGQ47okAJN7rhI9pLyAcBaIuMAIwKbSUxZl2thAokhTkV6kmxZybDr1mcW0Zqcr0U8ArSGeJ5IlQE/d9daQbrmld4+7o2e6bDXFOc6IhL01fIt0i62MWSDbs8CcFnqRDI9PR2Oj493nHNtrXXDWnsWwHEimnfOLRDRg0S0L9OV3K5W6c12jWPZ52juocj/zWS2lonojHOuCaBtrW2Vy+Xg7NmzH4iaSEFBwUcTX2EfEc0T9Qp2X7frEBhDFBlQnBLFKThKmLshcTsk3Y1AYcocJVBxzBxF4NgAaUoqFSEr5AS5Tmm+/oHEE1GeWK8E8cvOlva5+J57bPjYkLgpAEoAhMTNRTX8xpIeuiIibedcyzkXjI2NJfV6vUjMf58NrQXgVldXzerqajo9PR2Pj48Hnue1nHN1Y8x5pdQJInowy2V82Dk3R0Qjd+ODz+qpNgAcz4xixznXVEq119bWimT8goKCgaKBWQbm+3aCLgZ1O6zrTeVtNEk3uqybTahmi3Wrw143JA5DUlEIjg2pOASSSPlpAqTMbHNdTOfcNfHzbdY6YufUHjblr4WrT8yZ8LBkOfoiMFe8ytJLpbFTKXNLnGs651pRFIXZUVlhED8gwygAkswwJjMzM5Hv+91KpdKy1m74vn+BiF4novsBHBGRoyJyPxEN3a7yRmYMmyLyKhG9ISKb1totAFsiEqysrKTF7rCgoGBQfB8oEfEhCO0HAUaQNlldOa+GTr6lqxcv68pqm3Q7BPeMoFCYEsVZfnQqImmmQWk0YIwxTillnXOWmXNN0evEznOhct/3yRHRgaA5fa8Jq2W4Wn6eGDK3XvTHfrZK3gaAZrYGdtM0ve7IqDCIHxwOgFtZWbEAkrm5uUgpFSilWiJSZ+a3tdaLRPSKiDySJfnPo1czdTfFxB2AdRF5hZmPW2tXATSIqJGmaavVauXligqDWFBQMBj2YYSYPgWC7wQuYF55zR/9vx+XJk5vkG7E7DWNSFtEAqVUaK1NCEjSNE1EJPU8z1hrrTHGiojVWrsgCERr7brdrlNKCTNLo9G47s/u3bsX3W6XajXDv5HW909IMseEGgEkgJzyai+/4o1cEOaWs3YziqImgCArdiKFQfyQGcaLFy86AObgwYORUiqoVCqtIAgaWusVZj7FzD8looez8msHAEzjnYLiuRV0WSHyqyJyiojOAbhsrd0gojUAa2ma1q213UxJvIguLSgoGBh7NEYB+QwRUSrUvsTV13/qj7+5zOU1R5SrB20lSRJQtjPMBeI9z3P1et15nucysWOnlJLh4WEcO3YMO61XuYH8l/3Yc2+JH/Ic7iciHwRssrf0I3/q5Zh1q2932HHOvSugsDCIHzLDmPmzUwDRwsJCYIxpOecazrkrnuedAfCCiIxmZ4t7RWRYRMrMDBHpAOhk7odIRAJm7lhrt6y1G9bajTiOm0tLSxGKs8OCgoIB8jSglMJBBg6IwAZEa6f96skLunTVCuqu56Vai+O47ft+1Gw27cTEhB0fH5epqSl55plnbqaPuysv1t8B/IDGnO/kiwDdK72qNJvP+eP/dcErrxHRZhzHda311vDwcHDs2LF3BRQWBvHDR37O6E6cOGEAxLOzs6Hv+y1r7Va5XF4XkRoRVZ1zZaWUD8ADwMxMAMT1CrEmIhIC6BpjWkqp1sbGRmd1dbUIpCkoKBg4mwDvF9SYacMCpS3ln3tb1S4b4RaAjSiK1qy1jeyF3KDnGRvY3//cDPb6wOdB9EmAPAuEi2ro2Vf9PW+lwk1r0joz17vdbntpaWnbdLPCIH74jaNZXl52ANK5ubnYGNMFUKpUKiUAvjHGY2adpmleCk6Y2QFItdZxmqZREAQxgCjLt3kvRYgLCgo+pnwTSP9N4YVJUX+fKp4/r6qXLqnKZSLaiuN4i4javu9H6HnABroGPQ2omuAAET0poBkRJBvKe+O4N/r6GvQWgC0iagRB0MYOUneFQfzF4Lpzxvn5+Whzc1PFcayq1aqu1WrsnKNarUbdblc8z3NhGNp2u23L5bLtU8kozgwLCgreM/70POoPPXTfP93jYyZ0ejxgz1lr21rr1sbGRrS6uvqe5D0PAdp42EdEEyLotJW+9IY3+uLJ0tCyZdUUa+thGG622+08EV8Kg/gRMYyLi4uUuRyo/zM/P49Tp05J3+/upuRRQUFBwcDWqM3NzWj43ns3giAIPefYORd2u91OJpTwnqxFHcBoxlKZ+Hsx81un9dD5F/09Sy3yW865RpqmDWvtLa+hKO79i8u1s8bsY9fX123f98IQFhQUvO/rUrfblYmJCdtut+NyuRzEcRz6vh+tr6+/Z1WxngHkUhOd6sTQpbN6+NzL/ujby7rWiq1tMfNGHMd1AEGj0djRXVsopRcUFBQUDBqFd7xX/S/p7+nfXFhYKCdJMuL7/jAReUmSJJ7nNRuNRnt5eTnGLY6NCoNYUFBQUPBRgADo+fn5knOuZIzhNE1Ta23cl3ddeM0KCgoKCj4+RhGAf/DgwRKylLTithQUFBQUfNyN423x/4NZH5Vty+94AAAAAElFTkSuQmCC;shadow=0;dashed=1;sketch=0;fontFamily=Comic Sans MS;strokeColor=#CF7F67;strokeWidth=14;fillColor=#000000;gradientColor=none;" vertex="1" parent="1">
          <mxGeometry x="40" y="180" width="190.31" height="40" as="geometry" />
        </mxCell>
      </root>
    </mxGraphModel>
  </diagram>
  <diagram id="aDq-ihkzgaRVoqClcqvo" name="oauth">
    <mxGraphModel dx="865" dy="556" grid="1" gridSize="10" guides="1" tooltips="1" connect="1" arrows="1" fold="1" page="1" pageScale="1" pageWidth="850" pageHeight="1100" math="0" shadow="0">
      <root>
        <mxCell id="0" />
        <mxCell id="1" parent="0" />
        <mxCell id="sBYfoLoBeomyWDFXvlNA-26" value="" style="rounded=0;whiteSpace=wrap;html=1;fontFamily=Comic Sans MS;dashed=1;fillColor=#f5f5f5;fontColor=#333333;strokeColor=default;" vertex="1" parent="1">
          <mxGeometry x="30" y="40" width="790" height="400" as="geometry" />
        </mxCell>
        <mxCell id="sBYfoLoBeomyWDFXvlNA-1" value="" style="rounded=0;whiteSpace=wrap;html=1;strokeColor=#d6b656;dashed=1;fillColor=#fff2cc;fontFamily=Comic Sans MS;" vertex="1" parent="1">
          <mxGeometry x="679" y="90" width="120" height="330" as="geometry" />
        </mxCell>
        <mxCell id="sBYfoLoBeomyWDFXvlNA-2" style="edgeStyle=orthogonalEdgeStyle;rounded=1;orthogonalLoop=1;jettySize=auto;html=1;entryX=-0.005;entryY=0.954;entryDx=0;entryDy=0;entryPerimeter=0;dashed=1;dashPattern=1 1;strokeColor=#36393d;strokeWidth=2;fillColor=#cce5ff;fontFamily=Comic Sans MS;" edge="1" parent="1" source="sBYfoLoBeomyWDFXvlNA-3" target="sBYfoLoBeomyWDFXvlNA-1">
          <mxGeometry relative="1" as="geometry">
            <Array as="points">
              <mxPoint x="431" y="405" />
              <mxPoint x="431" y="405" />
            </Array>
          </mxGeometry>
        </mxCell>
        <mxCell id="sBYfoLoBeomyWDFXvlNA-3" value="" style="rounded=0;whiteSpace=wrap;html=1;strokeColor=#36393d;dashed=1;fillColor=#cce5ff;fontFamily=Comic Sans MS;" vertex="1" parent="1">
          <mxGeometry x="254" y="90" width="120" height="330" as="geometry" />
        </mxCell>
        <mxCell id="sBYfoLoBeomyWDFXvlNA-4" style="edgeStyle=orthogonalEdgeStyle;rounded=1;orthogonalLoop=1;jettySize=auto;html=1;strokeColor=#6c8ebf;strokeWidth=2;dashed=1;fillColor=#dae8fc;dashPattern=1 1;fontFamily=Comic Sans MS;" edge="1" parent="1" source="sBYfoLoBeomyWDFXvlNA-5" target="sBYfoLoBeomyWDFXvlNA-8">
          <mxGeometry relative="1" as="geometry">
            <Array as="points">
              <mxPoint x="611" y="152" />
              <mxPoint x="611" y="125" />
            </Array>
          </mxGeometry>
        </mxCell>
        <mxCell id="sBYfoLoBeomyWDFXvlNA-5" value="" style="sketch=0;pointerEvents=1;shadow=0;dashed=0;html=1;strokeColor=none;fillColor=#505050;labelPosition=center;verticalLabelPosition=bottom;verticalAlign=top;outlineConnect=0;align=center;shape=mxgraph.office.concepts.web_page;fontFamily=Comic Sans MS;" vertex="1" parent="1">
          <mxGeometry x="289" y="125" width="50" height="54" as="geometry" />
        </mxCell>
        <mxCell id="sBYfoLoBeomyWDFXvlNA-6" style="edgeStyle=orthogonalEdgeStyle;rounded=1;orthogonalLoop=1;jettySize=auto;html=1;strokeColor=#BD8A26;strokeWidth=2;fillColor=#fff2cc;fontFamily=Comic Sans MS;" edge="1" parent="1" source="sBYfoLoBeomyWDFXvlNA-8" target="sBYfoLoBeomyWDFXvlNA-22">
          <mxGeometry relative="1" as="geometry">
            <Array as="points">
              <mxPoint x="739" y="220" />
              <mxPoint x="231" y="220" />
              <mxPoint x="231" y="152" />
            </Array>
          </mxGeometry>
        </mxCell>
        <mxCell id="sBYfoLoBeomyWDFXvlNA-7" style="edgeStyle=orthogonalEdgeStyle;rounded=1;orthogonalLoop=1;jettySize=auto;html=1;strokeColor=#BD8A26;strokeWidth=2;fillColor=#fff2cc;fontFamily=Comic Sans MS;" edge="1" parent="1" source="sBYfoLoBeomyWDFXvlNA-8">
          <mxGeometry relative="1" as="geometry">
            <mxPoint x="371" y="338" as="targetPoint" />
            <Array as="points">
              <mxPoint x="739" y="338" />
            </Array>
          </mxGeometry>
        </mxCell>
        <mxCell id="sBYfoLoBeomyWDFXvlNA-8" value="Contacts app" style="rounded=0;whiteSpace=wrap;html=1;dashed=1;fillColor=none;strokeColor=#BD8A26;strokeWidth=2;fontFamily=Comic Sans MS;" vertex="1" parent="1">
          <mxGeometry x="689" y="100" width="100" height="50" as="geometry" />
        </mxCell>
        <mxCell id="sBYfoLoBeomyWDFXvlNA-9" value="LinkedIn" style="text;html=1;strokeColor=#36393d;fillColor=#cce5ff;align=center;verticalAlign=middle;whiteSpace=wrap;rounded=0;dashed=1;strokeWidth=2;fontFamily=Comic Sans MS;" vertex="1" parent="1">
          <mxGeometry x="284" y="97" width="60" height="30" as="geometry" />
        </mxCell>
        <mxCell id="sBYfoLoBeomyWDFXvlNA-10" value="&lt;span style=&quot;&quot;&gt;User wants to import her&amp;nbsp; list of contacts into her LinkedIn account&lt;/span&gt;" style="text;html=1;strokeColor=#9673a6;fillColor=#e1d5e7;align=left;verticalAlign=middle;whiteSpace=wrap;rounded=0;dashed=1;spacingLeft=35;fontFamily=Comic Sans MS;" vertex="1" parent="1">
          <mxGeometry x="51" y="60" width="190" height="60" as="geometry" />
        </mxCell>
        <mxCell id="sBYfoLoBeomyWDFXvlNA-11" value="1" style="ellipse;whiteSpace=wrap;html=1;aspect=fixed;strokeWidth=2;fontFamily=Comic Sans MS;spacingBottom=4;spacingRight=2;strokeColor=#9673a6;fillColor=#e1d5e7;" vertex="1" parent="1">
          <mxGeometry x="59.120000000000005" y="80.5" width="20" height="20" as="geometry" />
        </mxCell>
        <mxCell id="sBYfoLoBeomyWDFXvlNA-12" value="&lt;span style=&quot;&quot;&gt;LinkedIn asks the Contacts app for access to the users&#39;s contacts&lt;/span&gt;" style="text;html=1;strokeColor=#36393d;fillColor=#cce5ff;align=left;verticalAlign=middle;whiteSpace=wrap;rounded=0;dashed=1;spacingLeft=35;fontFamily=Comic Sans MS;" vertex="1" parent="1">
          <mxGeometry x="352.76" y="100" width="248.24" height="42.5" as="geometry" />
        </mxCell>
        <mxCell id="sBYfoLoBeomyWDFXvlNA-13" value="2" style="ellipse;whiteSpace=wrap;html=1;aspect=fixed;strokeWidth=2;fontFamily=Comic Sans MS;spacingBottom=4;spacingRight=2;strokeColor=#6c8ebf;fillColor=#dae8fc;" vertex="1" parent="1">
          <mxGeometry x="360" y="111.25" width="20" height="20" as="geometry" />
        </mxCell>
        <mxCell id="sBYfoLoBeomyWDFXvlNA-14" value="&lt;span style=&quot;&quot;&gt;The Contacts app asks the user to confirm their identity and whether they want to grant LinkedIn access&lt;/span&gt;" style="text;html=1;strokeColor=#d6b656;fillColor=#fff2cc;align=left;verticalAlign=middle;whiteSpace=wrap;rounded=0;dashed=1;spacingLeft=35;fontFamily=Comic Sans MS;" vertex="1" parent="1">
          <mxGeometry x="380" y="170" width="281" height="43" as="geometry" />
        </mxCell>
        <mxCell id="sBYfoLoBeomyWDFXvlNA-15" value="3" style="ellipse;whiteSpace=wrap;html=1;aspect=fixed;strokeWidth=2;fontFamily=Comic Sans MS;spacingBottom=4;spacingRight=2;strokeColor=#d6b656;fillColor=#fff2cc;" vertex="1" parent="1">
          <mxGeometry x="387.5" y="181.5" width="20" height="20" as="geometry" />
        </mxCell>
        <mxCell id="sBYfoLoBeomyWDFXvlNA-16" value="&lt;span style=&quot;&quot;&gt;The user confirms their identity and grants access to LinkedIn&lt;/span&gt;" style="text;html=1;strokeColor=#9673a6;fillColor=#e1d5e7;align=left;verticalAlign=middle;whiteSpace=wrap;rounded=0;dashed=1;spacingLeft=35;fontFamily=Comic Sans MS;" vertex="1" parent="1">
          <mxGeometry x="388.44" y="234" width="275.13" height="40" as="geometry" />
        </mxCell>
        <mxCell id="sBYfoLoBeomyWDFXvlNA-17" value="4" style="ellipse;whiteSpace=wrap;html=1;aspect=fixed;strokeWidth=2;fontFamily=Comic Sans MS;spacingBottom=4;spacingRight=2;strokeColor=#9673a6;fillColor=#e1d5e7;" vertex="1" parent="1">
          <mxGeometry x="396.94" y="249" width="20" height="20" as="geometry" />
        </mxCell>
        <mxCell id="sBYfoLoBeomyWDFXvlNA-18" value="&lt;span style=&quot;&quot;&gt;The Contacts app issues a token that LinkedIn can use to access the user&#39;s contacts&lt;/span&gt;" style="text;html=1;strokeColor=#d6b656;fillColor=#fff2cc;align=left;verticalAlign=middle;whiteSpace=wrap;rounded=0;dashed=1;spacingLeft=35;fontFamily=Comic Sans MS;" vertex="1" parent="1">
          <mxGeometry x="401" y="288" width="250.75" height="45" as="geometry" />
        </mxCell>
        <mxCell id="sBYfoLoBeomyWDFXvlNA-19" value="5" style="ellipse;whiteSpace=wrap;html=1;aspect=fixed;strokeWidth=2;fontFamily=Comic Sans MS;spacingBottom=4;spacingRight=2;strokeColor=#d6b656;fillColor=#fff2cc;" vertex="1" parent="1">
          <mxGeometry x="408.75" y="302.5" width="20" height="20" as="geometry" />
        </mxCell>
        <mxCell id="sBYfoLoBeomyWDFXvlNA-20" style="edgeStyle=orthogonalEdgeStyle;rounded=1;orthogonalLoop=1;jettySize=auto;html=1;strokeColor=#9673a6;strokeWidth=2;fillColor=#e1d5e7;dashed=1;fontFamily=Comic Sans MS;" edge="1" parent="1" source="sBYfoLoBeomyWDFXvlNA-22" target="sBYfoLoBeomyWDFXvlNA-5">
          <mxGeometry relative="1" as="geometry" />
        </mxCell>
        <mxCell id="sBYfoLoBeomyWDFXvlNA-21" style="edgeStyle=orthogonalEdgeStyle;rounded=1;orthogonalLoop=1;jettySize=auto;html=1;strokeColor=#9673a6;strokeWidth=2;fillColor=#e1d5e7;dashed=1;fontFamily=Comic Sans MS;" edge="1" parent="1" source="sBYfoLoBeomyWDFXvlNA-22" target="sBYfoLoBeomyWDFXvlNA-1">
          <mxGeometry relative="1" as="geometry">
            <Array as="points">
              <mxPoint x="191" y="280" />
            </Array>
          </mxGeometry>
        </mxCell>
        <mxCell id="sBYfoLoBeomyWDFXvlNA-22" value="" style="shape=umlActor;verticalLabelPosition=bottom;verticalAlign=top;html=1;outlineConnect=0;fillColor=#e1d5e7;strokeColor=#9673a6;fontFamily=Comic Sans MS;" vertex="1" parent="1">
          <mxGeometry x="181" y="132" width="20" height="40" as="geometry" />
        </mxCell>
        <mxCell id="sBYfoLoBeomyWDFXvlNA-23" value="User" style="text;html=1;align=center;verticalAlign=middle;whiteSpace=wrap;rounded=0;fillColor=#f5f5f5;fontFamily=Comic Sans MS;fontColor=#333333;strokeColor=none;" vertex="1" parent="1">
          <mxGeometry x="161" y="172" width="60" height="28" as="geometry" />
        </mxCell>
        <mxCell id="sBYfoLoBeomyWDFXvlNA-24" value="&lt;span style=&quot;&quot;&gt;LinkedIn loads the user&#39;s list of contacts&lt;/span&gt;" style="text;html=1;strokeColor=#36393d;fillColor=#cce5ff;align=left;verticalAlign=middle;whiteSpace=wrap;rounded=0;dashed=1;spacingLeft=35;spacingRight=10;fontFamily=Comic Sans MS;" vertex="1" parent="1">
          <mxGeometry x="396.94" y="354" width="253.37" height="42.5" as="geometry" />
        </mxCell>
        <mxCell id="sBYfoLoBeomyWDFXvlNA-25" value="6" style="ellipse;whiteSpace=wrap;html=1;aspect=fixed;strokeWidth=2;fontFamily=Comic Sans MS;spacingBottom=4;spacingRight=2;strokeColor=#36393d;fillColor=#cce5ff;" vertex="1" parent="1">
          <mxGeometry x="406.43" y="365" width="20" height="20" as="geometry" />
        </mxCell>
        <mxCell id="sBYfoLoBeomyWDFXvlNA-28" value="OAuth flows" style="text;html=1;strokeColor=#b85450;fillColor=#f8cecc;align=center;verticalAlign=middle;whiteSpace=wrap;rounded=0;dashed=1;fontFamily=Comic Sans MS;fontSize=18;" vertex="1" parent="1">
          <mxGeometry x="406" y="51" width="234" height="30" as="geometry" />
        </mxCell>
      </root>
    </mxGraphModel>
  </diagram>
</mxfile>
